<?xml version="1.0" standalone="no"?>
<!DOCTYPE svg PUBLIC "-//W3C//DTD SVG 1.1//EN" "http://www.w3.org/Graphics/SVG/1.1/DTD/svg11.dtd" >
<svg xmlns="http://www.w3.org/2000/svg" xmlns:xlink="http://www.w3.org/1999/xlink" version="1.1">
<metadata>
Created by FontForge 20150824 at Wed Aug 31 01:35:56 2016
 By Everything Fonts
Copyright (c) 2014 by Rene' Bieder. All rights reserved.
</metadata>
<defs>
<font id="CamptonBoldDEMO" horiz-adv-x="870" >
  <font-face 
    font-family="CamptonBoldDEMO"
    font-weight="700"
    font-stretch="normal"
    units-per-em="1000"
    panose-1="0 0 8 0 0 0 0 0 0 0"
    ascent="800"
    descent="-200"
    x-height="485"
    cap-height="680"
    bbox="-35 -236 1312 919"
    underline-thickness="50"
    underline-position="-150"
    unicode-range="U+0020-FB02"
  />
<missing-glyph 
d="M770 680v-680h-670v680h670zM700 610h-481l481 -481v481zM170 70h477l-477 477v-477z" />
    <glyph glyph-name="fi" unicode="fi" horiz-adv-x="734" 
d="M676 485v-485h-162v346h-230v-346h-162v346h-119v139h119v38q0 113 64.5 180t165.5 67q36 0 69 -4t55 -9t77 -18l-26 -136q-102 20 -149 20q-45 0 -69.5 -27t-24.5 -76v-35h392z" />
    <glyph glyph-name="fl" unicode="fl" horiz-adv-x="728" 
d="M122 485v58q0 104 59.5 165.5t153.5 61.5q61 0 129 -18l-22 -135q-41 9 -74 9q-38 0 -61 -21.5t-23 -57.5v-62h148v-139h-148v-346h-162v346h-119v139h119zM672 710v-710h-162v710h162z" />
    <glyph glyph-name=".notdef" 
d="M770 680v-680h-670v680h670zM700 610h-481l481 -481v481zM170 70h477l-477 477v-477z" />
    <glyph glyph-name=".null" horiz-adv-x="0" 
 />
    <glyph glyph-name="nonmarkingreturn" horiz-adv-x="333" 
 />
    <glyph glyph-name="space" unicode=" " horiz-adv-x="257" 
 />
    <glyph glyph-name="exclam" unicode="!" horiz-adv-x="295" 
d="M218 222h-142l-14 458h170zM147 -11q-36 0 -61.5 24t-25.5 60t25.5 60t61.5 24t62 -24t26 -60t-26 -60t-62 -24z" />
    <glyph glyph-name="quotedbl" unicode="&#x22;" 
d="M770 680v-680h-670v680h670zM170 70h480l-176 171h114l112 -109v478h-480l178 -173h-114l-114 111v-478zM596 294q-21 0 -35.5 14.5t-14.5 34.5q0 21 14.5 35t35.5 14q22 0 36.5 -14t14.5 -35q0 -20 -14.5 -34.5t-36.5 -14.5zM234 391h38q22 0 36.5 -13.5t14.5 -34.5
q0 -20 -14.5 -33.5t-36.5 -13.5h-38v95zM409 391v-20h-48v-18h42v-20h-42v-17h48v-20h-71v95h71zM473 311l-22 33v-48h-23v95h18l33 -51l34 51h17v-95h-23v48l-22 -33h-12zM596 371q-12 0 -19 -8t-7 -20q0 -11 7 -19t19 -8q11 0 18.5 8t7.5 19t-7.5 19.5t-18.5 8.5zM258 316
h14q12 0 19.5 8t7.5 19t-7.5 19t-19.5 8h-14v-54z" />
    <glyph glyph-name="numbersign" unicode="#" 
d="M770 680v-680h-670v680h670zM170 70h480l-176 171h114l112 -109v478h-480l178 -173h-114l-114 111v-478zM596 294q-21 0 -35.5 14.5t-14.5 34.5q0 21 14.5 35t35.5 14q22 0 36.5 -14t14.5 -35q0 -20 -14.5 -34.5t-36.5 -14.5zM234 391h38q22 0 36.5 -13.5t14.5 -34.5
q0 -20 -14.5 -33.5t-36.5 -13.5h-38v95zM409 391v-20h-48v-18h42v-20h-42v-17h48v-20h-71v95h71zM473 311l-22 33v-48h-23v95h18l33 -51l34 51h17v-95h-23v48l-22 -33h-12zM596 371q-12 0 -19 -8t-7 -20q0 -11 7 -19t19 -8q11 0 18.5 8t7.5 19t-7.5 19.5t-18.5 8.5zM258 316
h14q12 0 19.5 8t7.5 19t-7.5 19t-19.5 8h-14v-54z" />
    <glyph glyph-name="dollar" unicode="$" horiz-adv-x="676" 
d="M629 207q0 -87 -57.5 -144t-156.5 -72v-101h-131v100q-101 14 -167.5 73.5t-76.5 162.5h169q8 -45 45.5 -70.5t97.5 -25.5q47 0 71.5 16t24.5 44q0 44 -72 58l-112 25q-101 22 -149 70.5t-48 129.5q0 89 59 147.5t158 71.5v107h131v-111q85 -17 144.5 -69t68.5 -150h-170
q-15 86 -110 86q-44 0 -70.5 -18t-26.5 -50q0 -27 19 -41t59 -23l95 -22q101 -22 153 -66.5t52 -127.5z" />
    <glyph glyph-name="percent" unicode="%" horiz-adv-x="1091" 
d="M270 695q88 0 146.5 -56t58.5 -144t-58.5 -144.5t-146.5 -56.5t-146.5 56.5t-58.5 144.5t58.5 144t146.5 56zM367 0h-109l454 680h109zM271 400q39 0 66.5 26.5t27.5 68.5t-27.5 68.5t-66.5 26.5q-40 0 -67.5 -26.5t-27.5 -68.5t27.5 -68.5t67.5 -26.5zM820 386
q88 0 146.5 -56t58.5 -144t-58.5 -144.5t-146.5 -56.5t-146.5 56.5t-58.5 144.5t58.5 144t146.5 56zM820 90q39 0 67 27t28 69q0 41 -28 67.5t-67 26.5t-66.5 -26.5t-27.5 -67.5q0 -42 27.5 -69t66.5 -27z" />
    <glyph glyph-name="ampersand" unicode="&#x26;" horiz-adv-x="738" 
d="M523 0l-44 41q-82 -56 -197 -56q-117 0 -188 59t-71 155q0 117 115 179q-41 59 -41 119q0 84 63 141t165 57q100 0 160 -57.5t68 -156.5h-153q-3 36 -22 56t-48 20q-28 0 -46.5 -17.5t-18.5 -46.5q0 -20 13 -41t29 -38t56 -55l112 -109l72 117h166l-129 -213l-4 -6
l152 -148h-209zM286 121q43 0 85 21l-107 101l-38 36q-48 -28 -48 -74q0 -35 31.5 -59.5t76.5 -24.5z" />
    <glyph glyph-name="quotesingle" unicode="'" 
d="M770 680v-680h-670v680h670zM170 70h480l-176 171h114l112 -109v478h-480l178 -173h-114l-114 111v-478zM596 294q-21 0 -35.5 14.5t-14.5 34.5q0 21 14.5 35t35.5 14q22 0 36.5 -14t14.5 -35q0 -20 -14.5 -34.5t-36.5 -14.5zM234 391h38q22 0 36.5 -13.5t14.5 -34.5
q0 -20 -14.5 -33.5t-36.5 -13.5h-38v95zM409 391v-20h-48v-18h42v-20h-42v-17h48v-20h-71v95h71zM473 311l-22 33v-48h-23v95h18l33 -51l34 51h17v-95h-23v48l-22 -33h-12zM596 371q-12 0 -19 -8t-7 -20q0 -11 7 -19t19 -8q11 0 18.5 8t7.5 19t-7.5 19.5t-18.5 8.5zM258 316
h14q12 0 19.5 8t7.5 19t-7.5 19t-19.5 8h-14v-54z" />
    <glyph glyph-name="parenleft" unicode="(" horiz-adv-x="389" 
d="M258 738l111 -111q-79 -84 -116.5 -160t-37.5 -176q0 -99 37.5 -174t116.5 -159l-111 -111q-214 197 -214 444q0 250 214 447z" />
    <glyph glyph-name="parenright" unicode=")" horiz-adv-x="386" 
d="M20 627l111 111q214 -197 214 -447q0 -247 -214 -444l-111 111q79 84 116.5 159t37.5 174q0 100 -37.5 176t-116.5 160z" />
    <glyph glyph-name="asterisk" unicode="*" 
d="M770 680v-680h-670v680h670zM170 70h480l-176 171h114l112 -109v478h-480l178 -173h-114l-114 111v-478zM596 294q-21 0 -35.5 14.5t-14.5 34.5q0 21 14.5 35t35.5 14q22 0 36.5 -14t14.5 -35q0 -20 -14.5 -34.5t-36.5 -14.5zM234 391h38q22 0 36.5 -13.5t14.5 -34.5
q0 -20 -14.5 -33.5t-36.5 -13.5h-38v95zM409 391v-20h-48v-18h42v-20h-42v-17h48v-20h-71v95h71zM473 311l-22 33v-48h-23v95h18l33 -51l34 51h17v-95h-23v48l-22 -33h-12zM596 371q-12 0 -19 -8t-7 -20q0 -11 7 -19t19 -8q11 0 18.5 8t7.5 19t-7.5 19.5t-18.5 8.5zM258 316
h14q12 0 19.5 8t7.5 19t-7.5 19t-19.5 8h-14v-54z" />
    <glyph glyph-name="plus" unicode="+" 
d="M770 680v-680h-670v680h670zM170 70h480l-176 171h114l112 -109v478h-480l178 -173h-114l-114 111v-478zM596 294q-21 0 -35.5 14.5t-14.5 34.5q0 21 14.5 35t35.5 14q22 0 36.5 -14t14.5 -35q0 -20 -14.5 -34.5t-36.5 -14.5zM234 391h38q22 0 36.5 -13.5t14.5 -34.5
q0 -20 -14.5 -33.5t-36.5 -13.5h-38v95zM409 391v-20h-48v-18h42v-20h-42v-17h48v-20h-71v95h71zM473 311l-22 33v-48h-23v95h18l33 -51l34 51h17v-95h-23v48l-22 -33h-12zM596 371q-12 0 -19 -8t-7 -20q0 -11 7 -19t19 -8q11 0 18.5 8t7.5 19t-7.5 19.5t-18.5 8.5zM258 316
h14q12 0 19.5 8t7.5 19t-7.5 19t-19.5 8h-14v-54z" />
    <glyph glyph-name="comma" unicode="," horiz-adv-x="234" 
d="M27 -113l52 111q-52 22 -52 73q0 35 26.5 60t63.5 25q38 0 64 -24.5t26 -61.5q0 -32 -30 -83l-60 -100h-90z" />
    <glyph glyph-name="hyphen" unicode="-" horiz-adv-x="554" 
d="M458 181v154h-361v-154h361z" />
    <glyph glyph-name="period" unicode="." horiz-adv-x="235" 
d="M118 -18q-38 0 -64.5 25.5t-26.5 62.5t26.5 62t64.5 25t64.5 -25t26.5 -62t-26.5 -62.5t-64.5 -25.5z" />
    <glyph glyph-name="slash" unicode="/" 
d="M770 680v-680h-670v680h670zM170 70h480l-176 171h114l112 -109v478h-480l178 -173h-114l-114 111v-478zM596 294q-21 0 -35.5 14.5t-14.5 34.5q0 21 14.5 35t35.5 14q22 0 36.5 -14t14.5 -35q0 -20 -14.5 -34.5t-36.5 -14.5zM234 391h38q22 0 36.5 -13.5t14.5 -34.5
q0 -20 -14.5 -33.5t-36.5 -13.5h-38v95zM409 391v-20h-48v-18h42v-20h-42v-17h48v-20h-71v95h71zM473 311l-22 33v-48h-23v95h18l33 -51l34 51h17v-95h-23v48l-22 -33h-12zM596 371q-12 0 -19 -8t-7 -20q0 -11 7 -19t19 -8q11 0 18.5 8t7.5 19t-7.5 19.5t-18.5 8.5zM258 316
h14q12 0 19.5 8t7.5 19t-7.5 19t-19.5 8h-14v-54z" />
    <glyph glyph-name="zero" unicode="0" horiz-adv-x="718" 
d="M360 695q145 0 230 -99t85 -256t-85 -256t-230 -99t-230.5 99t-85.5 256t85.5 256t230.5 99zM359 132q73 0 113.5 58t40.5 150t-40.5 150t-113.5 58q-74 0 -114.5 -58t-40.5 -150t40.5 -150t114.5 -58z" />
    <glyph glyph-name="one" unicode="1" horiz-adv-x="531" 
d="M526 137v-137h-491v137h170v365l-160 -45v146l222 77h100v-543h159z" />
    <glyph glyph-name="two" unicode="2" horiz-adv-x="572" 
d="M530 137v-137h-484v80l207 251q9 10 24 28t21.5 26t17.5 21t15.5 20.5t9.5 17.5t7 18.5t2 17.5q0 27 -18.5 47t-55.5 20q-36 0 -57.5 -21.5t-25.5 -60.5h-161q2 104 65.5 167t177.5 63t181.5 -60.5t67.5 -148.5q0 -47 -29.5 -94.5t-110.5 -144.5l-92 -110h238z" />
    <glyph glyph-name="three" unicode="3" horiz-adv-x="578" 
d="M460 342q86 -48 86 -145q0 -94 -71 -153t-186 -59q-116 0 -180 57t-76 157h157q9 -38 33 -58t73 -20q41 0 67 21.5t26 54.5q0 35 -28.5 56.5t-72.5 21.5h-59v124h59q40 0 65 22t25 56q0 35 -22.5 56t-60.5 21t-62.5 -21.5t-28.5 -57.5h-157q6 98 71.5 156t171.5 58
q107 0 172.5 -57t65.5 -149t-68 -141z" />
    <glyph glyph-name="four" unicode="4" horiz-adv-x="656" 
d="M623 120h-86v-120h-159v120h-346v105l185 455h162l-160 -419h159v187h159v-187h86v-141z" />
    <glyph glyph-name="five" unicode="5" horiz-adv-x="611" 
d="M566 220q0 -104 -72.5 -169.5t-188.5 -65.5h-1q-113 0 -184.5 58t-82.5 156h159q22 -78 108 -78q48 0 78 27t30 69q0 41 -31 66t-85 25h-212v372h450v-144h-294l-1 -94h84q112 0 177.5 -62t65.5 -160z" />
    <glyph glyph-name="six" unicode="6" horiz-adv-x="624" 
d="M463 680l-129 -203q112 -7 182.5 -74.5t70.5 -165.5q0 -108 -77 -180t-198 -72t-197.5 72t-76.5 177q0 73 58 165l177 281h190zM312 120q50 0 83 33.5t33 77.5t-33 77t-83 33q-48 0 -80 -23l-4 -7q-33 -47 -33 -81q0 -44 33.5 -77t83.5 -33z" />
    <glyph glyph-name="seven" unicode="7" horiz-adv-x="524" 
d="M506 680v-95l-261 -585h-184l239 529h-290v151h496z" />
    <glyph glyph-name="eight" unicode="8" horiz-adv-x="623" 
d="M478 361q109 -54 109 -164q0 -97 -73 -154.5t-202 -57.5t-202 57.5t-73 154.5q0 110 109 164q-81 49 -81 138q0 87 69 141.5t178 54.5q108 0 177 -54.5t69 -141.5q0 -88 -80 -138zM311 573q-41 0 -67 -24t-26 -60t26 -60t67 -24t67.5 24.5t26.5 59.5q0 36 -26.5 60
t-67.5 24zM311 117q44 0 73.5 26.5t29.5 64.5t-29.5 63t-73.5 25t-73 -25t-29 -63q0 -39 29 -65t73 -26z" />
    <glyph glyph-name="nine" unicode="9" horiz-adv-x="624" 
d="M312 695q121 0 197.5 -72t76.5 -177q0 -73 -58 -165l-177 -281h-190l129 203q-112 7 -182.5 74.5t-70.5 165.5q0 108 77 180t198 72zM392 362l4 7q33 47 33 81q0 44 -33.5 77t-83.5 33t-83 -33.5t-33 -77.5t33 -77t83 -33q48 0 80 23z" />
    <glyph glyph-name="colon" unicode=":" horiz-adv-x="235" 
d="M118 322q-38 0 -64.5 25.5t-26.5 62.5t26.5 62t64.5 25t64.5 -25t26.5 -62t-26.5 -62.5t-64.5 -25.5zM118 -18q-38 0 -64.5 25.5t-26.5 62.5t26.5 62t64.5 25t64.5 -25t26.5 -62t-26.5 -62.5t-64.5 -25.5z" />
    <glyph glyph-name="semicolon" unicode=";" horiz-adv-x="235" 
d="M118 322q-38 0 -64.5 25.5t-26.5 62.5t26.5 62t64.5 25t64.5 -25t26.5 -62t-26.5 -62.5t-64.5 -25.5zM28 -113l52 111q-52 22 -52 73q0 35 26.5 60t63.5 25q38 0 64 -24.5t26 -61.5q0 -32 -30 -83l-60 -100h-90z" />
    <glyph glyph-name="less" unicode="&#x3c;" 
d="M770 680v-680h-670v680h670zM170 70h480l-176 171h114l112 -109v478h-480l178 -173h-114l-114 111v-478zM596 294q-21 0 -35.5 14.5t-14.5 34.5q0 21 14.5 35t35.5 14q22 0 36.5 -14t14.5 -35q0 -20 -14.5 -34.5t-36.5 -14.5zM234 391h38q22 0 36.5 -13.5t14.5 -34.5
q0 -20 -14.5 -33.5t-36.5 -13.5h-38v95zM409 391v-20h-48v-18h42v-20h-42v-17h48v-20h-71v95h71zM473 311l-22 33v-48h-23v95h18l33 -51l34 51h17v-95h-23v48l-22 -33h-12zM596 371q-12 0 -19 -8t-7 -20q0 -11 7 -19t19 -8q11 0 18.5 8t7.5 19t-7.5 19.5t-18.5 8.5zM258 316
h14q12 0 19.5 8t7.5 19t-7.5 19t-19.5 8h-14v-54z" />
    <glyph glyph-name="equal" unicode="=" 
d="M770 680v-680h-670v680h670zM170 70h480l-176 171h114l112 -109v478h-480l178 -173h-114l-114 111v-478zM596 294q-21 0 -35.5 14.5t-14.5 34.5q0 21 14.5 35t35.5 14q22 0 36.5 -14t14.5 -35q0 -20 -14.5 -34.5t-36.5 -14.5zM234 391h38q22 0 36.5 -13.5t14.5 -34.5
q0 -20 -14.5 -33.5t-36.5 -13.5h-38v95zM409 391v-20h-48v-18h42v-20h-42v-17h48v-20h-71v95h71zM473 311l-22 33v-48h-23v95h18l33 -51l34 51h17v-95h-23v48l-22 -33h-12zM596 371q-12 0 -19 -8t-7 -20q0 -11 7 -19t19 -8q11 0 18.5 8t7.5 19t-7.5 19.5t-18.5 8.5zM258 316
h14q12 0 19.5 8t7.5 19t-7.5 19t-19.5 8h-14v-54z" />
    <glyph glyph-name="greater" unicode="&#x3e;" 
d="M770 680v-680h-670v680h670zM170 70h480l-176 171h114l112 -109v478h-480l178 -173h-114l-114 111v-478zM596 294q-21 0 -35.5 14.5t-14.5 34.5q0 21 14.5 35t35.5 14q22 0 36.5 -14t14.5 -35q0 -20 -14.5 -34.5t-36.5 -14.5zM234 391h38q22 0 36.5 -13.5t14.5 -34.5
q0 -20 -14.5 -33.5t-36.5 -13.5h-38v95zM409 391v-20h-48v-18h42v-20h-42v-17h48v-20h-71v95h71zM473 311l-22 33v-48h-23v95h18l33 -51l34 51h17v-95h-23v48l-22 -33h-12zM596 371q-12 0 -19 -8t-7 -20q0 -11 7 -19t19 -8q11 0 18.5 8t7.5 19t-7.5 19.5t-18.5 8.5zM258 316
h14q12 0 19.5 8t7.5 19t-7.5 19t-19.5 8h-14v-54z" />
    <glyph glyph-name="question" unicode="?" horiz-adv-x="539" 
d="M183 219l-10 163h82q43 0 71 23.5t28 63.5q0 38 -24 61.5t-64 23.5q-39 0 -63.5 -21.5t-28.5 -57.5h-157q6 99 69 156.5t175 57.5q106 0 174.5 -61t68.5 -159q0 -79 -51.5 -129.5t-141.5 -62.5l-5 -58h-123zM240 -11q-36 0 -61.5 24t-25.5 60t25.5 60t61.5 24t62 -24
t26 -60t-26 -60t-62 -24z" />
    <glyph glyph-name="at" unicode="@" horiz-adv-x="990" 
d="M713 442v-242q0 -70 47 -70q71 0 71 128q0 136 -92 225.5t-234 89.5q-144 0 -244 -96t-100 -235t98.5 -235t238.5 -96q121 0 214 73l58 -87q-116 -87 -271 -87q-186 0 -316 124.5t-130 307.5q0 120 60 219.5t163.5 155.5t226.5 56q186 0 309.5 -117t123.5 -295
q0 -106 -44.5 -169.5t-137.5 -63.5q-103 0 -146 65q-60 -63 -147 -63q-84 0 -142.5 60.5t-58.5 150.5t58 150.5t143 60.5q64 0 114 -34v24h138zM490 145q52 0 88 46q-3 27 -3 54v49q-36 44 -85 44q-37 0 -65.5 -26.5t-28.5 -70.5t28 -70t66 -26z" />
    <glyph glyph-name="A" unicode="A" horiz-adv-x="763" 
d="M525 117h-288l-45 -117h-180l289 684h161l288 -684h-179zM469 261l-88 226l-88 -226h176z" />
    <glyph glyph-name="B" unicode="B" horiz-adv-x="694" 
d="M535 350q60 -13 92.5 -58t32.5 -103q0 -86 -65.5 -137.5t-178.5 -51.5h-356v680h336q110 0 172 -48.5t62 -132.5q0 -49 -25.5 -91.5t-69.5 -57.5zM229 542v-139h141q47 0 72.5 19.5t25.5 53.5q0 66 -98 66h-141zM229 140h165q50 0 75 19.5t25 51.5q0 63 -97 63h-168v-134
z" />
    <glyph glyph-name="C" unicode="C" horiz-adv-x="789" 
d="M403 144q67 0 111 36.5t58 101.5h173q-16 -133 -109 -214.5t-232 -81.5q-154 0 -257 100.5t-103 253.5t103 253.5t257 100.5q139 0 232 -81.5t109 -214.5h-173q-14 65 -58 101.5t-111 36.5q-83 0 -135.5 -55.5t-52.5 -140.5t52.5 -140.5t135.5 -55.5z" />
    <glyph glyph-name="D" unicode="D" horiz-adv-x="737" 
d="M60 680h274q160 0 263.5 -94.5t103.5 -243.5q0 -151 -103.5 -246.5t-263.5 -95.5h-274v680zM229 152h105q83 0 139 54.5t56 135.5q0 79 -56 132.5t-139 53.5h-105v-376z" />
    <glyph glyph-name="E" unicode="E" horiz-adv-x="610" 
d="M229 533v-124h301v-144h-301v-118h345v-147h-514v680h514v-147h-345z" />
    <glyph glyph-name="F" unicode="F" horiz-adv-x="583" 
d="M229 531v-144h292v-147h-292v-240h-169v680h507v-149h-338z" />
    <glyph glyph-name="G" unicode="G" horiz-adv-x="809" 
d="M754 382v-382h-126l-7 82q-78 -96 -215 -96q-158 0 -260 99.5t-102 247.5q0 158 103.5 259.5t260.5 101.5q128 0 223 -68.5t116 -187.5h-177q-38 101 -159 101q-87 0 -141.5 -56t-54.5 -146q0 -82 54.5 -138t143.5 -56q119 0 172 104l-195 2v133h364z" />
    <glyph glyph-name="H" unicode="H" horiz-adv-x="734" 
d="M675 680v-680h-169v255h-277v-255h-169v680h169v-273h277v273h169z" />
    <glyph glyph-name="I" unicode="I" horiz-adv-x="289" 
d="M229 680v-680h-169v680h169z" />
    <glyph glyph-name="J" unicode="J" horiz-adv-x="623" 
d="M572 680v-408q0 -138 -74 -212.5t-207 -74.5q-120 0 -194 67.5t-79 188.5h168q3 -48 33 -75t77 -27q48 0 76.5 35t28.5 98v408h171z" />
    <glyph glyph-name="K" unicode="K" horiz-adv-x="728" 
d="M326 250l-97 -112v-138h-169v680h169v-309l271 309h200l-259 -298l281 -382h-206z" />
    <glyph glyph-name="L" unicode="L" horiz-adv-x="585" 
d="M565 149v-149h-505v680h169v-531h336z" />
    <glyph glyph-name="M" unicode="M" horiz-adv-x="854" 
d="M794 680v-680h-169v341l-151 -233v-1h-94v1l-152 235l1 -343h-169v680h125l242 -363l241 363h126z" />
    <glyph glyph-name="N" unicode="N" horiz-adv-x="745" 
d="M686 680v-680h-131l-326 373v-373h-169v680h129l328 -383v383h169z" />
    <glyph glyph-name="O" unicode="O" horiz-adv-x="808" 
d="M404 694q154 0 257.5 -102.5t103.5 -251.5t-103.5 -251.5t-257.5 -102.5q-153 0 -256.5 102.5t-103.5 251.5t103.5 251.5t256.5 102.5zM404 143q81 0 135 57.5t54 139.5t-54 139.5t-135 57.5t-135 -57.5t-54 -139.5t54 -139.5t135 -57.5z" />
    <glyph glyph-name="P" unicode="P" horiz-adv-x="641" 
d="M60 680h274q133 0 210.5 -67t77.5 -182q0 -119 -81 -188.5t-221 -69.5h-91v-173h-169v680zM229 321h101q56 0 89.5 30t33.5 80q0 46 -33.5 73t-89.5 27h-101v-210z" />
    <glyph glyph-name="Q" unicode="Q" horiz-adv-x="808" 
d="M765 340q0 -158 -115 -263l107 -126l-120 -109l-134 157q-45 -13 -99 -13q-153 0 -256.5 102.5t-103.5 251.5t103.5 251.5t256.5 102.5q154 0 257.5 -102.5t103.5 -251.5zM215 340q0 -82 54 -139.5t135 -57.5t135 57.5t54 139.5t-54 139.5t-135 57.5t-135 -57.5
t-54 -139.5z" />
    <glyph glyph-name="R" unicode="R" horiz-adv-x="701" 
d="M334 197h-105v-197h-169v680h298q127 0 204 -64.5t77 -174.5q0 -70 -34 -125t-96 -86l175 -230h-204zM229 349h125q50 0 83.5 25.5t33.5 66.5q0 40 -33.5 65t-83.5 25h-125v-182z" />
    <glyph glyph-name="S" unicode="S" horiz-adv-x="676" 
d="M337 695q46 0 90.5 -10t89 -33.5t75 -70.5t36.5 -112h-170q-15 86 -110 86q-44 0 -70.5 -18t-26.5 -50q0 -27 19 -41t59 -23l95 -22q101 -22 153 -66.5t52 -127.5q0 -102 -77 -161.5t-205 -59.5q-124 0 -210 60.5t-97 179.5h169q8 -45 45.5 -70.5t97.5 -25.5
q47 0 71.5 16t24.5 44q0 44 -72 58l-112 25q-101 22 -149 70.5t-48 129.5q0 101 74.5 161.5t195.5 60.5z" />
    <glyph glyph-name="T" unicode="T" horiz-adv-x="648" 
d="M625 529h-216v-529h-169v529h-217v151h602v-151z" />
    <glyph glyph-name="U" unicode="U" horiz-adv-x="733" 
d="M683 680v-363q0 -157 -85 -244.5t-232 -87.5t-231.5 87.5t-84.5 244.5v363h170v-366q0 -78 39.5 -124.5t106.5 -46.5t107 46.5t40 124.5v366h170z" />
    <glyph glyph-name="V" unicode="V" horiz-adv-x="780" 
d="M770 680l-295 -684h-170l-295 684h186l194 -461l194 461h186z" />
    <glyph glyph-name="W" unicode="W" horiz-adv-x="1080" 
d="M1060 680l-220 -684h-163l-137 415l-137 -415h-163l-220 684h179l127 -423l144 421v2h140l144 -422l127 422h179z" />
    <glyph glyph-name="X" unicode="X" horiz-adv-x="696" 
d="M495 0l-146 209l-147 -209h-194l227 335l-224 345h203l134 -210l134 210h203l-224 -345l228 -335h-194z" />
    <glyph glyph-name="Y" unicode="Y" horiz-adv-x="719" 
d="M713 680l-268 -475v-205h-170v205l-269 475h187l166 -296l167 296h187z" />
    <glyph glyph-name="Z" unicode="Z" horiz-adv-x="658" 
d="M623 149v-149h-589v80l337 451h-320v149h566v-80l-323 -451h329z" />
    <glyph glyph-name="bracketleft" unicode="[" horiz-adv-x="383" 
d="M211 5h146v-152h-308v877h308v-151h-146v-574z" />
    <glyph glyph-name="backslash" unicode="\" 
d="M770 680v-680h-670v680h670zM170 70h480l-176 171h114l112 -109v478h-480l178 -173h-114l-114 111v-478zM596 294q-21 0 -35.5 14.5t-14.5 34.5q0 21 14.5 35t35.5 14q22 0 36.5 -14t14.5 -35q0 -20 -14.5 -34.5t-36.5 -14.5zM234 391h38q22 0 36.5 -13.5t14.5 -34.5
q0 -20 -14.5 -33.5t-36.5 -13.5h-38v95zM409 391v-20h-48v-18h42v-20h-42v-17h48v-20h-71v95h71zM473 311l-22 33v-48h-23v95h18l33 -51l34 51h17v-95h-23v48l-22 -33h-12zM596 371q-12 0 -19 -8t-7 -20q0 -11 7 -19t19 -8q11 0 18.5 8t7.5 19t-7.5 19.5t-18.5 8.5zM258 316
h14q12 0 19.5 8t7.5 19t-7.5 19t-19.5 8h-14v-54z" />
    <glyph glyph-name="bracketright" unicode="]" horiz-adv-x="383" 
d="M26 579v151h308v-877h-308v152h146v574h-146z" />
    <glyph glyph-name="asciicircum" unicode="^" 
d="M770 680v-680h-670v680h670zM170 70h480l-176 171h114l112 -109v478h-480l178 -173h-114l-114 111v-478zM596 294q-21 0 -35.5 14.5t-14.5 34.5q0 21 14.5 35t35.5 14q22 0 36.5 -14t14.5 -35q0 -20 -14.5 -34.5t-36.5 -14.5zM234 391h38q22 0 36.5 -13.5t14.5 -34.5
q0 -20 -14.5 -33.5t-36.5 -13.5h-38v95zM409 391v-20h-48v-18h42v-20h-42v-17h48v-20h-71v95h71zM473 311l-22 33v-48h-23v95h18l33 -51l34 51h17v-95h-23v48l-22 -33h-12zM596 371q-12 0 -19 -8t-7 -20q0 -11 7 -19t19 -8q11 0 18.5 8t7.5 19t-7.5 19.5t-18.5 8.5zM258 316
h14q12 0 19.5 8t7.5 19t-7.5 19t-19.5 8h-14v-54z" />
    <glyph glyph-name="underscore" unicode="_" 
d="M770 680v-680h-670v680h670zM170 70h480l-176 171h114l112 -109v478h-480l178 -173h-114l-114 111v-478zM596 294q-21 0 -35.5 14.5t-14.5 34.5q0 21 14.5 35t35.5 14q22 0 36.5 -14t14.5 -35q0 -20 -14.5 -34.5t-36.5 -14.5zM234 391h38q22 0 36.5 -13.5t14.5 -34.5
q0 -20 -14.5 -33.5t-36.5 -13.5h-38v95zM409 391v-20h-48v-18h42v-20h-42v-17h48v-20h-71v95h71zM473 311l-22 33v-48h-23v95h18l33 -51l34 51h17v-95h-23v48l-22 -33h-12zM596 371q-12 0 -19 -8t-7 -20q0 -11 7 -19t19 -8q11 0 18.5 8t7.5 19t-7.5 19.5t-18.5 8.5zM258 316
h14q12 0 19.5 8t7.5 19t-7.5 19t-19.5 8h-14v-54z" />
    <glyph glyph-name="grave" unicode="`" 
d="M770 680v-680h-670v680h670zM170 70h480l-176 171h114l112 -109v478h-480l178 -173h-114l-114 111v-478zM596 294q-21 0 -35.5 14.5t-14.5 34.5q0 21 14.5 35t35.5 14q22 0 36.5 -14t14.5 -35q0 -20 -14.5 -34.5t-36.5 -14.5zM234 391h38q22 0 36.5 -13.5t14.5 -34.5
q0 -20 -14.5 -33.5t-36.5 -13.5h-38v95zM409 391v-20h-48v-18h42v-20h-42v-17h48v-20h-71v95h71zM473 311l-22 33v-48h-23v95h18l33 -51l34 51h17v-95h-23v48l-22 -33h-12zM596 371q-12 0 -19 -8t-7 -20q0 -11 7 -19t19 -8q11 0 18.5 8t7.5 19t-7.5 19.5t-18.5 8.5zM258 316
h14q12 0 19.5 8t7.5 19t-7.5 19t-19.5 8h-14v-54z" />
    <glyph glyph-name="a" unicode="a" horiz-adv-x="624" 
d="M569 485v-485h-162v27q-58 -37 -133 -37q-99 0 -170 73t-71 180t71 180t170 73q75 0 133 -37v26h162zM306 123q62 0 101 45v150q-39 46 -101 46q-49 0 -81.5 -35t-32.5 -86t32.5 -85.5t81.5 -34.5z" />
    <glyph glyph-name="b" unicode="b" horiz-adv-x="624" 
d="M350 494q99 0 170 -72.5t71 -179.5q0 -108 -71 -181t-170 -73q-75 0 -133 37v-25h-162v710h162v-253q58 37 133 37zM318 121q49 0 81.5 35t32.5 86q0 50 -32.5 85t-81.5 35q-62 0 -101 -46v-150q39 -45 101 -45z" />
    <glyph glyph-name="c" unicode="c" horiz-adv-x="580" 
d="M298 126q37 0 63 20t32 53h153q-8 -93 -77.5 -151.5t-170.5 -58.5q-115 0 -190 71.5t-75 182.5q0 110 75 181.5t190 71.5q101 0 170.5 -58.5t77.5 -151.5h-153q-6 33 -32 53t-63 20q-51 0 -81 -32.5t-30 -83.5t30 -84t81 -33z" />
    <glyph glyph-name="d" unicode="d" horiz-adv-x="624" 
d="M569 710v-710h-162v25q-58 -37 -133 -37q-99 0 -170 73t-71 181q0 107 71 179.5t170 72.5q75 0 133 -37v253h162zM306 121q62 0 101 45v150q-39 46 -101 46q-49 0 -81.5 -35t-32.5 -85q0 -51 32.5 -86t81.5 -35z" />
    <glyph glyph-name="e" unicode="e" horiz-adv-x="573" 
d="M539 253q0 -37 -3 -55l1 -3h-346q23 -78 109 -78q52 0 74 35h160q-17 -75 -81.5 -119t-154.5 -44q-118 0 -191.5 71t-73.5 183q0 111 71.5 182t186.5 71q107 0 177.5 -67.5t70.5 -175.5zM291 371q-82 0 -102 -81h198q-14 81 -96 81z" />
    <glyph glyph-name="f" unicode="f" horiz-adv-x="455" 
d="M284 485h171v-139h-171v-346h-162v346h-119v139h119v58q0 104 59.5 165.5t153.5 61.5q61 0 129 -18l-22 -135q-41 9 -74 9q-38 0 -61 -21.5t-23 -57.5v-62z" />
    <glyph glyph-name="g" unicode="g" horiz-adv-x="628" 
d="M572 485v-477q0 -112 -72 -176t-188 -64q-111 0 -183.5 58t-78.5 152h160q13 -73 102 -73q43 0 70.5 26t27.5 74v46q-58 -34 -132 -34q-99 0 -170 69t-71 167q0 109 70.5 179t170.5 70q73 0 132 -36v19h162zM310 146q60 0 100 45v134q-40 45 -100 45q-50 0 -82 -32.5
t-32 -84.5q0 -41 33 -74t81 -33z" />
    <glyph glyph-name="h" unicode="h" horiz-adv-x="606" 
d="M351 500q93 0 150 -60t57 -163v-277h-163v251q0 50 -23.5 76t-64.5 26q-47 0 -90 -49v-304h-162v710h162v-258q60 48 134 48z" />
    <glyph glyph-name="i" unicode="i" horiz-adv-x="279" 
d="M139 561q-40 0 -67.5 26t-27.5 65t27.5 65.5t67.5 26.5q39 0 67 -26.5t28 -65.5t-28 -65t-67 -26zM221 485v-485h-162v485h162z" />
    <glyph glyph-name="j" unicode="j" horiz-adv-x="276" 
d="M136 561q-39 0 -67 26t-28 65t28 65.5t67 26.5q40 0 67.5 -26.5t27.5 -65.5t-27.5 -65t-67.5 -26zM218 485v-446q0 -120 -51 -178.5t-188 -61.5l-14 135q52 5 71 23t19 61v467h163z" />
    <glyph glyph-name="k" unicode="k" horiz-adv-x="598" 
d="M285 168l-68 -73v-95h-162v710h162v-407l169 182h193l-184 -198l200 -287h-194z" />
    <glyph glyph-name="l" unicode="l" horiz-adv-x="273" 
d="M217 710v-710h-162v710h162z" />
    <glyph glyph-name="m" unicode="m" horiz-adv-x="912" 
d="M659 500q89 0 145.5 -60.5t56.5 -162.5v-277h-163v251q0 102 -87 102q-41 0 -74 -40q2 -24 2 -36v-277h-162v251q0 51 -23 76.5t-64 25.5q-40 0 -73 -43v-310h-162v485h162v-29q52 44 121 44q93 0 149 -65q74 65 172 65z" />
    <glyph glyph-name="n" unicode="n" horiz-adv-x="606" 
d="M351 500q93 0 150 -60t57 -163v-277h-163v251q0 50 -23.5 76t-64.5 26q-47 0 -90 -49v-304h-162v485h162v-33q60 48 134 48z" />
    <glyph glyph-name="o" unicode="o" horiz-adv-x="593" 
d="M296 496q115 0 189 -71.5t74 -181.5q0 -111 -74.5 -184.5t-188.5 -73.5t-188.5 73.5t-74.5 184.5q0 110 74 181.5t189 71.5zM297 125q48 0 78.5 33.5t30.5 83.5q0 48 -30.5 81t-78.5 33q-49 0 -79.5 -33t-30.5 -81q0 -50 30.5 -83.5t79.5 -33.5z" />
    <glyph glyph-name="p" unicode="p" horiz-adv-x="624" 
d="M350 496q99 0 170 -73t71 -180t-71 -180t-170 -73q-75 0 -133 37v-252h-162v710h162v-26q58 37 133 37zM318 123q49 0 81.5 34.5t32.5 85.5t-32.5 86t-81.5 35q-62 0 -101 -46v-150q39 -45 101 -45z" />
    <glyph glyph-name="q" unicode="q" horiz-adv-x="624" 
d="M567 485v-710h-162v251q-59 -36 -132 -36q-99 0 -170 73t-71 180t71 180t170 73q73 0 132 -36v25h162zM305 123q61 0 100 44v152q-40 45 -100 45q-49 0 -81.5 -35t-32.5 -86t32.5 -85.5t81.5 -34.5z" />
    <glyph glyph-name="r" unicode="r" horiz-adv-x="410" 
d="M384 493v-154q-109 -4 -167 -62v-277h-162v485h162v-52q70 60 167 60z" />
    <glyph glyph-name="s" unicode="s" horiz-adv-x="521" 
d="M22 167l144 -1q10 -61 93 -61q69 0 69 34q0 27 -47 34l-98 17q-66 11 -104 47.5t-38 98.5q0 76 59 119t157 43q57 0 104 -14.5t83.5 -54t39.5 -99.5h-144q-2 27 -24.5 40.5t-57.5 13.5q-30 0 -45.5 -10t-15.5 -25q0 -29 50 -38l91 -15q151 -28 151 -147q0 -80 -63.5 -122
t-163.5 -42q-102 0 -167.5 45t-72.5 137z" />
    <glyph glyph-name="t" unicode="t" horiz-adv-x="470" 
d="M426 146l18 -137q-76 -24 -147 -24q-88 0 -141.5 59.5t-53.5 157.5v144h-95v139h95v165h162v-165h165v-139h-165v-139q0 -73 76 -73q24 0 86 12z" />
    <glyph glyph-name="u" unicode="u" horiz-adv-x="606" 
d="M551 485v-485h-162v32q-61 -47 -133 -47q-93 0 -150 60t-57 163v277h162v-252q0 -50 24 -76t65 -26q46 0 89 48v306h162z" />
    <glyph glyph-name="v" unicode="v" horiz-adv-x="594" 
d="M584 485l-210 -485h-154l-210 485h171l116 -280l116 280h171z" />
    <glyph glyph-name="w" unicode="w" horiz-adv-x="810" 
d="M796 485l-166 -485h-148l-77 250l-78 -250h-147l-167 485h170l76 -260l82 260h128l82 -258l76 258h169z" />
    <glyph glyph-name="x" unicode="x" horiz-adv-x="568" 
d="M389 242l170 -242h-178l-97 139l-98 -139h-178l170 242l-170 243h185l90 -128l91 128h185z" />
    <glyph glyph-name="y" unicode="y" horiz-adv-x="641" 
d="M624 485l-299 -709h-170l92 218l-230 491h172l139 -299l126 299h170z" />
    <glyph glyph-name="z" unicode="z" horiz-adv-x="512" 
d="M483 399l-221 -265h221v-134h-453v79l228 271h-224v135h449v-86z" />
    <glyph glyph-name="braceleft" unicode="{" horiz-adv-x="368" 
d="M269 538v-117q0 -55 -15 -84t-62 -44q47 -15 62 -42.5t15 -82.5v-117q0 -23 20 -38t53 -15v-151q-107 0 -171 52.5t-64 141.5v132q0 38 -16 47t-64 9v128q48 0 64 9t16 47v135q0 89 64 141.5t171 52.5v-151q-33 0 -53 -15t-20 -38z" />
    <glyph glyph-name="bar" unicode="|" 
d="M770 680v-680h-670v680h670zM170 70h480l-176 171h114l112 -109v478h-480l178 -173h-114l-114 111v-478zM596 294q-21 0 -35.5 14.5t-14.5 34.5q0 21 14.5 35t35.5 14q22 0 36.5 -14t14.5 -35q0 -20 -14.5 -34.5t-36.5 -14.5zM234 391h38q22 0 36.5 -13.5t14.5 -34.5
q0 -20 -14.5 -33.5t-36.5 -13.5h-38v95zM409 391v-20h-48v-18h42v-20h-42v-17h48v-20h-71v95h71zM473 311l-22 33v-48h-23v95h18l33 -51l34 51h17v-95h-23v48l-22 -33h-12zM596 371q-12 0 -19 -8t-7 -20q0 -11 7 -19t19 -8q11 0 18.5 8t7.5 19t-7.5 19.5t-18.5 8.5zM258 316
h14q12 0 19.5 8t7.5 19t-7.5 19t-19.5 8h-14v-54z" />
    <glyph glyph-name="braceright" unicode="}" horiz-adv-x="378" 
d="M109 421v117q0 23 -20 38t-53 15v151q107 0 171 -52.5t64 -141.5v-135q0 -38 16 -47t64 -9v-128q-48 0 -64 -9t-16 -47v-132q0 -89 -64 -141.5t-171 -52.5v151q33 0 53 15t20 38v117q0 55 15 82.5t62 42.5q-47 15 -62 44t-15 84z" />
    <glyph glyph-name="asciitilde" unicode="~" 
d="M770 680v-680h-670v680h670zM170 70h480l-176 171h114l112 -109v478h-480l178 -173h-114l-114 111v-478zM596 294q-21 0 -35.5 14.5t-14.5 34.5q0 21 14.5 35t35.5 14q22 0 36.5 -14t14.5 -35q0 -20 -14.5 -34.5t-36.5 -14.5zM234 391h38q22 0 36.5 -13.5t14.5 -34.5
q0 -20 -14.5 -33.5t-36.5 -13.5h-38v95zM409 391v-20h-48v-18h42v-20h-42v-17h48v-20h-71v95h71zM473 311l-22 33v-48h-23v95h18l33 -51l34 51h17v-95h-23v48l-22 -33h-12zM596 371q-12 0 -19 -8t-7 -20q0 -11 7 -19t19 -8q11 0 18.5 8t7.5 19t-7.5 19.5t-18.5 8.5zM258 316
h14q12 0 19.5 8t7.5 19t-7.5 19t-19.5 8h-14v-54z" />
    <glyph glyph-name="exclamdown" unicode="&#xa1;" 
d="M770 680v-680h-670v680h670zM170 70h480l-176 171h114l112 -109v478h-480l178 -173h-114l-114 111v-478zM596 294q-21 0 -35.5 14.5t-14.5 34.5q0 21 14.5 35t35.5 14q22 0 36.5 -14t14.5 -35q0 -20 -14.5 -34.5t-36.5 -14.5zM234 391h38q22 0 36.5 -13.5t14.5 -34.5
q0 -20 -14.5 -33.5t-36.5 -13.5h-38v95zM409 391v-20h-48v-18h42v-20h-42v-17h48v-20h-71v95h71zM473 311l-22 33v-48h-23v95h18l33 -51l34 51h17v-95h-23v48l-22 -33h-12zM596 371q-12 0 -19 -8t-7 -20q0 -11 7 -19t19 -8q11 0 18.5 8t7.5 19t-7.5 19.5t-18.5 8.5zM258 316
h14q12 0 19.5 8t7.5 19t-7.5 19t-19.5 8h-14v-54z" />
    <glyph glyph-name="cent" unicode="&#xa2;" 
d="M770 680v-680h-670v680h670zM170 70h480l-176 171h114l112 -109v478h-480l178 -173h-114l-114 111v-478zM596 294q-21 0 -35.5 14.5t-14.5 34.5q0 21 14.5 35t35.5 14q22 0 36.5 -14t14.5 -35q0 -20 -14.5 -34.5t-36.5 -14.5zM234 391h38q22 0 36.5 -13.5t14.5 -34.5
q0 -20 -14.5 -33.5t-36.5 -13.5h-38v95zM409 391v-20h-48v-18h42v-20h-42v-17h48v-20h-71v95h71zM473 311l-22 33v-48h-23v95h18l33 -51l34 51h17v-95h-23v48l-22 -33h-12zM596 371q-12 0 -19 -8t-7 -20q0 -11 7 -19t19 -8q11 0 18.5 8t7.5 19t-7.5 19.5t-18.5 8.5zM258 316
h14q12 0 19.5 8t7.5 19t-7.5 19t-19.5 8h-14v-54z" />
    <glyph glyph-name="sterling" unicode="&#xa3;" horiz-adv-x="617" 
d="M245 139h334v-139h-551v139h56v130h-56v126h56v55q0 110 70 176t185 66q107 0 175.5 -58t78.5 -158h-162q-7 36 -31.5 56t-60.5 20q-43 0 -68.5 -27.5t-25.5 -74.5v-55h182v-126h-182v-130z" />
    <glyph glyph-name="yen" unicode="&#xa5;" 
d="M770 680v-680h-670v680h670zM170 70h480l-176 171h114l112 -109v478h-480l178 -173h-114l-114 111v-478zM596 294q-21 0 -35.5 14.5t-14.5 34.5q0 21 14.5 35t35.5 14q22 0 36.5 -14t14.5 -35q0 -20 -14.5 -34.5t-36.5 -14.5zM234 391h38q22 0 36.5 -13.5t14.5 -34.5
q0 -20 -14.5 -33.5t-36.5 -13.5h-38v95zM409 391v-20h-48v-18h42v-20h-42v-17h48v-20h-71v95h71zM473 311l-22 33v-48h-23v95h18l33 -51l34 51h17v-95h-23v48l-22 -33h-12zM596 371q-12 0 -19 -8t-7 -20q0 -11 7 -19t19 -8q11 0 18.5 8t7.5 19t-7.5 19.5t-18.5 8.5zM258 316
h14q12 0 19.5 8t7.5 19t-7.5 19t-19.5 8h-14v-54z" />
    <glyph glyph-name="brokenbar" unicode="&#xa6;" 
d="M770 680v-680h-670v680h670zM170 70h480l-176 171h114l112 -109v478h-480l178 -173h-114l-114 111v-478zM596 294q-21 0 -35.5 14.5t-14.5 34.5q0 21 14.5 35t35.5 14q22 0 36.5 -14t14.5 -35q0 -20 -14.5 -34.5t-36.5 -14.5zM234 391h38q22 0 36.5 -13.5t14.5 -34.5
q0 -20 -14.5 -33.5t-36.5 -13.5h-38v95zM409 391v-20h-48v-18h42v-20h-42v-17h48v-20h-71v95h71zM473 311l-22 33v-48h-23v95h18l33 -51l34 51h17v-95h-23v48l-22 -33h-12zM596 371q-12 0 -19 -8t-7 -20q0 -11 7 -19t19 -8q11 0 18.5 8t7.5 19t-7.5 19.5t-18.5 8.5zM258 316
h14q12 0 19.5 8t7.5 19t-7.5 19t-19.5 8h-14v-54z" />
    <glyph glyph-name="section" unicode="&#xa7;" 
d="M770 680v-680h-670v680h670zM170 70h480l-176 171h114l112 -109v478h-480l178 -173h-114l-114 111v-478zM596 294q-21 0 -35.5 14.5t-14.5 34.5q0 21 14.5 35t35.5 14q22 0 36.5 -14t14.5 -35q0 -20 -14.5 -34.5t-36.5 -14.5zM234 391h38q22 0 36.5 -13.5t14.5 -34.5
q0 -20 -14.5 -33.5t-36.5 -13.5h-38v95zM409 391v-20h-48v-18h42v-20h-42v-17h48v-20h-71v95h71zM473 311l-22 33v-48h-23v95h18l33 -51l34 51h17v-95h-23v48l-22 -33h-12zM596 371q-12 0 -19 -8t-7 -20q0 -11 7 -19t19 -8q11 0 18.5 8t7.5 19t-7.5 19.5t-18.5 8.5zM258 316
h14q12 0 19.5 8t7.5 19t-7.5 19t-19.5 8h-14v-54z" />
    <glyph glyph-name="dieresis" unicode="&#xa8;" horiz-adv-x="600" 
d="M186 726q38 0 64.5 -25.5t26.5 -62.5t-26.5 -62.5t-64.5 -25.5t-65 25.5t-27 62.5t27 62.5t65 25.5zM415 726q38 0 64.5 -25.5t26.5 -62.5t-26.5 -62.5t-64.5 -25.5t-65 25.5t-27 62.5t27 62.5t65 25.5z" />
    <glyph glyph-name="copyright" unicode="&#xa9;" 
d="M770 680v-680h-670v680h670zM170 70h480l-176 171h114l112 -109v478h-480l178 -173h-114l-114 111v-478zM596 294q-21 0 -35.5 14.5t-14.5 34.5q0 21 14.5 35t35.5 14q22 0 36.5 -14t14.5 -35q0 -20 -14.5 -34.5t-36.5 -14.5zM234 391h38q22 0 36.5 -13.5t14.5 -34.5
q0 -20 -14.5 -33.5t-36.5 -13.5h-38v95zM409 391v-20h-48v-18h42v-20h-42v-17h48v-20h-71v95h71zM473 311l-22 33v-48h-23v95h18l33 -51l34 51h17v-95h-23v48l-22 -33h-12zM596 371q-12 0 -19 -8t-7 -20q0 -11 7 -19t19 -8q11 0 18.5 8t7.5 19t-7.5 19.5t-18.5 8.5zM258 316
h14q12 0 19.5 8t7.5 19t-7.5 19t-19.5 8h-14v-54z" />
    <glyph glyph-name="ordfeminine" unicode="&#xaa;" 
d="M770 680v-680h-670v680h670zM170 70h480l-176 171h114l112 -109v478h-480l178 -173h-114l-114 111v-478zM596 294q-21 0 -35.5 14.5t-14.5 34.5q0 21 14.5 35t35.5 14q22 0 36.5 -14t14.5 -35q0 -20 -14.5 -34.5t-36.5 -14.5zM234 391h38q22 0 36.5 -13.5t14.5 -34.5
q0 -20 -14.5 -33.5t-36.5 -13.5h-38v95zM409 391v-20h-48v-18h42v-20h-42v-17h48v-20h-71v95h71zM473 311l-22 33v-48h-23v95h18l33 -51l34 51h17v-95h-23v48l-22 -33h-12zM596 371q-12 0 -19 -8t-7 -20q0 -11 7 -19t19 -8q11 0 18.5 8t7.5 19t-7.5 19.5t-18.5 8.5zM258 316
h14q12 0 19.5 8t7.5 19t-7.5 19t-19.5 8h-14v-54z" />
    <glyph glyph-name="guillemotleft" unicode="&#xab;" horiz-adv-x="486" 
d="M261 413l-95 -161l95 -161h-144l-95 161l95 161h144zM464 413l-95 -161l95 -161h-144l-95 161l95 161h144z" />
    <glyph glyph-name="registered" unicode="&#xae;" 
d="M770 680v-680h-670v680h670zM170 70h480l-176 171h114l112 -109v478h-480l178 -173h-114l-114 111v-478zM596 294q-21 0 -35.5 14.5t-14.5 34.5q0 21 14.5 35t35.5 14q22 0 36.5 -14t14.5 -35q0 -20 -14.5 -34.5t-36.5 -14.5zM234 391h38q22 0 36.5 -13.5t14.5 -34.5
q0 -20 -14.5 -33.5t-36.5 -13.5h-38v95zM409 391v-20h-48v-18h42v-20h-42v-17h48v-20h-71v95h71zM473 311l-22 33v-48h-23v95h18l33 -51l34 51h17v-95h-23v48l-22 -33h-12zM596 371q-12 0 -19 -8t-7 -20q0 -11 7 -19t19 -8q11 0 18.5 8t7.5 19t-7.5 19.5t-18.5 8.5zM258 316
h14q12 0 19.5 8t7.5 19t-7.5 19t-19.5 8h-14v-54z" />
    <glyph glyph-name="macron" unicode="&#xaf;" 
d="M770 680v-680h-670v680h670zM170 70h480l-176 171h114l112 -109v478h-480l178 -173h-114l-114 111v-478zM596 294q-21 0 -35.5 14.5t-14.5 34.5q0 21 14.5 35t35.5 14q22 0 36.5 -14t14.5 -35q0 -20 -14.5 -34.5t-36.5 -14.5zM234 391h38q22 0 36.5 -13.5t14.5 -34.5
q0 -20 -14.5 -33.5t-36.5 -13.5h-38v95zM409 391v-20h-48v-18h42v-20h-42v-17h48v-20h-71v95h71zM473 311l-22 33v-48h-23v95h18l33 -51l34 51h17v-95h-23v48l-22 -33h-12zM596 371q-12 0 -19 -8t-7 -20q0 -11 7 -19t19 -8q11 0 18.5 8t7.5 19t-7.5 19.5t-18.5 8.5zM258 316
h14q12 0 19.5 8t7.5 19t-7.5 19t-19.5 8h-14v-54z" />
    <glyph glyph-name="degree" unicode="&#xb0;" 
d="M770 680v-680h-670v680h670zM170 70h480l-176 171h114l112 -109v478h-480l178 -173h-114l-114 111v-478zM596 294q-21 0 -35.5 14.5t-14.5 34.5q0 21 14.5 35t35.5 14q22 0 36.5 -14t14.5 -35q0 -20 -14.5 -34.5t-36.5 -14.5zM234 391h38q22 0 36.5 -13.5t14.5 -34.5
q0 -20 -14.5 -33.5t-36.5 -13.5h-38v95zM409 391v-20h-48v-18h42v-20h-42v-17h48v-20h-71v95h71zM473 311l-22 33v-48h-23v95h18l33 -51l34 51h17v-95h-23v48l-22 -33h-12zM596 371q-12 0 -19 -8t-7 -20q0 -11 7 -19t19 -8q11 0 18.5 8t7.5 19t-7.5 19.5t-18.5 8.5zM258 316
h14q12 0 19.5 8t7.5 19t-7.5 19t-19.5 8h-14v-54z" />
    <glyph glyph-name="plusminus" unicode="&#xb1;" 
d="M770 680v-680h-670v680h670zM170 70h480l-176 171h114l112 -109v478h-480l178 -173h-114l-114 111v-478zM596 294q-21 0 -35.5 14.5t-14.5 34.5q0 21 14.5 35t35.5 14q22 0 36.5 -14t14.5 -35q0 -20 -14.5 -34.5t-36.5 -14.5zM234 391h38q22 0 36.5 -13.5t14.5 -34.5
q0 -20 -14.5 -33.5t-36.5 -13.5h-38v95zM409 391v-20h-48v-18h42v-20h-42v-17h48v-20h-71v95h71zM473 311l-22 33v-48h-23v95h18l33 -51l34 51h17v-95h-23v48l-22 -33h-12zM596 371q-12 0 -19 -8t-7 -20q0 -11 7 -19t19 -8q11 0 18.5 8t7.5 19t-7.5 19.5t-18.5 8.5zM258 316
h14q12 0 19.5 8t7.5 19t-7.5 19t-19.5 8h-14v-54z" />
    <glyph glyph-name="twosuperior" unicode="&#xb2;" 
d="M770 680v-680h-670v680h670zM170 70h480l-176 171h114l112 -109v478h-480l178 -173h-114l-114 111v-478zM596 294q-21 0 -35.5 14.5t-14.5 34.5q0 21 14.5 35t35.5 14q22 0 36.5 -14t14.5 -35q0 -20 -14.5 -34.5t-36.5 -14.5zM234 391h38q22 0 36.5 -13.5t14.5 -34.5
q0 -20 -14.5 -33.5t-36.5 -13.5h-38v95zM409 391v-20h-48v-18h42v-20h-42v-17h48v-20h-71v95h71zM473 311l-22 33v-48h-23v95h18l33 -51l34 51h17v-95h-23v48l-22 -33h-12zM596 371q-12 0 -19 -8t-7 -20q0 -11 7 -19t19 -8q11 0 18.5 8t7.5 19t-7.5 19.5t-18.5 8.5zM258 316
h14q12 0 19.5 8t7.5 19t-7.5 19t-19.5 8h-14v-54z" />
    <glyph glyph-name="threesuperior" unicode="&#xb3;" 
d="M770 680v-680h-670v680h670zM170 70h480l-176 171h114l112 -109v478h-480l178 -173h-114l-114 111v-478zM596 294q-21 0 -35.5 14.5t-14.5 34.5q0 21 14.5 35t35.5 14q22 0 36.5 -14t14.5 -35q0 -20 -14.5 -34.5t-36.5 -14.5zM234 391h38q22 0 36.5 -13.5t14.5 -34.5
q0 -20 -14.5 -33.5t-36.5 -13.5h-38v95zM409 391v-20h-48v-18h42v-20h-42v-17h48v-20h-71v95h71zM473 311l-22 33v-48h-23v95h18l33 -51l34 51h17v-95h-23v48l-22 -33h-12zM596 371q-12 0 -19 -8t-7 -20q0 -11 7 -19t19 -8q11 0 18.5 8t7.5 19t-7.5 19.5t-18.5 8.5zM258 316
h14q12 0 19.5 8t7.5 19t-7.5 19t-19.5 8h-14v-54z" />
    <glyph glyph-name="acute" unicode="&#xb4;" 
d="M770 680v-680h-670v680h670zM170 70h480l-176 171h114l112 -109v478h-480l178 -173h-114l-114 111v-478zM596 294q-21 0 -35.5 14.5t-14.5 34.5q0 21 14.5 35t35.5 14q22 0 36.5 -14t14.5 -35q0 -20 -14.5 -34.5t-36.5 -14.5zM234 391h38q22 0 36.5 -13.5t14.5 -34.5
q0 -20 -14.5 -33.5t-36.5 -13.5h-38v95zM409 391v-20h-48v-18h42v-20h-42v-17h48v-20h-71v95h71zM473 311l-22 33v-48h-23v95h18l33 -51l34 51h17v-95h-23v48l-22 -33h-12zM596 371q-12 0 -19 -8t-7 -20q0 -11 7 -19t19 -8q11 0 18.5 8t7.5 19t-7.5 19.5t-18.5 8.5zM258 316
h14q12 0 19.5 8t7.5 19t-7.5 19t-19.5 8h-14v-54z" />
    <glyph glyph-name="paragraph" unicode="&#xb6;" 
d="M770 680v-680h-670v680h670zM170 70h480l-176 171h114l112 -109v478h-480l178 -173h-114l-114 111v-478zM596 294q-21 0 -35.5 14.5t-14.5 34.5q0 21 14.5 35t35.5 14q22 0 36.5 -14t14.5 -35q0 -20 -14.5 -34.5t-36.5 -14.5zM234 391h38q22 0 36.5 -13.5t14.5 -34.5
q0 -20 -14.5 -33.5t-36.5 -13.5h-38v95zM409 391v-20h-48v-18h42v-20h-42v-17h48v-20h-71v95h71zM473 311l-22 33v-48h-23v95h18l33 -51l34 51h17v-95h-23v48l-22 -33h-12zM596 371q-12 0 -19 -8t-7 -20q0 -11 7 -19t19 -8q11 0 18.5 8t7.5 19t-7.5 19.5t-18.5 8.5zM258 316
h14q12 0 19.5 8t7.5 19t-7.5 19t-19.5 8h-14v-54z" />
    <glyph glyph-name="periodcentered" unicode="&#xb7;" 
d="M770 680v-680h-670v680h670zM170 70h480l-176 171h114l112 -109v478h-480l178 -173h-114l-114 111v-478zM596 294q-21 0 -35.5 14.5t-14.5 34.5q0 21 14.5 35t35.5 14q22 0 36.5 -14t14.5 -35q0 -20 -14.5 -34.5t-36.5 -14.5zM234 391h38q22 0 36.5 -13.5t14.5 -34.5
q0 -20 -14.5 -33.5t-36.5 -13.5h-38v95zM409 391v-20h-48v-18h42v-20h-42v-17h48v-20h-71v95h71zM473 311l-22 33v-48h-23v95h18l33 -51l34 51h17v-95h-23v48l-22 -33h-12zM596 371q-12 0 -19 -8t-7 -20q0 -11 7 -19t19 -8q11 0 18.5 8t7.5 19t-7.5 19.5t-18.5 8.5zM258 316
h14q12 0 19.5 8t7.5 19t-7.5 19t-19.5 8h-14v-54z" />
    <glyph glyph-name="cedilla" unicode="&#xb8;" 
d="M770 680v-680h-670v680h670zM170 70h480l-176 171h114l112 -109v478h-480l178 -173h-114l-114 111v-478zM596 294q-21 0 -35.5 14.5t-14.5 34.5q0 21 14.5 35t35.5 14q22 0 36.5 -14t14.5 -35q0 -20 -14.5 -34.5t-36.5 -14.5zM234 391h38q22 0 36.5 -13.5t14.5 -34.5
q0 -20 -14.5 -33.5t-36.5 -13.5h-38v95zM409 391v-20h-48v-18h42v-20h-42v-17h48v-20h-71v95h71zM473 311l-22 33v-48h-23v95h18l33 -51l34 51h17v-95h-23v48l-22 -33h-12zM596 371q-12 0 -19 -8t-7 -20q0 -11 7 -19t19 -8q11 0 18.5 8t7.5 19t-7.5 19.5t-18.5 8.5zM258 316
h14q12 0 19.5 8t7.5 19t-7.5 19t-19.5 8h-14v-54z" />
    <glyph glyph-name="onesuperior" unicode="&#xb9;" 
d="M770 680v-680h-670v680h670zM170 70h480l-176 171h114l112 -109v478h-480l178 -173h-114l-114 111v-478zM596 294q-21 0 -35.5 14.5t-14.5 34.5q0 21 14.5 35t35.5 14q22 0 36.5 -14t14.5 -35q0 -20 -14.5 -34.5t-36.5 -14.5zM234 391h38q22 0 36.5 -13.5t14.5 -34.5
q0 -20 -14.5 -33.5t-36.5 -13.5h-38v95zM409 391v-20h-48v-18h42v-20h-42v-17h48v-20h-71v95h71zM473 311l-22 33v-48h-23v95h18l33 -51l34 51h17v-95h-23v48l-22 -33h-12zM596 371q-12 0 -19 -8t-7 -20q0 -11 7 -19t19 -8q11 0 18.5 8t7.5 19t-7.5 19.5t-18.5 8.5zM258 316
h14q12 0 19.5 8t7.5 19t-7.5 19t-19.5 8h-14v-54z" />
    <glyph glyph-name="ordmasculine" unicode="&#xba;" 
d="M770 680v-680h-670v680h670zM170 70h480l-176 171h114l112 -109v478h-480l178 -173h-114l-114 111v-478zM596 294q-21 0 -35.5 14.5t-14.5 34.5q0 21 14.5 35t35.5 14q22 0 36.5 -14t14.5 -35q0 -20 -14.5 -34.5t-36.5 -14.5zM234 391h38q22 0 36.5 -13.5t14.5 -34.5
q0 -20 -14.5 -33.5t-36.5 -13.5h-38v95zM409 391v-20h-48v-18h42v-20h-42v-17h48v-20h-71v95h71zM473 311l-22 33v-48h-23v95h18l33 -51l34 51h17v-95h-23v48l-22 -33h-12zM596 371q-12 0 -19 -8t-7 -20q0 -11 7 -19t19 -8q11 0 18.5 8t7.5 19t-7.5 19.5t-18.5 8.5zM258 316
h14q12 0 19.5 8t7.5 19t-7.5 19t-19.5 8h-14v-54z" />
    <glyph glyph-name="guillemotright" unicode="&#xbb;" horiz-adv-x="486" 
d="M261 252l-95 -161h-144l95 161l-95 161h144zM464 252l-95 -161h-144l95 161l-95 161h144z" />
    <glyph glyph-name="onequarter" unicode="&#xbc;" 
d="M770 680v-680h-670v680h670zM170 70h480l-176 171h114l112 -109v478h-480l178 -173h-114l-114 111v-478zM596 294q-21 0 -35.5 14.5t-14.5 34.5q0 21 14.5 35t35.5 14q22 0 36.5 -14t14.5 -35q0 -20 -14.5 -34.5t-36.5 -14.5zM234 391h38q22 0 36.5 -13.5t14.5 -34.5
q0 -20 -14.5 -33.5t-36.5 -13.5h-38v95zM409 391v-20h-48v-18h42v-20h-42v-17h48v-20h-71v95h71zM473 311l-22 33v-48h-23v95h18l33 -51l34 51h17v-95h-23v48l-22 -33h-12zM596 371q-12 0 -19 -8t-7 -20q0 -11 7 -19t19 -8q11 0 18.5 8t7.5 19t-7.5 19.5t-18.5 8.5zM258 316
h14q12 0 19.5 8t7.5 19t-7.5 19t-19.5 8h-14v-54z" />
    <glyph glyph-name="onehalf" unicode="&#xbd;" 
d="M770 680v-680h-670v680h670zM170 70h480l-176 171h114l112 -109v478h-480l178 -173h-114l-114 111v-478zM596 294q-21 0 -35.5 14.5t-14.5 34.5q0 21 14.5 35t35.5 14q22 0 36.5 -14t14.5 -35q0 -20 -14.5 -34.5t-36.5 -14.5zM234 391h38q22 0 36.5 -13.5t14.5 -34.5
q0 -20 -14.5 -33.5t-36.5 -13.5h-38v95zM409 391v-20h-48v-18h42v-20h-42v-17h48v-20h-71v95h71zM473 311l-22 33v-48h-23v95h18l33 -51l34 51h17v-95h-23v48l-22 -33h-12zM596 371q-12 0 -19 -8t-7 -20q0 -11 7 -19t19 -8q11 0 18.5 8t7.5 19t-7.5 19.5t-18.5 8.5zM258 316
h14q12 0 19.5 8t7.5 19t-7.5 19t-19.5 8h-14v-54z" />
    <glyph glyph-name="threequarters" unicode="&#xbe;" 
d="M770 680v-680h-670v680h670zM170 70h480l-176 171h114l112 -109v478h-480l178 -173h-114l-114 111v-478zM596 294q-21 0 -35.5 14.5t-14.5 34.5q0 21 14.5 35t35.5 14q22 0 36.5 -14t14.5 -35q0 -20 -14.5 -34.5t-36.5 -14.5zM234 391h38q22 0 36.5 -13.5t14.5 -34.5
q0 -20 -14.5 -33.5t-36.5 -13.5h-38v95zM409 391v-20h-48v-18h42v-20h-42v-17h48v-20h-71v95h71zM473 311l-22 33v-48h-23v95h18l33 -51l34 51h17v-95h-23v48l-22 -33h-12zM596 371q-12 0 -19 -8t-7 -20q0 -11 7 -19t19 -8q11 0 18.5 8t7.5 19t-7.5 19.5t-18.5 8.5zM258 316
h14q12 0 19.5 8t7.5 19t-7.5 19t-19.5 8h-14v-54z" />
    <glyph glyph-name="questiondown" unicode="&#xbf;" 
d="M770 680v-680h-670v680h670zM170 70h480l-176 171h114l112 -109v478h-480l178 -173h-114l-114 111v-478zM596 294q-21 0 -35.5 14.5t-14.5 34.5q0 21 14.5 35t35.5 14q22 0 36.5 -14t14.5 -35q0 -20 -14.5 -34.5t-36.5 -14.5zM234 391h38q22 0 36.5 -13.5t14.5 -34.5
q0 -20 -14.5 -33.5t-36.5 -13.5h-38v95zM409 391v-20h-48v-18h42v-20h-42v-17h48v-20h-71v95h71zM473 311l-22 33v-48h-23v95h18l33 -51l34 51h17v-95h-23v48l-22 -33h-12zM596 371q-12 0 -19 -8t-7 -20q0 -11 7 -19t19 -8q11 0 18.5 8t7.5 19t-7.5 19.5t-18.5 8.5zM258 316
h14q12 0 19.5 8t7.5 19t-7.5 19t-19.5 8h-14v-54z" />
    <glyph glyph-name="Agrave" unicode="&#xc0;" 
d="M770 680v-680h-670v680h670zM170 70h480l-176 171h114l112 -109v478h-480l178 -173h-114l-114 111v-478zM596 294q-21 0 -35.5 14.5t-14.5 34.5q0 21 14.5 35t35.5 14q22 0 36.5 -14t14.5 -35q0 -20 -14.5 -34.5t-36.5 -14.5zM234 391h38q22 0 36.5 -13.5t14.5 -34.5
q0 -20 -14.5 -33.5t-36.5 -13.5h-38v95zM409 391v-20h-48v-18h42v-20h-42v-17h48v-20h-71v95h71zM473 311l-22 33v-48h-23v95h18l33 -51l34 51h17v-95h-23v48l-22 -33h-12zM596 371q-12 0 -19 -8t-7 -20q0 -11 7 -19t19 -8q11 0 18.5 8t7.5 19t-7.5 19.5t-18.5 8.5zM258 316
h14q12 0 19.5 8t7.5 19t-7.5 19t-19.5 8h-14v-54z" />
    <glyph glyph-name="Aacute" unicode="&#xc1;" 
d="M770 680v-680h-670v680h670zM170 70h480l-176 171h114l112 -109v478h-480l178 -173h-114l-114 111v-478zM596 294q-21 0 -35.5 14.5t-14.5 34.5q0 21 14.5 35t35.5 14q22 0 36.5 -14t14.5 -35q0 -20 -14.5 -34.5t-36.5 -14.5zM234 391h38q22 0 36.5 -13.5t14.5 -34.5
q0 -20 -14.5 -33.5t-36.5 -13.5h-38v95zM409 391v-20h-48v-18h42v-20h-42v-17h48v-20h-71v95h71zM473 311l-22 33v-48h-23v95h18l33 -51l34 51h17v-95h-23v48l-22 -33h-12zM596 371q-12 0 -19 -8t-7 -20q0 -11 7 -19t19 -8q11 0 18.5 8t7.5 19t-7.5 19.5t-18.5 8.5zM258 316
h14q12 0 19.5 8t7.5 19t-7.5 19t-19.5 8h-14v-54z" />
    <glyph glyph-name="Acircumflex" unicode="&#xc2;" 
d="M770 680v-680h-670v680h670zM170 70h480l-176 171h114l112 -109v478h-480l178 -173h-114l-114 111v-478zM596 294q-21 0 -35.5 14.5t-14.5 34.5q0 21 14.5 35t35.5 14q22 0 36.5 -14t14.5 -35q0 -20 -14.5 -34.5t-36.5 -14.5zM234 391h38q22 0 36.5 -13.5t14.5 -34.5
q0 -20 -14.5 -33.5t-36.5 -13.5h-38v95zM409 391v-20h-48v-18h42v-20h-42v-17h48v-20h-71v95h71zM473 311l-22 33v-48h-23v95h18l33 -51l34 51h17v-95h-23v48l-22 -33h-12zM596 371q-12 0 -19 -8t-7 -20q0 -11 7 -19t19 -8q11 0 18.5 8t7.5 19t-7.5 19.5t-18.5 8.5zM258 316
h14q12 0 19.5 8t7.5 19t-7.5 19t-19.5 8h-14v-54z" />
    <glyph glyph-name="Atilde" unicode="&#xc3;" 
d="M770 680v-680h-670v680h670zM170 70h480l-176 171h114l112 -109v478h-480l178 -173h-114l-114 111v-478zM596 294q-21 0 -35.5 14.5t-14.5 34.5q0 21 14.5 35t35.5 14q22 0 36.5 -14t14.5 -35q0 -20 -14.5 -34.5t-36.5 -14.5zM234 391h38q22 0 36.5 -13.5t14.5 -34.5
q0 -20 -14.5 -33.5t-36.5 -13.5h-38v95zM409 391v-20h-48v-18h42v-20h-42v-17h48v-20h-71v95h71zM473 311l-22 33v-48h-23v95h18l33 -51l34 51h17v-95h-23v48l-22 -33h-12zM596 371q-12 0 -19 -8t-7 -20q0 -11 7 -19t19 -8q11 0 18.5 8t7.5 19t-7.5 19.5t-18.5 8.5zM258 316
h14q12 0 19.5 8t7.5 19t-7.5 19t-19.5 8h-14v-54z" />
    <glyph glyph-name="Adieresis" unicode="&#xc4;" horiz-adv-x="763" 
d="M266 743q-38 0 -65 25.5t-27 62.5t27 62.5t65 25.5t64.5 -25.5t26.5 -62.5t-26.5 -62.5t-64.5 -25.5zM495 743q-38 0 -65 25.5t-27 62.5t27 62.5t65 25.5t64.5 -25.5t26.5 -62.5t-26.5 -62.5t-64.5 -25.5zM525 117h-288l-45 -117h-180l289 684h161l288 -684h-179z
M469 261l-88 226l-88 -226h176z" />
    <glyph glyph-name="Aring" unicode="&#xc5;" 
d="M770 680v-680h-670v680h670zM170 70h480l-176 171h114l112 -109v478h-480l178 -173h-114l-114 111v-478zM596 294q-21 0 -35.5 14.5t-14.5 34.5q0 21 14.5 35t35.5 14q22 0 36.5 -14t14.5 -35q0 -20 -14.5 -34.5t-36.5 -14.5zM234 391h38q22 0 36.5 -13.5t14.5 -34.5
q0 -20 -14.5 -33.5t-36.5 -13.5h-38v95zM409 391v-20h-48v-18h42v-20h-42v-17h48v-20h-71v95h71zM473 311l-22 33v-48h-23v95h18l33 -51l34 51h17v-95h-23v48l-22 -33h-12zM596 371q-12 0 -19 -8t-7 -20q0 -11 7 -19t19 -8q11 0 18.5 8t7.5 19t-7.5 19.5t-18.5 8.5zM258 316
h14q12 0 19.5 8t7.5 19t-7.5 19t-19.5 8h-14v-54z" />
    <glyph glyph-name="AE" unicode="&#xc6;" horiz-adv-x="1116" 
d="M734 533v-124h301v-144h-301v-118h345v-147h-514v117h-265l-84 -117h-204l505 680h562v-147h-345zM565 261v223l-161 -223h161z" />
    <glyph glyph-name="Ccedilla" unicode="&#xc7;" 
d="M770 680v-680h-670v680h670zM170 70h480l-176 171h114l112 -109v478h-480l178 -173h-114l-114 111v-478zM596 294q-21 0 -35.5 14.5t-14.5 34.5q0 21 14.5 35t35.5 14q22 0 36.5 -14t14.5 -35q0 -20 -14.5 -34.5t-36.5 -14.5zM234 391h38q22 0 36.5 -13.5t14.5 -34.5
q0 -20 -14.5 -33.5t-36.5 -13.5h-38v95zM409 391v-20h-48v-18h42v-20h-42v-17h48v-20h-71v95h71zM473 311l-22 33v-48h-23v95h18l33 -51l34 51h17v-95h-23v48l-22 -33h-12zM596 371q-12 0 -19 -8t-7 -20q0 -11 7 -19t19 -8q11 0 18.5 8t7.5 19t-7.5 19.5t-18.5 8.5zM258 316
h14q12 0 19.5 8t7.5 19t-7.5 19t-19.5 8h-14v-54z" />
    <glyph glyph-name="Egrave" unicode="&#xc8;" 
d="M770 680v-680h-670v680h670zM170 70h480l-176 171h114l112 -109v478h-480l178 -173h-114l-114 111v-478zM596 294q-21 0 -35.5 14.5t-14.5 34.5q0 21 14.5 35t35.5 14q22 0 36.5 -14t14.5 -35q0 -20 -14.5 -34.5t-36.5 -14.5zM234 391h38q22 0 36.5 -13.5t14.5 -34.5
q0 -20 -14.5 -33.5t-36.5 -13.5h-38v95zM409 391v-20h-48v-18h42v-20h-42v-17h48v-20h-71v95h71zM473 311l-22 33v-48h-23v95h18l33 -51l34 51h17v-95h-23v48l-22 -33h-12zM596 371q-12 0 -19 -8t-7 -20q0 -11 7 -19t19 -8q11 0 18.5 8t7.5 19t-7.5 19.5t-18.5 8.5zM258 316
h14q12 0 19.5 8t7.5 19t-7.5 19t-19.5 8h-14v-54z" />
    <glyph glyph-name="Eacute" unicode="&#xc9;" 
d="M770 680v-680h-670v680h670zM170 70h480l-176 171h114l112 -109v478h-480l178 -173h-114l-114 111v-478zM596 294q-21 0 -35.5 14.5t-14.5 34.5q0 21 14.5 35t35.5 14q22 0 36.5 -14t14.5 -35q0 -20 -14.5 -34.5t-36.5 -14.5zM234 391h38q22 0 36.5 -13.5t14.5 -34.5
q0 -20 -14.5 -33.5t-36.5 -13.5h-38v95zM409 391v-20h-48v-18h42v-20h-42v-17h48v-20h-71v95h71zM473 311l-22 33v-48h-23v95h18l33 -51l34 51h17v-95h-23v48l-22 -33h-12zM596 371q-12 0 -19 -8t-7 -20q0 -11 7 -19t19 -8q11 0 18.5 8t7.5 19t-7.5 19.5t-18.5 8.5zM258 316
h14q12 0 19.5 8t7.5 19t-7.5 19t-19.5 8h-14v-54z" />
    <glyph glyph-name="Ecircumflex" unicode="&#xca;" 
d="M770 680v-680h-670v680h670zM170 70h480l-176 171h114l112 -109v478h-480l178 -173h-114l-114 111v-478zM596 294q-21 0 -35.5 14.5t-14.5 34.5q0 21 14.5 35t35.5 14q22 0 36.5 -14t14.5 -35q0 -20 -14.5 -34.5t-36.5 -14.5zM234 391h38q22 0 36.5 -13.5t14.5 -34.5
q0 -20 -14.5 -33.5t-36.5 -13.5h-38v95zM409 391v-20h-48v-18h42v-20h-42v-17h48v-20h-71v95h71zM473 311l-22 33v-48h-23v95h18l33 -51l34 51h17v-95h-23v48l-22 -33h-12zM596 371q-12 0 -19 -8t-7 -20q0 -11 7 -19t19 -8q11 0 18.5 8t7.5 19t-7.5 19.5t-18.5 8.5zM258 316
h14q12 0 19.5 8t7.5 19t-7.5 19t-19.5 8h-14v-54z" />
    <glyph glyph-name="Edieresis" unicode="&#xcb;" 
d="M770 680v-680h-670v680h670zM170 70h480l-176 171h114l112 -109v478h-480l178 -173h-114l-114 111v-478zM596 294q-21 0 -35.5 14.5t-14.5 34.5q0 21 14.5 35t35.5 14q22 0 36.5 -14t14.5 -35q0 -20 -14.5 -34.5t-36.5 -14.5zM234 391h38q22 0 36.5 -13.5t14.5 -34.5
q0 -20 -14.5 -33.5t-36.5 -13.5h-38v95zM409 391v-20h-48v-18h42v-20h-42v-17h48v-20h-71v95h71zM473 311l-22 33v-48h-23v95h18l33 -51l34 51h17v-95h-23v48l-22 -33h-12zM596 371q-12 0 -19 -8t-7 -20q0 -11 7 -19t19 -8q11 0 18.5 8t7.5 19t-7.5 19.5t-18.5 8.5zM258 316
h14q12 0 19.5 8t7.5 19t-7.5 19t-19.5 8h-14v-54z" />
    <glyph glyph-name="Igrave" unicode="&#xcc;" 
d="M770 680v-680h-670v680h670zM170 70h480l-176 171h114l112 -109v478h-480l178 -173h-114l-114 111v-478zM596 294q-21 0 -35.5 14.5t-14.5 34.5q0 21 14.5 35t35.5 14q22 0 36.5 -14t14.5 -35q0 -20 -14.5 -34.5t-36.5 -14.5zM234 391h38q22 0 36.5 -13.5t14.5 -34.5
q0 -20 -14.5 -33.5t-36.5 -13.5h-38v95zM409 391v-20h-48v-18h42v-20h-42v-17h48v-20h-71v95h71zM473 311l-22 33v-48h-23v95h18l33 -51l34 51h17v-95h-23v48l-22 -33h-12zM596 371q-12 0 -19 -8t-7 -20q0 -11 7 -19t19 -8q11 0 18.5 8t7.5 19t-7.5 19.5t-18.5 8.5zM258 316
h14q12 0 19.5 8t7.5 19t-7.5 19t-19.5 8h-14v-54z" />
    <glyph glyph-name="Iacute" unicode="&#xcd;" 
d="M770 680v-680h-670v680h670zM170 70h480l-176 171h114l112 -109v478h-480l178 -173h-114l-114 111v-478zM596 294q-21 0 -35.5 14.5t-14.5 34.5q0 21 14.5 35t35.5 14q22 0 36.5 -14t14.5 -35q0 -20 -14.5 -34.5t-36.5 -14.5zM234 391h38q22 0 36.5 -13.5t14.5 -34.5
q0 -20 -14.5 -33.5t-36.5 -13.5h-38v95zM409 391v-20h-48v-18h42v-20h-42v-17h48v-20h-71v95h71zM473 311l-22 33v-48h-23v95h18l33 -51l34 51h17v-95h-23v48l-22 -33h-12zM596 371q-12 0 -19 -8t-7 -20q0 -11 7 -19t19 -8q11 0 18.5 8t7.5 19t-7.5 19.5t-18.5 8.5zM258 316
h14q12 0 19.5 8t7.5 19t-7.5 19t-19.5 8h-14v-54z" />
    <glyph glyph-name="Icircumflex" unicode="&#xce;" 
d="M770 680v-680h-670v680h670zM170 70h480l-176 171h114l112 -109v478h-480l178 -173h-114l-114 111v-478zM596 294q-21 0 -35.5 14.5t-14.5 34.5q0 21 14.5 35t35.5 14q22 0 36.5 -14t14.5 -35q0 -20 -14.5 -34.5t-36.5 -14.5zM234 391h38q22 0 36.5 -13.5t14.5 -34.5
q0 -20 -14.5 -33.5t-36.5 -13.5h-38v95zM409 391v-20h-48v-18h42v-20h-42v-17h48v-20h-71v95h71zM473 311l-22 33v-48h-23v95h18l33 -51l34 51h17v-95h-23v48l-22 -33h-12zM596 371q-12 0 -19 -8t-7 -20q0 -11 7 -19t19 -8q11 0 18.5 8t7.5 19t-7.5 19.5t-18.5 8.5zM258 316
h14q12 0 19.5 8t7.5 19t-7.5 19t-19.5 8h-14v-54z" />
    <glyph glyph-name="Idieresis" unicode="&#xcf;" 
d="M770 680v-680h-670v680h670zM170 70h480l-176 171h114l112 -109v478h-480l178 -173h-114l-114 111v-478zM596 294q-21 0 -35.5 14.5t-14.5 34.5q0 21 14.5 35t35.5 14q22 0 36.5 -14t14.5 -35q0 -20 -14.5 -34.5t-36.5 -14.5zM234 391h38q22 0 36.5 -13.5t14.5 -34.5
q0 -20 -14.5 -33.5t-36.5 -13.5h-38v95zM409 391v-20h-48v-18h42v-20h-42v-17h48v-20h-71v95h71zM473 311l-22 33v-48h-23v95h18l33 -51l34 51h17v-95h-23v48l-22 -33h-12zM596 371q-12 0 -19 -8t-7 -20q0 -11 7 -19t19 -8q11 0 18.5 8t7.5 19t-7.5 19.5t-18.5 8.5zM258 316
h14q12 0 19.5 8t7.5 19t-7.5 19t-19.5 8h-14v-54z" />
    <glyph glyph-name="Eth" unicode="&#xd0;" 
d="M770 680v-680h-670v680h670zM170 70h480l-176 171h114l112 -109v478h-480l178 -173h-114l-114 111v-478zM596 294q-21 0 -35.5 14.5t-14.5 34.5q0 21 14.5 35t35.5 14q22 0 36.5 -14t14.5 -35q0 -20 -14.5 -34.5t-36.5 -14.5zM234 391h38q22 0 36.5 -13.5t14.5 -34.5
q0 -20 -14.5 -33.5t-36.5 -13.5h-38v95zM409 391v-20h-48v-18h42v-20h-42v-17h48v-20h-71v95h71zM473 311l-22 33v-48h-23v95h18l33 -51l34 51h17v-95h-23v48l-22 -33h-12zM596 371q-12 0 -19 -8t-7 -20q0 -11 7 -19t19 -8q11 0 18.5 8t7.5 19t-7.5 19.5t-18.5 8.5zM258 316
h14q12 0 19.5 8t7.5 19t-7.5 19t-19.5 8h-14v-54z" />
    <glyph glyph-name="Ntilde" unicode="&#xd1;" 
d="M770 680v-680h-670v680h670zM170 70h480l-176 171h114l112 -109v478h-480l178 -173h-114l-114 111v-478zM596 294q-21 0 -35.5 14.5t-14.5 34.5q0 21 14.5 35t35.5 14q22 0 36.5 -14t14.5 -35q0 -20 -14.5 -34.5t-36.5 -14.5zM234 391h38q22 0 36.5 -13.5t14.5 -34.5
q0 -20 -14.5 -33.5t-36.5 -13.5h-38v95zM409 391v-20h-48v-18h42v-20h-42v-17h48v-20h-71v95h71zM473 311l-22 33v-48h-23v95h18l33 -51l34 51h17v-95h-23v48l-22 -33h-12zM596 371q-12 0 -19 -8t-7 -20q0 -11 7 -19t19 -8q11 0 18.5 8t7.5 19t-7.5 19.5t-18.5 8.5zM258 316
h14q12 0 19.5 8t7.5 19t-7.5 19t-19.5 8h-14v-54z" />
    <glyph glyph-name="Ograve" unicode="&#xd2;" 
d="M770 680v-680h-670v680h670zM170 70h480l-176 171h114l112 -109v478h-480l178 -173h-114l-114 111v-478zM596 294q-21 0 -35.5 14.5t-14.5 34.5q0 21 14.5 35t35.5 14q22 0 36.5 -14t14.5 -35q0 -20 -14.5 -34.5t-36.5 -14.5zM234 391h38q22 0 36.5 -13.5t14.5 -34.5
q0 -20 -14.5 -33.5t-36.5 -13.5h-38v95zM409 391v-20h-48v-18h42v-20h-42v-17h48v-20h-71v95h71zM473 311l-22 33v-48h-23v95h18l33 -51l34 51h17v-95h-23v48l-22 -33h-12zM596 371q-12 0 -19 -8t-7 -20q0 -11 7 -19t19 -8q11 0 18.5 8t7.5 19t-7.5 19.5t-18.5 8.5zM258 316
h14q12 0 19.5 8t7.5 19t-7.5 19t-19.5 8h-14v-54z" />
    <glyph glyph-name="Oacute" unicode="&#xd3;" 
d="M770 680v-680h-670v680h670zM170 70h480l-176 171h114l112 -109v478h-480l178 -173h-114l-114 111v-478zM596 294q-21 0 -35.5 14.5t-14.5 34.5q0 21 14.5 35t35.5 14q22 0 36.5 -14t14.5 -35q0 -20 -14.5 -34.5t-36.5 -14.5zM234 391h38q22 0 36.5 -13.5t14.5 -34.5
q0 -20 -14.5 -33.5t-36.5 -13.5h-38v95zM409 391v-20h-48v-18h42v-20h-42v-17h48v-20h-71v95h71zM473 311l-22 33v-48h-23v95h18l33 -51l34 51h17v-95h-23v48l-22 -33h-12zM596 371q-12 0 -19 -8t-7 -20q0 -11 7 -19t19 -8q11 0 18.5 8t7.5 19t-7.5 19.5t-18.5 8.5zM258 316
h14q12 0 19.5 8t7.5 19t-7.5 19t-19.5 8h-14v-54z" />
    <glyph glyph-name="Ocircumflex" unicode="&#xd4;" 
d="M770 680v-680h-670v680h670zM170 70h480l-176 171h114l112 -109v478h-480l178 -173h-114l-114 111v-478zM596 294q-21 0 -35.5 14.5t-14.5 34.5q0 21 14.5 35t35.5 14q22 0 36.5 -14t14.5 -35q0 -20 -14.5 -34.5t-36.5 -14.5zM234 391h38q22 0 36.5 -13.5t14.5 -34.5
q0 -20 -14.5 -33.5t-36.5 -13.5h-38v95zM409 391v-20h-48v-18h42v-20h-42v-17h48v-20h-71v95h71zM473 311l-22 33v-48h-23v95h18l33 -51l34 51h17v-95h-23v48l-22 -33h-12zM596 371q-12 0 -19 -8t-7 -20q0 -11 7 -19t19 -8q11 0 18.5 8t7.5 19t-7.5 19.5t-18.5 8.5zM258 316
h14q12 0 19.5 8t7.5 19t-7.5 19t-19.5 8h-14v-54z" />
    <glyph glyph-name="Otilde" unicode="&#xd5;" 
d="M770 680v-680h-670v680h670zM170 70h480l-176 171h114l112 -109v478h-480l178 -173h-114l-114 111v-478zM596 294q-21 0 -35.5 14.5t-14.5 34.5q0 21 14.5 35t35.5 14q22 0 36.5 -14t14.5 -35q0 -20 -14.5 -34.5t-36.5 -14.5zM234 391h38q22 0 36.5 -13.5t14.5 -34.5
q0 -20 -14.5 -33.5t-36.5 -13.5h-38v95zM409 391v-20h-48v-18h42v-20h-42v-17h48v-20h-71v95h71zM473 311l-22 33v-48h-23v95h18l33 -51l34 51h17v-95h-23v48l-22 -33h-12zM596 371q-12 0 -19 -8t-7 -20q0 -11 7 -19t19 -8q11 0 18.5 8t7.5 19t-7.5 19.5t-18.5 8.5zM258 316
h14q12 0 19.5 8t7.5 19t-7.5 19t-19.5 8h-14v-54z" />
    <glyph glyph-name="Odieresis" unicode="&#xd6;" horiz-adv-x="808" 
d="M289 919q38 0 64.5 -25.5t26.5 -62.5t-26.5 -62.5t-64.5 -25.5t-65 25.5t-27 62.5t27 62.5t65 25.5zM518 919q38 0 64.5 -25.5t26.5 -62.5t-26.5 -62.5t-64.5 -25.5t-65 25.5t-27 62.5t27 62.5t65 25.5zM404 694q154 0 257.5 -102.5t103.5 -251.5t-103.5 -251.5
t-257.5 -102.5q-153 0 -256.5 102.5t-103.5 251.5t103.5 251.5t256.5 102.5zM404 143q81 0 135 57.5t54 139.5t-54 139.5t-135 57.5t-135 -57.5t-54 -139.5t54 -139.5t135 -57.5z" />
    <glyph glyph-name="multiply" unicode="&#xd7;" 
d="M770 680v-680h-670v680h670zM170 70h480l-176 171h114l112 -109v478h-480l178 -173h-114l-114 111v-478zM596 294q-21 0 -35.5 14.5t-14.5 34.5q0 21 14.5 35t35.5 14q22 0 36.5 -14t14.5 -35q0 -20 -14.5 -34.5t-36.5 -14.5zM234 391h38q22 0 36.5 -13.5t14.5 -34.5
q0 -20 -14.5 -33.5t-36.5 -13.5h-38v95zM409 391v-20h-48v-18h42v-20h-42v-17h48v-20h-71v95h71zM473 311l-22 33v-48h-23v95h18l33 -51l34 51h17v-95h-23v48l-22 -33h-12zM596 371q-12 0 -19 -8t-7 -20q0 -11 7 -19t19 -8q11 0 18.5 8t7.5 19t-7.5 19.5t-18.5 8.5zM258 316
h14q12 0 19.5 8t7.5 19t-7.5 19t-19.5 8h-14v-54z" />
    <glyph glyph-name="Oslash" unicode="&#xd8;" horiz-adv-x="808" 
d="M712 632l-42 -50q95 -100 95 -242q0 -149 -103.5 -251.5t-257.5 -102.5q-103 0 -191 51l-48 -57l-78 65l48 57q-91 99 -91 238q0 149 103.5 251.5t256.5 102.5q102 0 187 -49l43 52zM215 340q0 -58 30 -107l240 286q-36 18 -81 18q-81 0 -135 -57.5t-54 -139.5zM404 143
q81 0 135 57.5t54 139.5q0 61 -32 112l-242 -289q38 -20 85 -20z" />
    <glyph glyph-name="Ugrave" unicode="&#xd9;" 
d="M770 680v-680h-670v680h670zM170 70h480l-176 171h114l112 -109v478h-480l178 -173h-114l-114 111v-478zM596 294q-21 0 -35.5 14.5t-14.5 34.5q0 21 14.5 35t35.5 14q22 0 36.5 -14t14.5 -35q0 -20 -14.5 -34.5t-36.5 -14.5zM234 391h38q22 0 36.5 -13.5t14.5 -34.5
q0 -20 -14.5 -33.5t-36.5 -13.5h-38v95zM409 391v-20h-48v-18h42v-20h-42v-17h48v-20h-71v95h71zM473 311l-22 33v-48h-23v95h18l33 -51l34 51h17v-95h-23v48l-22 -33h-12zM596 371q-12 0 -19 -8t-7 -20q0 -11 7 -19t19 -8q11 0 18.5 8t7.5 19t-7.5 19.5t-18.5 8.5zM258 316
h14q12 0 19.5 8t7.5 19t-7.5 19t-19.5 8h-14v-54z" />
    <glyph glyph-name="Uacute" unicode="&#xda;" 
d="M770 680v-680h-670v680h670zM170 70h480l-176 171h114l112 -109v478h-480l178 -173h-114l-114 111v-478zM596 294q-21 0 -35.5 14.5t-14.5 34.5q0 21 14.5 35t35.5 14q22 0 36.5 -14t14.5 -35q0 -20 -14.5 -34.5t-36.5 -14.5zM234 391h38q22 0 36.5 -13.5t14.5 -34.5
q0 -20 -14.5 -33.5t-36.5 -13.5h-38v95zM409 391v-20h-48v-18h42v-20h-42v-17h48v-20h-71v95h71zM473 311l-22 33v-48h-23v95h18l33 -51l34 51h17v-95h-23v48l-22 -33h-12zM596 371q-12 0 -19 -8t-7 -20q0 -11 7 -19t19 -8q11 0 18.5 8t7.5 19t-7.5 19.5t-18.5 8.5zM258 316
h14q12 0 19.5 8t7.5 19t-7.5 19t-19.5 8h-14v-54z" />
    <glyph glyph-name="Ucircumflex" unicode="&#xdb;" 
d="M770 680v-680h-670v680h670zM170 70h480l-176 171h114l112 -109v478h-480l178 -173h-114l-114 111v-478zM596 294q-21 0 -35.5 14.5t-14.5 34.5q0 21 14.5 35t35.5 14q22 0 36.5 -14t14.5 -35q0 -20 -14.5 -34.5t-36.5 -14.5zM234 391h38q22 0 36.5 -13.5t14.5 -34.5
q0 -20 -14.5 -33.5t-36.5 -13.5h-38v95zM409 391v-20h-48v-18h42v-20h-42v-17h48v-20h-71v95h71zM473 311l-22 33v-48h-23v95h18l33 -51l34 51h17v-95h-23v48l-22 -33h-12zM596 371q-12 0 -19 -8t-7 -20q0 -11 7 -19t19 -8q11 0 18.5 8t7.5 19t-7.5 19.5t-18.5 8.5zM258 316
h14q12 0 19.5 8t7.5 19t-7.5 19t-19.5 8h-14v-54z" />
    <glyph glyph-name="Udieresis" unicode="&#xdc;" horiz-adv-x="733" 
d="M252 919q38 0 64.5 -25.5t26.5 -62.5t-26.5 -62.5t-64.5 -25.5t-65 25.5t-27 62.5t27 62.5t65 25.5zM481 919q38 0 64.5 -25.5t26.5 -62.5t-26.5 -62.5t-64.5 -25.5t-65 25.5t-27 62.5t27 62.5t65 25.5zM683 680v-363q0 -157 -85 -244.5t-232 -87.5t-231.5 87.5
t-84.5 244.5v363h170v-366q0 -78 39.5 -124.5t106.5 -46.5t107 46.5t40 124.5v366h170z" />
    <glyph glyph-name="Yacute" unicode="&#xdd;" 
d="M770 680v-680h-670v680h670zM170 70h480l-176 171h114l112 -109v478h-480l178 -173h-114l-114 111v-478zM596 294q-21 0 -35.5 14.5t-14.5 34.5q0 21 14.5 35t35.5 14q22 0 36.5 -14t14.5 -35q0 -20 -14.5 -34.5t-36.5 -14.5zM234 391h38q22 0 36.5 -13.5t14.5 -34.5
q0 -20 -14.5 -33.5t-36.5 -13.5h-38v95zM409 391v-20h-48v-18h42v-20h-42v-17h48v-20h-71v95h71zM473 311l-22 33v-48h-23v95h18l33 -51l34 51h17v-95h-23v48l-22 -33h-12zM596 371q-12 0 -19 -8t-7 -20q0 -11 7 -19t19 -8q11 0 18.5 8t7.5 19t-7.5 19.5t-18.5 8.5zM258 316
h14q12 0 19.5 8t7.5 19t-7.5 19t-19.5 8h-14v-54z" />
    <glyph glyph-name="Thorn" unicode="&#xde;" horiz-adv-x="641" 
d="M229 594h105q133 0 210.5 -67t77.5 -182q0 -119 -81 -188.5t-221 -69.5h-91v-87h-169v680h169v-86zM229 235h101q56 0 89.5 30t33.5 80q0 46 -33.5 73t-89.5 27h-101v-210z" />
    <glyph glyph-name="germandbls" unicode="&#xdf;" horiz-adv-x="685" 
d="M622 393l-125 -162q76 -18 121 -71.5t45 -131.5q0 -105 -71.5 -171.5t-191.5 -66.5q-89 0 -168 25v139q83 -24 150 -24q56 0 85 27t29 68q0 38 -26 61t-70 23h-105v71l119 161h-197v-341h-162v533q0 105 65.5 168t173.5 63v-153q-35 0 -56 -21t-21 -57v-48h405v-92z" />
    <glyph glyph-name="agrave" unicode="&#xe0;" 
d="M770 680v-680h-670v680h670zM170 70h480l-176 171h114l112 -109v478h-480l178 -173h-114l-114 111v-478zM596 294q-21 0 -35.5 14.5t-14.5 34.5q0 21 14.5 35t35.5 14q22 0 36.5 -14t14.5 -35q0 -20 -14.5 -34.5t-36.5 -14.5zM234 391h38q22 0 36.5 -13.5t14.5 -34.5
q0 -20 -14.5 -33.5t-36.5 -13.5h-38v95zM409 391v-20h-48v-18h42v-20h-42v-17h48v-20h-71v95h71zM473 311l-22 33v-48h-23v95h18l33 -51l34 51h17v-95h-23v48l-22 -33h-12zM596 371q-12 0 -19 -8t-7 -20q0 -11 7 -19t19 -8q11 0 18.5 8t7.5 19t-7.5 19.5t-18.5 8.5zM258 316
h14q12 0 19.5 8t7.5 19t-7.5 19t-19.5 8h-14v-54z" />
    <glyph glyph-name="aacute" unicode="&#xe1;" 
d="M770 680v-680h-670v680h670zM170 70h480l-176 171h114l112 -109v478h-480l178 -173h-114l-114 111v-478zM596 294q-21 0 -35.5 14.5t-14.5 34.5q0 21 14.5 35t35.5 14q22 0 36.5 -14t14.5 -35q0 -20 -14.5 -34.5t-36.5 -14.5zM234 391h38q22 0 36.5 -13.5t14.5 -34.5
q0 -20 -14.5 -33.5t-36.5 -13.5h-38v95zM409 391v-20h-48v-18h42v-20h-42v-17h48v-20h-71v95h71zM473 311l-22 33v-48h-23v95h18l33 -51l34 51h17v-95h-23v48l-22 -33h-12zM596 371q-12 0 -19 -8t-7 -20q0 -11 7 -19t19 -8q11 0 18.5 8t7.5 19t-7.5 19.5t-18.5 8.5zM258 316
h14q12 0 19.5 8t7.5 19t-7.5 19t-19.5 8h-14v-54z" />
    <glyph glyph-name="acircumflex" unicode="&#xe2;" 
d="M770 680v-680h-670v680h670zM170 70h480l-176 171h114l112 -109v478h-480l178 -173h-114l-114 111v-478zM596 294q-21 0 -35.5 14.5t-14.5 34.5q0 21 14.5 35t35.5 14q22 0 36.5 -14t14.5 -35q0 -20 -14.5 -34.5t-36.5 -14.5zM234 391h38q22 0 36.5 -13.5t14.5 -34.5
q0 -20 -14.5 -33.5t-36.5 -13.5h-38v95zM409 391v-20h-48v-18h42v-20h-42v-17h48v-20h-71v95h71zM473 311l-22 33v-48h-23v95h18l33 -51l34 51h17v-95h-23v48l-22 -33h-12zM596 371q-12 0 -19 -8t-7 -20q0 -11 7 -19t19 -8q11 0 18.5 8t7.5 19t-7.5 19.5t-18.5 8.5zM258 316
h14q12 0 19.5 8t7.5 19t-7.5 19t-19.5 8h-14v-54z" />
    <glyph glyph-name="atilde" unicode="&#xe3;" 
d="M770 680v-680h-670v680h670zM170 70h480l-176 171h114l112 -109v478h-480l178 -173h-114l-114 111v-478zM596 294q-21 0 -35.5 14.5t-14.5 34.5q0 21 14.5 35t35.5 14q22 0 36.5 -14t14.5 -35q0 -20 -14.5 -34.5t-36.5 -14.5zM234 391h38q22 0 36.5 -13.5t14.5 -34.5
q0 -20 -14.5 -33.5t-36.5 -13.5h-38v95zM409 391v-20h-48v-18h42v-20h-42v-17h48v-20h-71v95h71zM473 311l-22 33v-48h-23v95h18l33 -51l34 51h17v-95h-23v48l-22 -33h-12zM596 371q-12 0 -19 -8t-7 -20q0 -11 7 -19t19 -8q11 0 18.5 8t7.5 19t-7.5 19.5t-18.5 8.5zM258 316
h14q12 0 19.5 8t7.5 19t-7.5 19t-19.5 8h-14v-54z" />
    <glyph glyph-name="adieresis" unicode="&#xe4;" horiz-adv-x="624" 
d="M210 550q-38 0 -65 25.5t-27 62.5t27 62.5t65 25.5t64.5 -25.5t26.5 -62.5t-26.5 -62.5t-64.5 -25.5zM439 550q-38 0 -65 25.5t-27 62.5t27 62.5t65 25.5t64.5 -25.5t26.5 -62.5t-26.5 -62.5t-64.5 -25.5zM569 485v-485h-162v27q-58 -37 -133 -37q-99 0 -170 73t-71 180
t71 180t170 73q75 0 133 -37v26h162zM306 123q62 0 101 45v150q-39 46 -101 46q-49 0 -81.5 -35t-32.5 -86t32.5 -85.5t81.5 -34.5z" />
    <glyph glyph-name="aring" unicode="&#xe5;" 
d="M770 680v-680h-670v680h670zM170 70h480l-176 171h114l112 -109v478h-480l178 -173h-114l-114 111v-478zM596 294q-21 0 -35.5 14.5t-14.5 34.5q0 21 14.5 35t35.5 14q22 0 36.5 -14t14.5 -35q0 -20 -14.5 -34.5t-36.5 -14.5zM234 391h38q22 0 36.5 -13.5t14.5 -34.5
q0 -20 -14.5 -33.5t-36.5 -13.5h-38v95zM409 391v-20h-48v-18h42v-20h-42v-17h48v-20h-71v95h71zM473 311l-22 33v-48h-23v95h18l33 -51l34 51h17v-95h-23v48l-22 -33h-12zM596 371q-12 0 -19 -8t-7 -20q0 -11 7 -19t19 -8q11 0 18.5 8t7.5 19t-7.5 19.5t-18.5 8.5zM258 316
h14q12 0 19.5 8t7.5 19t-7.5 19t-19.5 8h-14v-54z" />
    <glyph glyph-name="ae" unicode="&#xe6;" horiz-adv-x="893" 
d="M859 253q0 -37 -3 -55l1 -3h-346q23 -78 109 -78q52 0 74 35h160q-17 -75 -81.5 -119t-154.5 -44q-123 0 -197 76q-88 -74 -190 -74q-92 0 -147.5 41.5t-55.5 114.5q0 68 51.5 105.5t142.5 37.5h134q0 83 -77 83q-31 0 -51.5 -15t-24.5 -41h-154q4 90 70 136.5t165 46.5
q101 0 161 -57q69 53 166 53q107 0 177.5 -67.5t70.5 -175.5zM611 371q-82 0 -102 -81h198q-14 81 -96 81zM253 114q55 0 115 39q-8 21 -11 42h-130q-21 0 -34 -9t-13 -24q0 -19 18.5 -33.5t54.5 -14.5z" />
    <glyph glyph-name="ccedilla" unicode="&#xe7;" 
d="M770 680v-680h-670v680h670zM170 70h480l-176 171h114l112 -109v478h-480l178 -173h-114l-114 111v-478zM596 294q-21 0 -35.5 14.5t-14.5 34.5q0 21 14.5 35t35.5 14q22 0 36.5 -14t14.5 -35q0 -20 -14.5 -34.5t-36.5 -14.5zM234 391h38q22 0 36.5 -13.5t14.5 -34.5
q0 -20 -14.5 -33.5t-36.5 -13.5h-38v95zM409 391v-20h-48v-18h42v-20h-42v-17h48v-20h-71v95h71zM473 311l-22 33v-48h-23v95h18l33 -51l34 51h17v-95h-23v48l-22 -33h-12zM596 371q-12 0 -19 -8t-7 -20q0 -11 7 -19t19 -8q11 0 18.5 8t7.5 19t-7.5 19.5t-18.5 8.5zM258 316
h14q12 0 19.5 8t7.5 19t-7.5 19t-19.5 8h-14v-54z" />
    <glyph glyph-name="egrave" unicode="&#xe8;" 
d="M770 680v-680h-670v680h670zM170 70h480l-176 171h114l112 -109v478h-480l178 -173h-114l-114 111v-478zM596 294q-21 0 -35.5 14.5t-14.5 34.5q0 21 14.5 35t35.5 14q22 0 36.5 -14t14.5 -35q0 -20 -14.5 -34.5t-36.5 -14.5zM234 391h38q22 0 36.5 -13.5t14.5 -34.5
q0 -20 -14.5 -33.5t-36.5 -13.5h-38v95zM409 391v-20h-48v-18h42v-20h-42v-17h48v-20h-71v95h71zM473 311l-22 33v-48h-23v95h18l33 -51l34 51h17v-95h-23v48l-22 -33h-12zM596 371q-12 0 -19 -8t-7 -20q0 -11 7 -19t19 -8q11 0 18.5 8t7.5 19t-7.5 19.5t-18.5 8.5zM258 316
h14q12 0 19.5 8t7.5 19t-7.5 19t-19.5 8h-14v-54z" />
    <glyph glyph-name="eacute" unicode="&#xe9;" 
d="M770 680v-680h-670v680h670zM170 70h480l-176 171h114l112 -109v478h-480l178 -173h-114l-114 111v-478zM596 294q-21 0 -35.5 14.5t-14.5 34.5q0 21 14.5 35t35.5 14q22 0 36.5 -14t14.5 -35q0 -20 -14.5 -34.5t-36.5 -14.5zM234 391h38q22 0 36.5 -13.5t14.5 -34.5
q0 -20 -14.5 -33.5t-36.5 -13.5h-38v95zM409 391v-20h-48v-18h42v-20h-42v-17h48v-20h-71v95h71zM473 311l-22 33v-48h-23v95h18l33 -51l34 51h17v-95h-23v48l-22 -33h-12zM596 371q-12 0 -19 -8t-7 -20q0 -11 7 -19t19 -8q11 0 18.5 8t7.5 19t-7.5 19.5t-18.5 8.5zM258 316
h14q12 0 19.5 8t7.5 19t-7.5 19t-19.5 8h-14v-54z" />
    <glyph glyph-name="ecircumflex" unicode="&#xea;" 
d="M770 680v-680h-670v680h670zM170 70h480l-176 171h114l112 -109v478h-480l178 -173h-114l-114 111v-478zM596 294q-21 0 -35.5 14.5t-14.5 34.5q0 21 14.5 35t35.5 14q22 0 36.5 -14t14.5 -35q0 -20 -14.5 -34.5t-36.5 -14.5zM234 391h38q22 0 36.5 -13.5t14.5 -34.5
q0 -20 -14.5 -33.5t-36.5 -13.5h-38v95zM409 391v-20h-48v-18h42v-20h-42v-17h48v-20h-71v95h71zM473 311l-22 33v-48h-23v95h18l33 -51l34 51h17v-95h-23v48l-22 -33h-12zM596 371q-12 0 -19 -8t-7 -20q0 -11 7 -19t19 -8q11 0 18.5 8t7.5 19t-7.5 19.5t-18.5 8.5zM258 316
h14q12 0 19.5 8t7.5 19t-7.5 19t-19.5 8h-14v-54z" />
    <glyph glyph-name="edieresis" unicode="&#xeb;" 
d="M770 680v-680h-670v680h670zM170 70h480l-176 171h114l112 -109v478h-480l178 -173h-114l-114 111v-478zM596 294q-21 0 -35.5 14.5t-14.5 34.5q0 21 14.5 35t35.5 14q22 0 36.5 -14t14.5 -35q0 -20 -14.5 -34.5t-36.5 -14.5zM234 391h38q22 0 36.5 -13.5t14.5 -34.5
q0 -20 -14.5 -33.5t-36.5 -13.5h-38v95zM409 391v-20h-48v-18h42v-20h-42v-17h48v-20h-71v95h71zM473 311l-22 33v-48h-23v95h18l33 -51l34 51h17v-95h-23v48l-22 -33h-12zM596 371q-12 0 -19 -8t-7 -20q0 -11 7 -19t19 -8q11 0 18.5 8t7.5 19t-7.5 19.5t-18.5 8.5zM258 316
h14q12 0 19.5 8t7.5 19t-7.5 19t-19.5 8h-14v-54z" />
    <glyph glyph-name="igrave" unicode="&#xec;" 
d="M770 680v-680h-670v680h670zM170 70h480l-176 171h114l112 -109v478h-480l178 -173h-114l-114 111v-478zM596 294q-21 0 -35.5 14.5t-14.5 34.5q0 21 14.5 35t35.5 14q22 0 36.5 -14t14.5 -35q0 -20 -14.5 -34.5t-36.5 -14.5zM234 391h38q22 0 36.5 -13.5t14.5 -34.5
q0 -20 -14.5 -33.5t-36.5 -13.5h-38v95zM409 391v-20h-48v-18h42v-20h-42v-17h48v-20h-71v95h71zM473 311l-22 33v-48h-23v95h18l33 -51l34 51h17v-95h-23v48l-22 -33h-12zM596 371q-12 0 -19 -8t-7 -20q0 -11 7 -19t19 -8q11 0 18.5 8t7.5 19t-7.5 19.5t-18.5 8.5zM258 316
h14q12 0 19.5 8t7.5 19t-7.5 19t-19.5 8h-14v-54z" />
    <glyph glyph-name="iacute" unicode="&#xed;" 
d="M770 680v-680h-670v680h670zM170 70h480l-176 171h114l112 -109v478h-480l178 -173h-114l-114 111v-478zM596 294q-21 0 -35.5 14.5t-14.5 34.5q0 21 14.5 35t35.5 14q22 0 36.5 -14t14.5 -35q0 -20 -14.5 -34.5t-36.5 -14.5zM234 391h38q22 0 36.5 -13.5t14.5 -34.5
q0 -20 -14.5 -33.5t-36.5 -13.5h-38v95zM409 391v-20h-48v-18h42v-20h-42v-17h48v-20h-71v95h71zM473 311l-22 33v-48h-23v95h18l33 -51l34 51h17v-95h-23v48l-22 -33h-12zM596 371q-12 0 -19 -8t-7 -20q0 -11 7 -19t19 -8q11 0 18.5 8t7.5 19t-7.5 19.5t-18.5 8.5zM258 316
h14q12 0 19.5 8t7.5 19t-7.5 19t-19.5 8h-14v-54z" />
    <glyph glyph-name="icircumflex" unicode="&#xee;" 
d="M770 680v-680h-670v680h670zM170 70h480l-176 171h114l112 -109v478h-480l178 -173h-114l-114 111v-478zM596 294q-21 0 -35.5 14.5t-14.5 34.5q0 21 14.5 35t35.5 14q22 0 36.5 -14t14.5 -35q0 -20 -14.5 -34.5t-36.5 -14.5zM234 391h38q22 0 36.5 -13.5t14.5 -34.5
q0 -20 -14.5 -33.5t-36.5 -13.5h-38v95zM409 391v-20h-48v-18h42v-20h-42v-17h48v-20h-71v95h71zM473 311l-22 33v-48h-23v95h18l33 -51l34 51h17v-95h-23v48l-22 -33h-12zM596 371q-12 0 -19 -8t-7 -20q0 -11 7 -19t19 -8q11 0 18.5 8t7.5 19t-7.5 19.5t-18.5 8.5zM258 316
h14q12 0 19.5 8t7.5 19t-7.5 19t-19.5 8h-14v-54z" />
    <glyph glyph-name="idieresis" unicode="&#xef;" 
d="M770 680v-680h-670v680h670zM170 70h480l-176 171h114l112 -109v478h-480l178 -173h-114l-114 111v-478zM596 294q-21 0 -35.5 14.5t-14.5 34.5q0 21 14.5 35t35.5 14q22 0 36.5 -14t14.5 -35q0 -20 -14.5 -34.5t-36.5 -14.5zM234 391h38q22 0 36.5 -13.5t14.5 -34.5
q0 -20 -14.5 -33.5t-36.5 -13.5h-38v95zM409 391v-20h-48v-18h42v-20h-42v-17h48v-20h-71v95h71zM473 311l-22 33v-48h-23v95h18l33 -51l34 51h17v-95h-23v48l-22 -33h-12zM596 371q-12 0 -19 -8t-7 -20q0 -11 7 -19t19 -8q11 0 18.5 8t7.5 19t-7.5 19.5t-18.5 8.5zM258 316
h14q12 0 19.5 8t7.5 19t-7.5 19t-19.5 8h-14v-54z" />
    <glyph glyph-name="eth" unicode="&#xf0;" horiz-adv-x="593" 
d="M468 621l-54 -20q145 -152 145 -358q0 -111 -74.5 -184.5t-188.5 -73.5t-188.5 73.5t-74.5 184.5q0 110 74 181.5t189 71.5q24 0 41 -4q-21 30 -57 61l-148 -53l-34 88l86 31q-33 21 -86 46l140 61q47 -22 93 -53l103 37zM297 125q48 0 78.5 33.5t30.5 83.5
q0 48 -30.5 81t-78.5 33q-49 0 -79.5 -33t-30.5 -81q0 -50 30.5 -83.5t79.5 -33.5z" />
    <glyph glyph-name="ntilde" unicode="&#xf1;" 
d="M770 680v-680h-670v680h670zM170 70h480l-176 171h114l112 -109v478h-480l178 -173h-114l-114 111v-478zM596 294q-21 0 -35.5 14.5t-14.5 34.5q0 21 14.5 35t35.5 14q22 0 36.5 -14t14.5 -35q0 -20 -14.5 -34.5t-36.5 -14.5zM234 391h38q22 0 36.5 -13.5t14.5 -34.5
q0 -20 -14.5 -33.5t-36.5 -13.5h-38v95zM409 391v-20h-48v-18h42v-20h-42v-17h48v-20h-71v95h71zM473 311l-22 33v-48h-23v95h18l33 -51l34 51h17v-95h-23v48l-22 -33h-12zM596 371q-12 0 -19 -8t-7 -20q0 -11 7 -19t19 -8q11 0 18.5 8t7.5 19t-7.5 19.5t-18.5 8.5zM258 316
h14q12 0 19.5 8t7.5 19t-7.5 19t-19.5 8h-14v-54z" />
    <glyph glyph-name="ograve" unicode="&#xf2;" 
d="M770 680v-680h-670v680h670zM170 70h480l-176 171h114l112 -109v478h-480l178 -173h-114l-114 111v-478zM596 294q-21 0 -35.5 14.5t-14.5 34.5q0 21 14.5 35t35.5 14q22 0 36.5 -14t14.5 -35q0 -20 -14.5 -34.5t-36.5 -14.5zM234 391h38q22 0 36.5 -13.5t14.5 -34.5
q0 -20 -14.5 -33.5t-36.5 -13.5h-38v95zM409 391v-20h-48v-18h42v-20h-42v-17h48v-20h-71v95h71zM473 311l-22 33v-48h-23v95h18l33 -51l34 51h17v-95h-23v48l-22 -33h-12zM596 371q-12 0 -19 -8t-7 -20q0 -11 7 -19t19 -8q11 0 18.5 8t7.5 19t-7.5 19.5t-18.5 8.5zM258 316
h14q12 0 19.5 8t7.5 19t-7.5 19t-19.5 8h-14v-54z" />
    <glyph glyph-name="oacute" unicode="&#xf3;" 
d="M770 680v-680h-670v680h670zM170 70h480l-176 171h114l112 -109v478h-480l178 -173h-114l-114 111v-478zM596 294q-21 0 -35.5 14.5t-14.5 34.5q0 21 14.5 35t35.5 14q22 0 36.5 -14t14.5 -35q0 -20 -14.5 -34.5t-36.5 -14.5zM234 391h38q22 0 36.5 -13.5t14.5 -34.5
q0 -20 -14.5 -33.5t-36.5 -13.5h-38v95zM409 391v-20h-48v-18h42v-20h-42v-17h48v-20h-71v95h71zM473 311l-22 33v-48h-23v95h18l33 -51l34 51h17v-95h-23v48l-22 -33h-12zM596 371q-12 0 -19 -8t-7 -20q0 -11 7 -19t19 -8q11 0 18.5 8t7.5 19t-7.5 19.5t-18.5 8.5zM258 316
h14q12 0 19.5 8t7.5 19t-7.5 19t-19.5 8h-14v-54z" />
    <glyph glyph-name="ocircumflex" unicode="&#xf4;" 
d="M770 680v-680h-670v680h670zM170 70h480l-176 171h114l112 -109v478h-480l178 -173h-114l-114 111v-478zM596 294q-21 0 -35.5 14.5t-14.5 34.5q0 21 14.5 35t35.5 14q22 0 36.5 -14t14.5 -35q0 -20 -14.5 -34.5t-36.5 -14.5zM234 391h38q22 0 36.5 -13.5t14.5 -34.5
q0 -20 -14.5 -33.5t-36.5 -13.5h-38v95zM409 391v-20h-48v-18h42v-20h-42v-17h48v-20h-71v95h71zM473 311l-22 33v-48h-23v95h18l33 -51l34 51h17v-95h-23v48l-22 -33h-12zM596 371q-12 0 -19 -8t-7 -20q0 -11 7 -19t19 -8q11 0 18.5 8t7.5 19t-7.5 19.5t-18.5 8.5zM258 316
h14q12 0 19.5 8t7.5 19t-7.5 19t-19.5 8h-14v-54z" />
    <glyph glyph-name="otilde" unicode="&#xf5;" 
d="M770 680v-680h-670v680h670zM170 70h480l-176 171h114l112 -109v478h-480l178 -173h-114l-114 111v-478zM596 294q-21 0 -35.5 14.5t-14.5 34.5q0 21 14.5 35t35.5 14q22 0 36.5 -14t14.5 -35q0 -20 -14.5 -34.5t-36.5 -14.5zM234 391h38q22 0 36.5 -13.5t14.5 -34.5
q0 -20 -14.5 -33.5t-36.5 -13.5h-38v95zM409 391v-20h-48v-18h42v-20h-42v-17h48v-20h-71v95h71zM473 311l-22 33v-48h-23v95h18l33 -51l34 51h17v-95h-23v48l-22 -33h-12zM596 371q-12 0 -19 -8t-7 -20q0 -11 7 -19t19 -8q11 0 18.5 8t7.5 19t-7.5 19.5t-18.5 8.5zM258 316
h14q12 0 19.5 8t7.5 19t-7.5 19t-19.5 8h-14v-54z" />
    <glyph glyph-name="odieresis" unicode="&#xf6;" horiz-adv-x="593" 
d="M183 726q38 0 64.5 -25.5t26.5 -62.5t-26.5 -62.5t-64.5 -25.5t-65 25.5t-27 62.5t27 62.5t65 25.5zM412 726q38 0 64.5 -25.5t26.5 -62.5t-26.5 -62.5t-64.5 -25.5t-65 25.5t-27 62.5t27 62.5t65 25.5zM296 496q115 0 189 -71.5t74 -181.5q0 -111 -74.5 -184.5
t-188.5 -73.5t-188.5 73.5t-74.5 184.5q0 110 74 181.5t189 71.5zM297 125q48 0 78.5 33.5t30.5 83.5q0 48 -30.5 81t-78.5 33q-49 0 -79.5 -33t-30.5 -81q0 -50 30.5 -83.5t79.5 -33.5z" />
    <glyph glyph-name="divide" unicode="&#xf7;" 
d="M770 680v-680h-670v680h670zM170 70h480l-176 171h114l112 -109v478h-480l178 -173h-114l-114 111v-478zM596 294q-21 0 -35.5 14.5t-14.5 34.5q0 21 14.5 35t35.5 14q22 0 36.5 -14t14.5 -35q0 -20 -14.5 -34.5t-36.5 -14.5zM234 391h38q22 0 36.5 -13.5t14.5 -34.5
q0 -20 -14.5 -33.5t-36.5 -13.5h-38v95zM409 391v-20h-48v-18h42v-20h-42v-17h48v-20h-71v95h71zM473 311l-22 33v-48h-23v95h18l33 -51l34 51h17v-95h-23v48l-22 -33h-12zM596 371q-12 0 -19 -8t-7 -20q0 -11 7 -19t19 -8q11 0 18.5 8t7.5 19t-7.5 19.5t-18.5 8.5zM258 316
h14q12 0 19.5 8t7.5 19t-7.5 19t-19.5 8h-14v-54z" />
    <glyph glyph-name="oslash" unicode="&#xf8;" horiz-adv-x="593" 
d="M520 447l-26 -32q65 -70 65 -172q0 -111 -74.5 -184.5t-188.5 -73.5q-76 0 -136 34l-30 -36l-62 51l29 35q-64 72 -64 174q0 110 74 181.5t189 71.5q75 0 134 -32l28 34zM187 242q0 -28 11 -53l136 161q-18 6 -37 6q-49 0 -79.5 -33t-30.5 -81zM297 125q48 0 78.5 33.5
t30.5 83.5q0 30 -12 55l-138 -164q19 -8 41 -8z" />
    <glyph glyph-name="ugrave" unicode="&#xf9;" 
d="M770 680v-680h-670v680h670zM170 70h480l-176 171h114l112 -109v478h-480l178 -173h-114l-114 111v-478zM596 294q-21 0 -35.5 14.5t-14.5 34.5q0 21 14.5 35t35.5 14q22 0 36.5 -14t14.5 -35q0 -20 -14.5 -34.5t-36.5 -14.5zM234 391h38q22 0 36.5 -13.5t14.5 -34.5
q0 -20 -14.5 -33.5t-36.5 -13.5h-38v95zM409 391v-20h-48v-18h42v-20h-42v-17h48v-20h-71v95h71zM473 311l-22 33v-48h-23v95h18l33 -51l34 51h17v-95h-23v48l-22 -33h-12zM596 371q-12 0 -19 -8t-7 -20q0 -11 7 -19t19 -8q11 0 18.5 8t7.5 19t-7.5 19.5t-18.5 8.5zM258 316
h14q12 0 19.5 8t7.5 19t-7.5 19t-19.5 8h-14v-54z" />
    <glyph glyph-name="uacute" unicode="&#xfa;" 
d="M770 680v-680h-670v680h670zM170 70h480l-176 171h114l112 -109v478h-480l178 -173h-114l-114 111v-478zM596 294q-21 0 -35.5 14.5t-14.5 34.5q0 21 14.5 35t35.5 14q22 0 36.5 -14t14.5 -35q0 -20 -14.5 -34.5t-36.5 -14.5zM234 391h38q22 0 36.5 -13.5t14.5 -34.5
q0 -20 -14.5 -33.5t-36.5 -13.5h-38v95zM409 391v-20h-48v-18h42v-20h-42v-17h48v-20h-71v95h71zM473 311l-22 33v-48h-23v95h18l33 -51l34 51h17v-95h-23v48l-22 -33h-12zM596 371q-12 0 -19 -8t-7 -20q0 -11 7 -19t19 -8q11 0 18.5 8t7.5 19t-7.5 19.5t-18.5 8.5zM258 316
h14q12 0 19.5 8t7.5 19t-7.5 19t-19.5 8h-14v-54z" />
    <glyph glyph-name="ucircumflex" unicode="&#xfb;" 
d="M770 680v-680h-670v680h670zM170 70h480l-176 171h114l112 -109v478h-480l178 -173h-114l-114 111v-478zM596 294q-21 0 -35.5 14.5t-14.5 34.5q0 21 14.5 35t35.5 14q22 0 36.5 -14t14.5 -35q0 -20 -14.5 -34.5t-36.5 -14.5zM234 391h38q22 0 36.5 -13.5t14.5 -34.5
q0 -20 -14.5 -33.5t-36.5 -13.5h-38v95zM409 391v-20h-48v-18h42v-20h-42v-17h48v-20h-71v95h71zM473 311l-22 33v-48h-23v95h18l33 -51l34 51h17v-95h-23v48l-22 -33h-12zM596 371q-12 0 -19 -8t-7 -20q0 -11 7 -19t19 -8q11 0 18.5 8t7.5 19t-7.5 19.5t-18.5 8.5zM258 316
h14q12 0 19.5 8t7.5 19t-7.5 19t-19.5 8h-14v-54z" />
    <glyph glyph-name="udieresis" unicode="&#xfc;" horiz-adv-x="606" 
d="M190 550q-38 0 -65 25.5t-27 62.5t27 62.5t65 25.5t64.5 -25.5t26.5 -62.5t-26.5 -62.5t-64.5 -25.5zM419 550q-38 0 -65 25.5t-27 62.5t27 62.5t65 25.5t64.5 -25.5t26.5 -62.5t-26.5 -62.5t-64.5 -25.5zM551 485v-485h-162v32q-61 -47 -133 -47q-93 0 -150 60t-57 163
v277h162v-252q0 -50 24 -76t65 -26q46 0 89 48v306h162z" />
    <glyph glyph-name="yacute" unicode="&#xfd;" 
d="M770 680v-680h-670v680h670zM170 70h480l-176 171h114l112 -109v478h-480l178 -173h-114l-114 111v-478zM596 294q-21 0 -35.5 14.5t-14.5 34.5q0 21 14.5 35t35.5 14q22 0 36.5 -14t14.5 -35q0 -20 -14.5 -34.5t-36.5 -14.5zM234 391h38q22 0 36.5 -13.5t14.5 -34.5
q0 -20 -14.5 -33.5t-36.5 -13.5h-38v95zM409 391v-20h-48v-18h42v-20h-42v-17h48v-20h-71v95h71zM473 311l-22 33v-48h-23v95h18l33 -51l34 51h17v-95h-23v48l-22 -33h-12zM596 371q-12 0 -19 -8t-7 -20q0 -11 7 -19t19 -8q11 0 18.5 8t7.5 19t-7.5 19.5t-18.5 8.5zM258 316
h14q12 0 19.5 8t7.5 19t-7.5 19t-19.5 8h-14v-54z" />
    <glyph glyph-name="thorn" unicode="&#xfe;" horiz-adv-x="618" 
d="M350 496q99 0 170 -73t71 -180t-71 -180t-170 -73q-75 0 -133 37v-252h-162v905h162v-221q58 37 133 37zM318 123q49 0 81.5 34.5t32.5 85.5t-32.5 86t-81.5 35q-62 0 -101 -46v-150q39 -45 101 -45z" />
    <glyph glyph-name="ydieresis" unicode="&#xff;" 
d="M770 680v-680h-670v680h670zM170 70h480l-176 171h114l112 -109v478h-480l178 -173h-114l-114 111v-478zM596 294q-21 0 -35.5 14.5t-14.5 34.5q0 21 14.5 35t35.5 14q22 0 36.5 -14t14.5 -35q0 -20 -14.5 -34.5t-36.5 -14.5zM234 391h38q22 0 36.5 -13.5t14.5 -34.5
q0 -20 -14.5 -33.5t-36.5 -13.5h-38v95zM409 391v-20h-48v-18h42v-20h-42v-17h48v-20h-71v95h71zM473 311l-22 33v-48h-23v95h18l33 -51l34 51h17v-95h-23v48l-22 -33h-12zM596 371q-12 0 -19 -8t-7 -20q0 -11 7 -19t19 -8q11 0 18.5 8t7.5 19t-7.5 19.5t-18.5 8.5zM258 316
h14q12 0 19.5 8t7.5 19t-7.5 19t-19.5 8h-14v-54z" />
    <glyph glyph-name="Amacron" unicode="&#x100;" 
d="M770 680v-680h-670v680h670zM170 70h480l-176 171h114l112 -109v478h-480l178 -173h-114l-114 111v-478zM596 294q-21 0 -35.5 14.5t-14.5 34.5q0 21 14.5 35t35.5 14q22 0 36.5 -14t14.5 -35q0 -20 -14.5 -34.5t-36.5 -14.5zM234 391h38q22 0 36.5 -13.5t14.5 -34.5
q0 -20 -14.5 -33.5t-36.5 -13.5h-38v95zM409 391v-20h-48v-18h42v-20h-42v-17h48v-20h-71v95h71zM473 311l-22 33v-48h-23v95h18l33 -51l34 51h17v-95h-23v48l-22 -33h-12zM596 371q-12 0 -19 -8t-7 -20q0 -11 7 -19t19 -8q11 0 18.5 8t7.5 19t-7.5 19.5t-18.5 8.5zM258 316
h14q12 0 19.5 8t7.5 19t-7.5 19t-19.5 8h-14v-54z" />
    <glyph glyph-name="amacron" unicode="&#x101;" 
d="M770 680v-680h-670v680h670zM170 70h480l-176 171h114l112 -109v478h-480l178 -173h-114l-114 111v-478zM596 294q-21 0 -35.5 14.5t-14.5 34.5q0 21 14.5 35t35.5 14q22 0 36.5 -14t14.5 -35q0 -20 -14.5 -34.5t-36.5 -14.5zM234 391h38q22 0 36.5 -13.5t14.5 -34.5
q0 -20 -14.5 -33.5t-36.5 -13.5h-38v95zM409 391v-20h-48v-18h42v-20h-42v-17h48v-20h-71v95h71zM473 311l-22 33v-48h-23v95h18l33 -51l34 51h17v-95h-23v48l-22 -33h-12zM596 371q-12 0 -19 -8t-7 -20q0 -11 7 -19t19 -8q11 0 18.5 8t7.5 19t-7.5 19.5t-18.5 8.5zM258 316
h14q12 0 19.5 8t7.5 19t-7.5 19t-19.5 8h-14v-54z" />
    <glyph glyph-name="Abreve" unicode="&#x102;" 
d="M770 680v-680h-670v680h670zM170 70h480l-176 171h114l112 -109v478h-480l178 -173h-114l-114 111v-478zM596 294q-21 0 -35.5 14.5t-14.5 34.5q0 21 14.5 35t35.5 14q22 0 36.5 -14t14.5 -35q0 -20 -14.5 -34.5t-36.5 -14.5zM234 391h38q22 0 36.5 -13.5t14.5 -34.5
q0 -20 -14.5 -33.5t-36.5 -13.5h-38v95zM409 391v-20h-48v-18h42v-20h-42v-17h48v-20h-71v95h71zM473 311l-22 33v-48h-23v95h18l33 -51l34 51h17v-95h-23v48l-22 -33h-12zM596 371q-12 0 -19 -8t-7 -20q0 -11 7 -19t19 -8q11 0 18.5 8t7.5 19t-7.5 19.5t-18.5 8.5zM258 316
h14q12 0 19.5 8t7.5 19t-7.5 19t-19.5 8h-14v-54z" />
    <glyph glyph-name="abreve" unicode="&#x103;" 
d="M770 680v-680h-670v680h670zM170 70h480l-176 171h114l112 -109v478h-480l178 -173h-114l-114 111v-478zM596 294q-21 0 -35.5 14.5t-14.5 34.5q0 21 14.5 35t35.5 14q22 0 36.5 -14t14.5 -35q0 -20 -14.5 -34.5t-36.5 -14.5zM234 391h38q22 0 36.5 -13.5t14.5 -34.5
q0 -20 -14.5 -33.5t-36.5 -13.5h-38v95zM409 391v-20h-48v-18h42v-20h-42v-17h48v-20h-71v95h71zM473 311l-22 33v-48h-23v95h18l33 -51l34 51h17v-95h-23v48l-22 -33h-12zM596 371q-12 0 -19 -8t-7 -20q0 -11 7 -19t19 -8q11 0 18.5 8t7.5 19t-7.5 19.5t-18.5 8.5zM258 316
h14q12 0 19.5 8t7.5 19t-7.5 19t-19.5 8h-14v-54z" />
    <glyph glyph-name="Aogonek" unicode="&#x104;" 
d="M770 680v-680h-670v680h670zM170 70h480l-176 171h114l112 -109v478h-480l178 -173h-114l-114 111v-478zM596 294q-21 0 -35.5 14.5t-14.5 34.5q0 21 14.5 35t35.5 14q22 0 36.5 -14t14.5 -35q0 -20 -14.5 -34.5t-36.5 -14.5zM234 391h38q22 0 36.5 -13.5t14.5 -34.5
q0 -20 -14.5 -33.5t-36.5 -13.5h-38v95zM409 391v-20h-48v-18h42v-20h-42v-17h48v-20h-71v95h71zM473 311l-22 33v-48h-23v95h18l33 -51l34 51h17v-95h-23v48l-22 -33h-12zM596 371q-12 0 -19 -8t-7 -20q0 -11 7 -19t19 -8q11 0 18.5 8t7.5 19t-7.5 19.5t-18.5 8.5zM258 316
h14q12 0 19.5 8t7.5 19t-7.5 19t-19.5 8h-14v-54z" />
    <glyph glyph-name="aogonek" unicode="&#x105;" 
d="M770 680v-680h-670v680h670zM170 70h480l-176 171h114l112 -109v478h-480l178 -173h-114l-114 111v-478zM596 294q-21 0 -35.5 14.5t-14.5 34.5q0 21 14.5 35t35.5 14q22 0 36.5 -14t14.5 -35q0 -20 -14.5 -34.5t-36.5 -14.5zM234 391h38q22 0 36.5 -13.5t14.5 -34.5
q0 -20 -14.5 -33.5t-36.5 -13.5h-38v95zM409 391v-20h-48v-18h42v-20h-42v-17h48v-20h-71v95h71zM473 311l-22 33v-48h-23v95h18l33 -51l34 51h17v-95h-23v48l-22 -33h-12zM596 371q-12 0 -19 -8t-7 -20q0 -11 7 -19t19 -8q11 0 18.5 8t7.5 19t-7.5 19.5t-18.5 8.5zM258 316
h14q12 0 19.5 8t7.5 19t-7.5 19t-19.5 8h-14v-54z" />
    <glyph glyph-name="Cacute" unicode="&#x106;" 
d="M770 680v-680h-670v680h670zM170 70h480l-176 171h114l112 -109v478h-480l178 -173h-114l-114 111v-478zM596 294q-21 0 -35.5 14.5t-14.5 34.5q0 21 14.5 35t35.5 14q22 0 36.5 -14t14.5 -35q0 -20 -14.5 -34.5t-36.5 -14.5zM234 391h38q22 0 36.5 -13.5t14.5 -34.5
q0 -20 -14.5 -33.5t-36.5 -13.5h-38v95zM409 391v-20h-48v-18h42v-20h-42v-17h48v-20h-71v95h71zM473 311l-22 33v-48h-23v95h18l33 -51l34 51h17v-95h-23v48l-22 -33h-12zM596 371q-12 0 -19 -8t-7 -20q0 -11 7 -19t19 -8q11 0 18.5 8t7.5 19t-7.5 19.5t-18.5 8.5zM258 316
h14q12 0 19.5 8t7.5 19t-7.5 19t-19.5 8h-14v-54z" />
    <glyph glyph-name="cacute" unicode="&#x107;" 
d="M770 680v-680h-670v680h670zM170 70h480l-176 171h114l112 -109v478h-480l178 -173h-114l-114 111v-478zM596 294q-21 0 -35.5 14.5t-14.5 34.5q0 21 14.5 35t35.5 14q22 0 36.5 -14t14.5 -35q0 -20 -14.5 -34.5t-36.5 -14.5zM234 391h38q22 0 36.5 -13.5t14.5 -34.5
q0 -20 -14.5 -33.5t-36.5 -13.5h-38v95zM409 391v-20h-48v-18h42v-20h-42v-17h48v-20h-71v95h71zM473 311l-22 33v-48h-23v95h18l33 -51l34 51h17v-95h-23v48l-22 -33h-12zM596 371q-12 0 -19 -8t-7 -20q0 -11 7 -19t19 -8q11 0 18.5 8t7.5 19t-7.5 19.5t-18.5 8.5zM258 316
h14q12 0 19.5 8t7.5 19t-7.5 19t-19.5 8h-14v-54z" />
    <glyph glyph-name="Cdotaccent" unicode="&#x10a;" 
d="M770 680v-680h-670v680h670zM170 70h480l-176 171h114l112 -109v478h-480l178 -173h-114l-114 111v-478zM596 294q-21 0 -35.5 14.5t-14.5 34.5q0 21 14.5 35t35.5 14q22 0 36.5 -14t14.5 -35q0 -20 -14.5 -34.5t-36.5 -14.5zM234 391h38q22 0 36.5 -13.5t14.5 -34.5
q0 -20 -14.5 -33.5t-36.5 -13.5h-38v95zM409 391v-20h-48v-18h42v-20h-42v-17h48v-20h-71v95h71zM473 311l-22 33v-48h-23v95h18l33 -51l34 51h17v-95h-23v48l-22 -33h-12zM596 371q-12 0 -19 -8t-7 -20q0 -11 7 -19t19 -8q11 0 18.5 8t7.5 19t-7.5 19.5t-18.5 8.5zM258 316
h14q12 0 19.5 8t7.5 19t-7.5 19t-19.5 8h-14v-54z" />
    <glyph glyph-name="cdotaccent" unicode="&#x10b;" 
d="M770 680v-680h-670v680h670zM170 70h480l-176 171h114l112 -109v478h-480l178 -173h-114l-114 111v-478zM596 294q-21 0 -35.5 14.5t-14.5 34.5q0 21 14.5 35t35.5 14q22 0 36.5 -14t14.5 -35q0 -20 -14.5 -34.5t-36.5 -14.5zM234 391h38q22 0 36.5 -13.5t14.5 -34.5
q0 -20 -14.5 -33.5t-36.5 -13.5h-38v95zM409 391v-20h-48v-18h42v-20h-42v-17h48v-20h-71v95h71zM473 311l-22 33v-48h-23v95h18l33 -51l34 51h17v-95h-23v48l-22 -33h-12zM596 371q-12 0 -19 -8t-7 -20q0 -11 7 -19t19 -8q11 0 18.5 8t7.5 19t-7.5 19.5t-18.5 8.5zM258 316
h14q12 0 19.5 8t7.5 19t-7.5 19t-19.5 8h-14v-54z" />
    <glyph glyph-name="Ccaron" unicode="&#x10c;" 
d="M770 680v-680h-670v680h670zM170 70h480l-176 171h114l112 -109v478h-480l178 -173h-114l-114 111v-478zM596 294q-21 0 -35.5 14.5t-14.5 34.5q0 21 14.5 35t35.5 14q22 0 36.5 -14t14.5 -35q0 -20 -14.5 -34.5t-36.5 -14.5zM234 391h38q22 0 36.5 -13.5t14.5 -34.5
q0 -20 -14.5 -33.5t-36.5 -13.5h-38v95zM409 391v-20h-48v-18h42v-20h-42v-17h48v-20h-71v95h71zM473 311l-22 33v-48h-23v95h18l33 -51l34 51h17v-95h-23v48l-22 -33h-12zM596 371q-12 0 -19 -8t-7 -20q0 -11 7 -19t19 -8q11 0 18.5 8t7.5 19t-7.5 19.5t-18.5 8.5zM258 316
h14q12 0 19.5 8t7.5 19t-7.5 19t-19.5 8h-14v-54z" />
    <glyph glyph-name="ccaron" unicode="&#x10d;" 
d="M770 680v-680h-670v680h670zM170 70h480l-176 171h114l112 -109v478h-480l178 -173h-114l-114 111v-478zM596 294q-21 0 -35.5 14.5t-14.5 34.5q0 21 14.5 35t35.5 14q22 0 36.5 -14t14.5 -35q0 -20 -14.5 -34.5t-36.5 -14.5zM234 391h38q22 0 36.5 -13.5t14.5 -34.5
q0 -20 -14.5 -33.5t-36.5 -13.5h-38v95zM409 391v-20h-48v-18h42v-20h-42v-17h48v-20h-71v95h71zM473 311l-22 33v-48h-23v95h18l33 -51l34 51h17v-95h-23v48l-22 -33h-12zM596 371q-12 0 -19 -8t-7 -20q0 -11 7 -19t19 -8q11 0 18.5 8t7.5 19t-7.5 19.5t-18.5 8.5zM258 316
h14q12 0 19.5 8t7.5 19t-7.5 19t-19.5 8h-14v-54z" />
    <glyph glyph-name="Dcaron" unicode="&#x10e;" 
d="M770 680v-680h-670v680h670zM170 70h480l-176 171h114l112 -109v478h-480l178 -173h-114l-114 111v-478zM596 294q-21 0 -35.5 14.5t-14.5 34.5q0 21 14.5 35t35.5 14q22 0 36.5 -14t14.5 -35q0 -20 -14.5 -34.5t-36.5 -14.5zM234 391h38q22 0 36.5 -13.5t14.5 -34.5
q0 -20 -14.5 -33.5t-36.5 -13.5h-38v95zM409 391v-20h-48v-18h42v-20h-42v-17h48v-20h-71v95h71zM473 311l-22 33v-48h-23v95h18l33 -51l34 51h17v-95h-23v48l-22 -33h-12zM596 371q-12 0 -19 -8t-7 -20q0 -11 7 -19t19 -8q11 0 18.5 8t7.5 19t-7.5 19.5t-18.5 8.5zM258 316
h14q12 0 19.5 8t7.5 19t-7.5 19t-19.5 8h-14v-54z" />
    <glyph glyph-name="dcaron" unicode="&#x10f;" 
d="M770 680v-680h-670v680h670zM170 70h480l-176 171h114l112 -109v478h-480l178 -173h-114l-114 111v-478zM596 294q-21 0 -35.5 14.5t-14.5 34.5q0 21 14.5 35t35.5 14q22 0 36.5 -14t14.5 -35q0 -20 -14.5 -34.5t-36.5 -14.5zM234 391h38q22 0 36.5 -13.5t14.5 -34.5
q0 -20 -14.5 -33.5t-36.5 -13.5h-38v95zM409 391v-20h-48v-18h42v-20h-42v-17h48v-20h-71v95h71zM473 311l-22 33v-48h-23v95h18l33 -51l34 51h17v-95h-23v48l-22 -33h-12zM596 371q-12 0 -19 -8t-7 -20q0 -11 7 -19t19 -8q11 0 18.5 8t7.5 19t-7.5 19.5t-18.5 8.5zM258 316
h14q12 0 19.5 8t7.5 19t-7.5 19t-19.5 8h-14v-54z" />
    <glyph glyph-name="Dcroat" unicode="&#x110;" 
d="M770 680v-680h-670v680h670zM170 70h480l-176 171h114l112 -109v478h-480l178 -173h-114l-114 111v-478zM596 294q-21 0 -35.5 14.5t-14.5 34.5q0 21 14.5 35t35.5 14q22 0 36.5 -14t14.5 -35q0 -20 -14.5 -34.5t-36.5 -14.5zM234 391h38q22 0 36.5 -13.5t14.5 -34.5
q0 -20 -14.5 -33.5t-36.5 -13.5h-38v95zM409 391v-20h-48v-18h42v-20h-42v-17h48v-20h-71v95h71zM473 311l-22 33v-48h-23v95h18l33 -51l34 51h17v-95h-23v48l-22 -33h-12zM596 371q-12 0 -19 -8t-7 -20q0 -11 7 -19t19 -8q11 0 18.5 8t7.5 19t-7.5 19.5t-18.5 8.5zM258 316
h14q12 0 19.5 8t7.5 19t-7.5 19t-19.5 8h-14v-54z" />
    <glyph glyph-name="dcroat" unicode="&#x111;" 
d="M770 680v-680h-670v680h670zM170 70h480l-176 171h114l112 -109v478h-480l178 -173h-114l-114 111v-478zM596 294q-21 0 -35.5 14.5t-14.5 34.5q0 21 14.5 35t35.5 14q22 0 36.5 -14t14.5 -35q0 -20 -14.5 -34.5t-36.5 -14.5zM234 391h38q22 0 36.5 -13.5t14.5 -34.5
q0 -20 -14.5 -33.5t-36.5 -13.5h-38v95zM409 391v-20h-48v-18h42v-20h-42v-17h48v-20h-71v95h71zM473 311l-22 33v-48h-23v95h18l33 -51l34 51h17v-95h-23v48l-22 -33h-12zM596 371q-12 0 -19 -8t-7 -20q0 -11 7 -19t19 -8q11 0 18.5 8t7.5 19t-7.5 19.5t-18.5 8.5zM258 316
h14q12 0 19.5 8t7.5 19t-7.5 19t-19.5 8h-14v-54z" />
    <glyph glyph-name="Emacron" unicode="&#x112;" 
d="M770 680v-680h-670v680h670zM170 70h480l-176 171h114l112 -109v478h-480l178 -173h-114l-114 111v-478zM596 294q-21 0 -35.5 14.5t-14.5 34.5q0 21 14.5 35t35.5 14q22 0 36.5 -14t14.5 -35q0 -20 -14.5 -34.5t-36.5 -14.5zM234 391h38q22 0 36.5 -13.5t14.5 -34.5
q0 -20 -14.5 -33.5t-36.5 -13.5h-38v95zM409 391v-20h-48v-18h42v-20h-42v-17h48v-20h-71v95h71zM473 311l-22 33v-48h-23v95h18l33 -51l34 51h17v-95h-23v48l-22 -33h-12zM596 371q-12 0 -19 -8t-7 -20q0 -11 7 -19t19 -8q11 0 18.5 8t7.5 19t-7.5 19.5t-18.5 8.5zM258 316
h14q12 0 19.5 8t7.5 19t-7.5 19t-19.5 8h-14v-54z" />
    <glyph glyph-name="emacron" unicode="&#x113;" 
d="M770 680v-680h-670v680h670zM170 70h480l-176 171h114l112 -109v478h-480l178 -173h-114l-114 111v-478zM596 294q-21 0 -35.5 14.5t-14.5 34.5q0 21 14.5 35t35.5 14q22 0 36.5 -14t14.5 -35q0 -20 -14.5 -34.5t-36.5 -14.5zM234 391h38q22 0 36.5 -13.5t14.5 -34.5
q0 -20 -14.5 -33.5t-36.5 -13.5h-38v95zM409 391v-20h-48v-18h42v-20h-42v-17h48v-20h-71v95h71zM473 311l-22 33v-48h-23v95h18l33 -51l34 51h17v-95h-23v48l-22 -33h-12zM596 371q-12 0 -19 -8t-7 -20q0 -11 7 -19t19 -8q11 0 18.5 8t7.5 19t-7.5 19.5t-18.5 8.5zM258 316
h14q12 0 19.5 8t7.5 19t-7.5 19t-19.5 8h-14v-54z" />
    <glyph glyph-name="Edotaccent" unicode="&#x116;" 
d="M770 680v-680h-670v680h670zM170 70h480l-176 171h114l112 -109v478h-480l178 -173h-114l-114 111v-478zM596 294q-21 0 -35.5 14.5t-14.5 34.5q0 21 14.5 35t35.5 14q22 0 36.5 -14t14.5 -35q0 -20 -14.5 -34.5t-36.5 -14.5zM234 391h38q22 0 36.5 -13.5t14.5 -34.5
q0 -20 -14.5 -33.5t-36.5 -13.5h-38v95zM409 391v-20h-48v-18h42v-20h-42v-17h48v-20h-71v95h71zM473 311l-22 33v-48h-23v95h18l33 -51l34 51h17v-95h-23v48l-22 -33h-12zM596 371q-12 0 -19 -8t-7 -20q0 -11 7 -19t19 -8q11 0 18.5 8t7.5 19t-7.5 19.5t-18.5 8.5zM258 316
h14q12 0 19.5 8t7.5 19t-7.5 19t-19.5 8h-14v-54z" />
    <glyph glyph-name="edotaccent" unicode="&#x117;" 
d="M770 680v-680h-670v680h670zM170 70h480l-176 171h114l112 -109v478h-480l178 -173h-114l-114 111v-478zM596 294q-21 0 -35.5 14.5t-14.5 34.5q0 21 14.5 35t35.5 14q22 0 36.5 -14t14.5 -35q0 -20 -14.5 -34.5t-36.5 -14.5zM234 391h38q22 0 36.5 -13.5t14.5 -34.5
q0 -20 -14.5 -33.5t-36.5 -13.5h-38v95zM409 391v-20h-48v-18h42v-20h-42v-17h48v-20h-71v95h71zM473 311l-22 33v-48h-23v95h18l33 -51l34 51h17v-95h-23v48l-22 -33h-12zM596 371q-12 0 -19 -8t-7 -20q0 -11 7 -19t19 -8q11 0 18.5 8t7.5 19t-7.5 19.5t-18.5 8.5zM258 316
h14q12 0 19.5 8t7.5 19t-7.5 19t-19.5 8h-14v-54z" />
    <glyph glyph-name="Eogonek" unicode="&#x118;" 
d="M770 680v-680h-670v680h670zM170 70h480l-176 171h114l112 -109v478h-480l178 -173h-114l-114 111v-478zM596 294q-21 0 -35.5 14.5t-14.5 34.5q0 21 14.5 35t35.5 14q22 0 36.5 -14t14.5 -35q0 -20 -14.5 -34.5t-36.5 -14.5zM234 391h38q22 0 36.5 -13.5t14.5 -34.5
q0 -20 -14.5 -33.5t-36.5 -13.5h-38v95zM409 391v-20h-48v-18h42v-20h-42v-17h48v-20h-71v95h71zM473 311l-22 33v-48h-23v95h18l33 -51l34 51h17v-95h-23v48l-22 -33h-12zM596 371q-12 0 -19 -8t-7 -20q0 -11 7 -19t19 -8q11 0 18.5 8t7.5 19t-7.5 19.5t-18.5 8.5zM258 316
h14q12 0 19.5 8t7.5 19t-7.5 19t-19.5 8h-14v-54z" />
    <glyph glyph-name="eogonek" unicode="&#x119;" 
d="M770 680v-680h-670v680h670zM170 70h480l-176 171h114l112 -109v478h-480l178 -173h-114l-114 111v-478zM596 294q-21 0 -35.5 14.5t-14.5 34.5q0 21 14.5 35t35.5 14q22 0 36.5 -14t14.5 -35q0 -20 -14.5 -34.5t-36.5 -14.5zM234 391h38q22 0 36.5 -13.5t14.5 -34.5
q0 -20 -14.5 -33.5t-36.5 -13.5h-38v95zM409 391v-20h-48v-18h42v-20h-42v-17h48v-20h-71v95h71zM473 311l-22 33v-48h-23v95h18l33 -51l34 51h17v-95h-23v48l-22 -33h-12zM596 371q-12 0 -19 -8t-7 -20q0 -11 7 -19t19 -8q11 0 18.5 8t7.5 19t-7.5 19.5t-18.5 8.5zM258 316
h14q12 0 19.5 8t7.5 19t-7.5 19t-19.5 8h-14v-54z" />
    <glyph glyph-name="Ecaron" unicode="&#x11a;" 
d="M770 680v-680h-670v680h670zM170 70h480l-176 171h114l112 -109v478h-480l178 -173h-114l-114 111v-478zM596 294q-21 0 -35.5 14.5t-14.5 34.5q0 21 14.5 35t35.5 14q22 0 36.5 -14t14.5 -35q0 -20 -14.5 -34.5t-36.5 -14.5zM234 391h38q22 0 36.5 -13.5t14.5 -34.5
q0 -20 -14.5 -33.5t-36.5 -13.5h-38v95zM409 391v-20h-48v-18h42v-20h-42v-17h48v-20h-71v95h71zM473 311l-22 33v-48h-23v95h18l33 -51l34 51h17v-95h-23v48l-22 -33h-12zM596 371q-12 0 -19 -8t-7 -20q0 -11 7 -19t19 -8q11 0 18.5 8t7.5 19t-7.5 19.5t-18.5 8.5zM258 316
h14q12 0 19.5 8t7.5 19t-7.5 19t-19.5 8h-14v-54z" />
    <glyph glyph-name="ecaron" unicode="&#x11b;" 
d="M770 680v-680h-670v680h670zM170 70h480l-176 171h114l112 -109v478h-480l178 -173h-114l-114 111v-478zM596 294q-21 0 -35.5 14.5t-14.5 34.5q0 21 14.5 35t35.5 14q22 0 36.5 -14t14.5 -35q0 -20 -14.5 -34.5t-36.5 -14.5zM234 391h38q22 0 36.5 -13.5t14.5 -34.5
q0 -20 -14.5 -33.5t-36.5 -13.5h-38v95zM409 391v-20h-48v-18h42v-20h-42v-17h48v-20h-71v95h71zM473 311l-22 33v-48h-23v95h18l33 -51l34 51h17v-95h-23v48l-22 -33h-12zM596 371q-12 0 -19 -8t-7 -20q0 -11 7 -19t19 -8q11 0 18.5 8t7.5 19t-7.5 19.5t-18.5 8.5zM258 316
h14q12 0 19.5 8t7.5 19t-7.5 19t-19.5 8h-14v-54z" />
    <glyph glyph-name="Gbreve" unicode="&#x11e;" 
d="M770 680v-680h-670v680h670zM170 70h480l-176 171h114l112 -109v478h-480l178 -173h-114l-114 111v-478zM596 294q-21 0 -35.5 14.5t-14.5 34.5q0 21 14.5 35t35.5 14q22 0 36.5 -14t14.5 -35q0 -20 -14.5 -34.5t-36.5 -14.5zM234 391h38q22 0 36.5 -13.5t14.5 -34.5
q0 -20 -14.5 -33.5t-36.5 -13.5h-38v95zM409 391v-20h-48v-18h42v-20h-42v-17h48v-20h-71v95h71zM473 311l-22 33v-48h-23v95h18l33 -51l34 51h17v-95h-23v48l-22 -33h-12zM596 371q-12 0 -19 -8t-7 -20q0 -11 7 -19t19 -8q11 0 18.5 8t7.5 19t-7.5 19.5t-18.5 8.5zM258 316
h14q12 0 19.5 8t7.5 19t-7.5 19t-19.5 8h-14v-54z" />
    <glyph glyph-name="gbreve" unicode="&#x11f;" 
d="M770 680v-680h-670v680h670zM170 70h480l-176 171h114l112 -109v478h-480l178 -173h-114l-114 111v-478zM596 294q-21 0 -35.5 14.5t-14.5 34.5q0 21 14.5 35t35.5 14q22 0 36.5 -14t14.5 -35q0 -20 -14.5 -34.5t-36.5 -14.5zM234 391h38q22 0 36.5 -13.5t14.5 -34.5
q0 -20 -14.5 -33.5t-36.5 -13.5h-38v95zM409 391v-20h-48v-18h42v-20h-42v-17h48v-20h-71v95h71zM473 311l-22 33v-48h-23v95h18l33 -51l34 51h17v-95h-23v48l-22 -33h-12zM596 371q-12 0 -19 -8t-7 -20q0 -11 7 -19t19 -8q11 0 18.5 8t7.5 19t-7.5 19.5t-18.5 8.5zM258 316
h14q12 0 19.5 8t7.5 19t-7.5 19t-19.5 8h-14v-54z" />
    <glyph glyph-name="Gdotaccent" unicode="&#x120;" 
d="M770 680v-680h-670v680h670zM170 70h480l-176 171h114l112 -109v478h-480l178 -173h-114l-114 111v-478zM596 294q-21 0 -35.5 14.5t-14.5 34.5q0 21 14.5 35t35.5 14q22 0 36.5 -14t14.5 -35q0 -20 -14.5 -34.5t-36.5 -14.5zM234 391h38q22 0 36.5 -13.5t14.5 -34.5
q0 -20 -14.5 -33.5t-36.5 -13.5h-38v95zM409 391v-20h-48v-18h42v-20h-42v-17h48v-20h-71v95h71zM473 311l-22 33v-48h-23v95h18l33 -51l34 51h17v-95h-23v48l-22 -33h-12zM596 371q-12 0 -19 -8t-7 -20q0 -11 7 -19t19 -8q11 0 18.5 8t7.5 19t-7.5 19.5t-18.5 8.5zM258 316
h14q12 0 19.5 8t7.5 19t-7.5 19t-19.5 8h-14v-54z" />
    <glyph glyph-name="gdotaccent" unicode="&#x121;" 
d="M770 680v-680h-670v680h670zM170 70h480l-176 171h114l112 -109v478h-480l178 -173h-114l-114 111v-478zM596 294q-21 0 -35.5 14.5t-14.5 34.5q0 21 14.5 35t35.5 14q22 0 36.5 -14t14.5 -35q0 -20 -14.5 -34.5t-36.5 -14.5zM234 391h38q22 0 36.5 -13.5t14.5 -34.5
q0 -20 -14.5 -33.5t-36.5 -13.5h-38v95zM409 391v-20h-48v-18h42v-20h-42v-17h48v-20h-71v95h71zM473 311l-22 33v-48h-23v95h18l33 -51l34 51h17v-95h-23v48l-22 -33h-12zM596 371q-12 0 -19 -8t-7 -20q0 -11 7 -19t19 -8q11 0 18.5 8t7.5 19t-7.5 19.5t-18.5 8.5zM258 316
h14q12 0 19.5 8t7.5 19t-7.5 19t-19.5 8h-14v-54z" />
    <glyph glyph-name="Gcommaaccent" unicode="&#x122;" 
d="M770 680v-680h-670v680h670zM170 70h480l-176 171h114l112 -109v478h-480l178 -173h-114l-114 111v-478zM596 294q-21 0 -35.5 14.5t-14.5 34.5q0 21 14.5 35t35.5 14q22 0 36.5 -14t14.5 -35q0 -20 -14.5 -34.5t-36.5 -14.5zM234 391h38q22 0 36.5 -13.5t14.5 -34.5
q0 -20 -14.5 -33.5t-36.5 -13.5h-38v95zM409 391v-20h-48v-18h42v-20h-42v-17h48v-20h-71v95h71zM473 311l-22 33v-48h-23v95h18l33 -51l34 51h17v-95h-23v48l-22 -33h-12zM596 371q-12 0 -19 -8t-7 -20q0 -11 7 -19t19 -8q11 0 18.5 8t7.5 19t-7.5 19.5t-18.5 8.5zM258 316
h14q12 0 19.5 8t7.5 19t-7.5 19t-19.5 8h-14v-54z" />
    <glyph glyph-name="gcommaaccent" unicode="&#x123;" 
d="M770 680v-680h-670v680h670zM170 70h480l-176 171h114l112 -109v478h-480l178 -173h-114l-114 111v-478zM596 294q-21 0 -35.5 14.5t-14.5 34.5q0 21 14.5 35t35.5 14q22 0 36.5 -14t14.5 -35q0 -20 -14.5 -34.5t-36.5 -14.5zM234 391h38q22 0 36.5 -13.5t14.5 -34.5
q0 -20 -14.5 -33.5t-36.5 -13.5h-38v95zM409 391v-20h-48v-18h42v-20h-42v-17h48v-20h-71v95h71zM473 311l-22 33v-48h-23v95h18l33 -51l34 51h17v-95h-23v48l-22 -33h-12zM596 371q-12 0 -19 -8t-7 -20q0 -11 7 -19t19 -8q11 0 18.5 8t7.5 19t-7.5 19.5t-18.5 8.5zM258 316
h14q12 0 19.5 8t7.5 19t-7.5 19t-19.5 8h-14v-54z" />
    <glyph glyph-name="Hbar" unicode="&#x126;" 
d="M770 680v-680h-670v680h670zM170 70h480l-176 171h114l112 -109v478h-480l178 -173h-114l-114 111v-478zM596 294q-21 0 -35.5 14.5t-14.5 34.5q0 21 14.5 35t35.5 14q22 0 36.5 -14t14.5 -35q0 -20 -14.5 -34.5t-36.5 -14.5zM234 391h38q22 0 36.5 -13.5t14.5 -34.5
q0 -20 -14.5 -33.5t-36.5 -13.5h-38v95zM409 391v-20h-48v-18h42v-20h-42v-17h48v-20h-71v95h71zM473 311l-22 33v-48h-23v95h18l33 -51l34 51h17v-95h-23v48l-22 -33h-12zM596 371q-12 0 -19 -8t-7 -20q0 -11 7 -19t19 -8q11 0 18.5 8t7.5 19t-7.5 19.5t-18.5 8.5zM258 316
h14q12 0 19.5 8t7.5 19t-7.5 19t-19.5 8h-14v-54z" />
    <glyph glyph-name="hbar" unicode="&#x127;" 
d="M770 680v-680h-670v680h670zM170 70h480l-176 171h114l112 -109v478h-480l178 -173h-114l-114 111v-478zM596 294q-21 0 -35.5 14.5t-14.5 34.5q0 21 14.5 35t35.5 14q22 0 36.5 -14t14.5 -35q0 -20 -14.5 -34.5t-36.5 -14.5zM234 391h38q22 0 36.5 -13.5t14.5 -34.5
q0 -20 -14.5 -33.5t-36.5 -13.5h-38v95zM409 391v-20h-48v-18h42v-20h-42v-17h48v-20h-71v95h71zM473 311l-22 33v-48h-23v95h18l33 -51l34 51h17v-95h-23v48l-22 -33h-12zM596 371q-12 0 -19 -8t-7 -20q0 -11 7 -19t19 -8q11 0 18.5 8t7.5 19t-7.5 19.5t-18.5 8.5zM258 316
h14q12 0 19.5 8t7.5 19t-7.5 19t-19.5 8h-14v-54z" />
    <glyph glyph-name="Imacron" unicode="&#x12a;" 
d="M770 680v-680h-670v680h670zM170 70h480l-176 171h114l112 -109v478h-480l178 -173h-114l-114 111v-478zM596 294q-21 0 -35.5 14.5t-14.5 34.5q0 21 14.5 35t35.5 14q22 0 36.5 -14t14.5 -35q0 -20 -14.5 -34.5t-36.5 -14.5zM234 391h38q22 0 36.5 -13.5t14.5 -34.5
q0 -20 -14.5 -33.5t-36.5 -13.5h-38v95zM409 391v-20h-48v-18h42v-20h-42v-17h48v-20h-71v95h71zM473 311l-22 33v-48h-23v95h18l33 -51l34 51h17v-95h-23v48l-22 -33h-12zM596 371q-12 0 -19 -8t-7 -20q0 -11 7 -19t19 -8q11 0 18.5 8t7.5 19t-7.5 19.5t-18.5 8.5zM258 316
h14q12 0 19.5 8t7.5 19t-7.5 19t-19.5 8h-14v-54z" />
    <glyph glyph-name="imacron" unicode="&#x12b;" 
d="M770 680v-680h-670v680h670zM170 70h480l-176 171h114l112 -109v478h-480l178 -173h-114l-114 111v-478zM596 294q-21 0 -35.5 14.5t-14.5 34.5q0 21 14.5 35t35.5 14q22 0 36.5 -14t14.5 -35q0 -20 -14.5 -34.5t-36.5 -14.5zM234 391h38q22 0 36.5 -13.5t14.5 -34.5
q0 -20 -14.5 -33.5t-36.5 -13.5h-38v95zM409 391v-20h-48v-18h42v-20h-42v-17h48v-20h-71v95h71zM473 311l-22 33v-48h-23v95h18l33 -51l34 51h17v-95h-23v48l-22 -33h-12zM596 371q-12 0 -19 -8t-7 -20q0 -11 7 -19t19 -8q11 0 18.5 8t7.5 19t-7.5 19.5t-18.5 8.5zM258 316
h14q12 0 19.5 8t7.5 19t-7.5 19t-19.5 8h-14v-54z" />
    <glyph glyph-name="Iogonek" unicode="&#x12e;" 
d="M770 680v-680h-670v680h670zM170 70h480l-176 171h114l112 -109v478h-480l178 -173h-114l-114 111v-478zM596 294q-21 0 -35.5 14.5t-14.5 34.5q0 21 14.5 35t35.5 14q22 0 36.5 -14t14.5 -35q0 -20 -14.5 -34.5t-36.5 -14.5zM234 391h38q22 0 36.5 -13.5t14.5 -34.5
q0 -20 -14.5 -33.5t-36.5 -13.5h-38v95zM409 391v-20h-48v-18h42v-20h-42v-17h48v-20h-71v95h71zM473 311l-22 33v-48h-23v95h18l33 -51l34 51h17v-95h-23v48l-22 -33h-12zM596 371q-12 0 -19 -8t-7 -20q0 -11 7 -19t19 -8q11 0 18.5 8t7.5 19t-7.5 19.5t-18.5 8.5zM258 316
h14q12 0 19.5 8t7.5 19t-7.5 19t-19.5 8h-14v-54z" />
    <glyph glyph-name="iogonek" unicode="&#x12f;" 
d="M770 680v-680h-670v680h670zM170 70h480l-176 171h114l112 -109v478h-480l178 -173h-114l-114 111v-478zM596 294q-21 0 -35.5 14.5t-14.5 34.5q0 21 14.5 35t35.5 14q22 0 36.5 -14t14.5 -35q0 -20 -14.5 -34.5t-36.5 -14.5zM234 391h38q22 0 36.5 -13.5t14.5 -34.5
q0 -20 -14.5 -33.5t-36.5 -13.5h-38v95zM409 391v-20h-48v-18h42v-20h-42v-17h48v-20h-71v95h71zM473 311l-22 33v-48h-23v95h18l33 -51l34 51h17v-95h-23v48l-22 -33h-12zM596 371q-12 0 -19 -8t-7 -20q0 -11 7 -19t19 -8q11 0 18.5 8t7.5 19t-7.5 19.5t-18.5 8.5zM258 316
h14q12 0 19.5 8t7.5 19t-7.5 19t-19.5 8h-14v-54z" />
    <glyph glyph-name="Idotaccent" unicode="&#x130;" 
d="M770 680v-680h-670v680h670zM170 70h480l-176 171h114l112 -109v478h-480l178 -173h-114l-114 111v-478zM596 294q-21 0 -35.5 14.5t-14.5 34.5q0 21 14.5 35t35.5 14q22 0 36.5 -14t14.5 -35q0 -20 -14.5 -34.5t-36.5 -14.5zM234 391h38q22 0 36.5 -13.5t14.5 -34.5
q0 -20 -14.5 -33.5t-36.5 -13.5h-38v95zM409 391v-20h-48v-18h42v-20h-42v-17h48v-20h-71v95h71zM473 311l-22 33v-48h-23v95h18l33 -51l34 51h17v-95h-23v48l-22 -33h-12zM596 371q-12 0 -19 -8t-7 -20q0 -11 7 -19t19 -8q11 0 18.5 8t7.5 19t-7.5 19.5t-18.5 8.5zM258 316
h14q12 0 19.5 8t7.5 19t-7.5 19t-19.5 8h-14v-54z" />
    <glyph glyph-name="dotlessi" unicode="&#x131;" 
d="M770 680v-680h-670v680h670zM170 70h480l-176 171h114l112 -109v478h-480l178 -173h-114l-114 111v-478zM596 294q-21 0 -35.5 14.5t-14.5 34.5q0 21 14.5 35t35.5 14q22 0 36.5 -14t14.5 -35q0 -20 -14.5 -34.5t-36.5 -14.5zM234 391h38q22 0 36.5 -13.5t14.5 -34.5
q0 -20 -14.5 -33.5t-36.5 -13.5h-38v95zM409 391v-20h-48v-18h42v-20h-42v-17h48v-20h-71v95h71zM473 311l-22 33v-48h-23v95h18l33 -51l34 51h17v-95h-23v48l-22 -33h-12zM596 371q-12 0 -19 -8t-7 -20q0 -11 7 -19t19 -8q11 0 18.5 8t7.5 19t-7.5 19.5t-18.5 8.5zM258 316
h14q12 0 19.5 8t7.5 19t-7.5 19t-19.5 8h-14v-54z" />
    <glyph glyph-name="IJ" unicode="&#x132;" 
d="M770 680v-680h-670v680h670zM170 70h480l-176 171h114l112 -109v478h-480l178 -173h-114l-114 111v-478zM596 294q-21 0 -35.5 14.5t-14.5 34.5q0 21 14.5 35t35.5 14q22 0 36.5 -14t14.5 -35q0 -20 -14.5 -34.5t-36.5 -14.5zM234 391h38q22 0 36.5 -13.5t14.5 -34.5
q0 -20 -14.5 -33.5t-36.5 -13.5h-38v95zM409 391v-20h-48v-18h42v-20h-42v-17h48v-20h-71v95h71zM473 311l-22 33v-48h-23v95h18l33 -51l34 51h17v-95h-23v48l-22 -33h-12zM596 371q-12 0 -19 -8t-7 -20q0 -11 7 -19t19 -8q11 0 18.5 8t7.5 19t-7.5 19.5t-18.5 8.5zM258 316
h14q12 0 19.5 8t7.5 19t-7.5 19t-19.5 8h-14v-54z" />
    <glyph glyph-name="ij" unicode="&#x133;" 
d="M770 680v-680h-670v680h670zM170 70h480l-176 171h114l112 -109v478h-480l178 -173h-114l-114 111v-478zM596 294q-21 0 -35.5 14.5t-14.5 34.5q0 21 14.5 35t35.5 14q22 0 36.5 -14t14.5 -35q0 -20 -14.5 -34.5t-36.5 -14.5zM234 391h38q22 0 36.5 -13.5t14.5 -34.5
q0 -20 -14.5 -33.5t-36.5 -13.5h-38v95zM409 391v-20h-48v-18h42v-20h-42v-17h48v-20h-71v95h71zM473 311l-22 33v-48h-23v95h18l33 -51l34 51h17v-95h-23v48l-22 -33h-12zM596 371q-12 0 -19 -8t-7 -20q0 -11 7 -19t19 -8q11 0 18.5 8t7.5 19t-7.5 19.5t-18.5 8.5zM258 316
h14q12 0 19.5 8t7.5 19t-7.5 19t-19.5 8h-14v-54z" />
    <glyph glyph-name="Kcommaaccent" unicode="&#x136;" 
d="M770 680v-680h-670v680h670zM170 70h480l-176 171h114l112 -109v478h-480l178 -173h-114l-114 111v-478zM596 294q-21 0 -35.5 14.5t-14.5 34.5q0 21 14.5 35t35.5 14q22 0 36.5 -14t14.5 -35q0 -20 -14.5 -34.5t-36.5 -14.5zM234 391h38q22 0 36.5 -13.5t14.5 -34.5
q0 -20 -14.5 -33.5t-36.5 -13.5h-38v95zM409 391v-20h-48v-18h42v-20h-42v-17h48v-20h-71v95h71zM473 311l-22 33v-48h-23v95h18l33 -51l34 51h17v-95h-23v48l-22 -33h-12zM596 371q-12 0 -19 -8t-7 -20q0 -11 7 -19t19 -8q11 0 18.5 8t7.5 19t-7.5 19.5t-18.5 8.5zM258 316
h14q12 0 19.5 8t7.5 19t-7.5 19t-19.5 8h-14v-54z" />
    <glyph glyph-name="kcommaaccent" unicode="&#x137;" 
d="M770 680v-680h-670v680h670zM170 70h480l-176 171h114l112 -109v478h-480l178 -173h-114l-114 111v-478zM596 294q-21 0 -35.5 14.5t-14.5 34.5q0 21 14.5 35t35.5 14q22 0 36.5 -14t14.5 -35q0 -20 -14.5 -34.5t-36.5 -14.5zM234 391h38q22 0 36.5 -13.5t14.5 -34.5
q0 -20 -14.5 -33.5t-36.5 -13.5h-38v95zM409 391v-20h-48v-18h42v-20h-42v-17h48v-20h-71v95h71zM473 311l-22 33v-48h-23v95h18l33 -51l34 51h17v-95h-23v48l-22 -33h-12zM596 371q-12 0 -19 -8t-7 -20q0 -11 7 -19t19 -8q11 0 18.5 8t7.5 19t-7.5 19.5t-18.5 8.5zM258 316
h14q12 0 19.5 8t7.5 19t-7.5 19t-19.5 8h-14v-54z" />
    <glyph glyph-name="Lacute" unicode="&#x139;" 
d="M770 680v-680h-670v680h670zM170 70h480l-176 171h114l112 -109v478h-480l178 -173h-114l-114 111v-478zM596 294q-21 0 -35.5 14.5t-14.5 34.5q0 21 14.5 35t35.5 14q22 0 36.5 -14t14.5 -35q0 -20 -14.5 -34.5t-36.5 -14.5zM234 391h38q22 0 36.5 -13.5t14.5 -34.5
q0 -20 -14.5 -33.5t-36.5 -13.5h-38v95zM409 391v-20h-48v-18h42v-20h-42v-17h48v-20h-71v95h71zM473 311l-22 33v-48h-23v95h18l33 -51l34 51h17v-95h-23v48l-22 -33h-12zM596 371q-12 0 -19 -8t-7 -20q0 -11 7 -19t19 -8q11 0 18.5 8t7.5 19t-7.5 19.5t-18.5 8.5zM258 316
h14q12 0 19.5 8t7.5 19t-7.5 19t-19.5 8h-14v-54z" />
    <glyph glyph-name="lacute" unicode="&#x13a;" 
d="M770 680v-680h-670v680h670zM170 70h480l-176 171h114l112 -109v478h-480l178 -173h-114l-114 111v-478zM596 294q-21 0 -35.5 14.5t-14.5 34.5q0 21 14.5 35t35.5 14q22 0 36.5 -14t14.5 -35q0 -20 -14.5 -34.5t-36.5 -14.5zM234 391h38q22 0 36.5 -13.5t14.5 -34.5
q0 -20 -14.5 -33.5t-36.5 -13.5h-38v95zM409 391v-20h-48v-18h42v-20h-42v-17h48v-20h-71v95h71zM473 311l-22 33v-48h-23v95h18l33 -51l34 51h17v-95h-23v48l-22 -33h-12zM596 371q-12 0 -19 -8t-7 -20q0 -11 7 -19t19 -8q11 0 18.5 8t7.5 19t-7.5 19.5t-18.5 8.5zM258 316
h14q12 0 19.5 8t7.5 19t-7.5 19t-19.5 8h-14v-54z" />
    <glyph glyph-name="Lcommaaccent" unicode="&#x13b;" 
d="M770 680v-680h-670v680h670zM170 70h480l-176 171h114l112 -109v478h-480l178 -173h-114l-114 111v-478zM596 294q-21 0 -35.5 14.5t-14.5 34.5q0 21 14.5 35t35.5 14q22 0 36.5 -14t14.5 -35q0 -20 -14.5 -34.5t-36.5 -14.5zM234 391h38q22 0 36.5 -13.5t14.5 -34.5
q0 -20 -14.5 -33.5t-36.5 -13.5h-38v95zM409 391v-20h-48v-18h42v-20h-42v-17h48v-20h-71v95h71zM473 311l-22 33v-48h-23v95h18l33 -51l34 51h17v-95h-23v48l-22 -33h-12zM596 371q-12 0 -19 -8t-7 -20q0 -11 7 -19t19 -8q11 0 18.5 8t7.5 19t-7.5 19.5t-18.5 8.5zM258 316
h14q12 0 19.5 8t7.5 19t-7.5 19t-19.5 8h-14v-54z" />
    <glyph glyph-name="lcommaaccent" unicode="&#x13c;" 
d="M770 680v-680h-670v680h670zM170 70h480l-176 171h114l112 -109v478h-480l178 -173h-114l-114 111v-478zM596 294q-21 0 -35.5 14.5t-14.5 34.5q0 21 14.5 35t35.5 14q22 0 36.5 -14t14.5 -35q0 -20 -14.5 -34.5t-36.5 -14.5zM234 391h38q22 0 36.5 -13.5t14.5 -34.5
q0 -20 -14.5 -33.5t-36.5 -13.5h-38v95zM409 391v-20h-48v-18h42v-20h-42v-17h48v-20h-71v95h71zM473 311l-22 33v-48h-23v95h18l33 -51l34 51h17v-95h-23v48l-22 -33h-12zM596 371q-12 0 -19 -8t-7 -20q0 -11 7 -19t19 -8q11 0 18.5 8t7.5 19t-7.5 19.5t-18.5 8.5zM258 316
h14q12 0 19.5 8t7.5 19t-7.5 19t-19.5 8h-14v-54z" />
    <glyph glyph-name="Lcaron" unicode="&#x13d;" 
d="M770 680v-680h-670v680h670zM170 70h480l-176 171h114l112 -109v478h-480l178 -173h-114l-114 111v-478zM596 294q-21 0 -35.5 14.5t-14.5 34.5q0 21 14.5 35t35.5 14q22 0 36.5 -14t14.5 -35q0 -20 -14.5 -34.5t-36.5 -14.5zM234 391h38q22 0 36.5 -13.5t14.5 -34.5
q0 -20 -14.5 -33.5t-36.5 -13.5h-38v95zM409 391v-20h-48v-18h42v-20h-42v-17h48v-20h-71v95h71zM473 311l-22 33v-48h-23v95h18l33 -51l34 51h17v-95h-23v48l-22 -33h-12zM596 371q-12 0 -19 -8t-7 -20q0 -11 7 -19t19 -8q11 0 18.5 8t7.5 19t-7.5 19.5t-18.5 8.5zM258 316
h14q12 0 19.5 8t7.5 19t-7.5 19t-19.5 8h-14v-54z" />
    <glyph glyph-name="lcaron" unicode="&#x13e;" 
d="M770 680v-680h-670v680h670zM170 70h480l-176 171h114l112 -109v478h-480l178 -173h-114l-114 111v-478zM596 294q-21 0 -35.5 14.5t-14.5 34.5q0 21 14.5 35t35.5 14q22 0 36.5 -14t14.5 -35q0 -20 -14.5 -34.5t-36.5 -14.5zM234 391h38q22 0 36.5 -13.5t14.5 -34.5
q0 -20 -14.5 -33.5t-36.5 -13.5h-38v95zM409 391v-20h-48v-18h42v-20h-42v-17h48v-20h-71v95h71zM473 311l-22 33v-48h-23v95h18l33 -51l34 51h17v-95h-23v48l-22 -33h-12zM596 371q-12 0 -19 -8t-7 -20q0 -11 7 -19t19 -8q11 0 18.5 8t7.5 19t-7.5 19.5t-18.5 8.5zM258 316
h14q12 0 19.5 8t7.5 19t-7.5 19t-19.5 8h-14v-54z" />
    <glyph glyph-name="Ldot" unicode="&#x13f;" 
d="M770 680v-680h-670v680h670zM170 70h480l-176 171h114l112 -109v478h-480l178 -173h-114l-114 111v-478zM596 294q-21 0 -35.5 14.5t-14.5 34.5q0 21 14.5 35t35.5 14q22 0 36.5 -14t14.5 -35q0 -20 -14.5 -34.5t-36.5 -14.5zM234 391h38q22 0 36.5 -13.5t14.5 -34.5
q0 -20 -14.5 -33.5t-36.5 -13.5h-38v95zM409 391v-20h-48v-18h42v-20h-42v-17h48v-20h-71v95h71zM473 311l-22 33v-48h-23v95h18l33 -51l34 51h17v-95h-23v48l-22 -33h-12zM596 371q-12 0 -19 -8t-7 -20q0 -11 7 -19t19 -8q11 0 18.5 8t7.5 19t-7.5 19.5t-18.5 8.5zM258 316
h14q12 0 19.5 8t7.5 19t-7.5 19t-19.5 8h-14v-54z" />
    <glyph glyph-name="ldot" unicode="&#x140;" 
d="M770 680v-680h-670v680h670zM170 70h480l-176 171h114l112 -109v478h-480l178 -173h-114l-114 111v-478zM596 294q-21 0 -35.5 14.5t-14.5 34.5q0 21 14.5 35t35.5 14q22 0 36.5 -14t14.5 -35q0 -20 -14.5 -34.5t-36.5 -14.5zM234 391h38q22 0 36.5 -13.5t14.5 -34.5
q0 -20 -14.5 -33.5t-36.5 -13.5h-38v95zM409 391v-20h-48v-18h42v-20h-42v-17h48v-20h-71v95h71zM473 311l-22 33v-48h-23v95h18l33 -51l34 51h17v-95h-23v48l-22 -33h-12zM596 371q-12 0 -19 -8t-7 -20q0 -11 7 -19t19 -8q11 0 18.5 8t7.5 19t-7.5 19.5t-18.5 8.5zM258 316
h14q12 0 19.5 8t7.5 19t-7.5 19t-19.5 8h-14v-54z" />
    <glyph glyph-name="Lslash" unicode="&#x141;" 
d="M770 680v-680h-670v680h670zM170 70h480l-176 171h114l112 -109v478h-480l178 -173h-114l-114 111v-478zM596 294q-21 0 -35.5 14.5t-14.5 34.5q0 21 14.5 35t35.5 14q22 0 36.5 -14t14.5 -35q0 -20 -14.5 -34.5t-36.5 -14.5zM234 391h38q22 0 36.5 -13.5t14.5 -34.5
q0 -20 -14.5 -33.5t-36.5 -13.5h-38v95zM409 391v-20h-48v-18h42v-20h-42v-17h48v-20h-71v95h71zM473 311l-22 33v-48h-23v95h18l33 -51l34 51h17v-95h-23v48l-22 -33h-12zM596 371q-12 0 -19 -8t-7 -20q0 -11 7 -19t19 -8q11 0 18.5 8t7.5 19t-7.5 19.5t-18.5 8.5zM258 316
h14q12 0 19.5 8t7.5 19t-7.5 19t-19.5 8h-14v-54z" />
    <glyph glyph-name="lslash" unicode="&#x142;" 
d="M770 680v-680h-670v680h670zM170 70h480l-176 171h114l112 -109v478h-480l178 -173h-114l-114 111v-478zM596 294q-21 0 -35.5 14.5t-14.5 34.5q0 21 14.5 35t35.5 14q22 0 36.5 -14t14.5 -35q0 -20 -14.5 -34.5t-36.5 -14.5zM234 391h38q22 0 36.5 -13.5t14.5 -34.5
q0 -20 -14.5 -33.5t-36.5 -13.5h-38v95zM409 391v-20h-48v-18h42v-20h-42v-17h48v-20h-71v95h71zM473 311l-22 33v-48h-23v95h18l33 -51l34 51h17v-95h-23v48l-22 -33h-12zM596 371q-12 0 -19 -8t-7 -20q0 -11 7 -19t19 -8q11 0 18.5 8t7.5 19t-7.5 19.5t-18.5 8.5zM258 316
h14q12 0 19.5 8t7.5 19t-7.5 19t-19.5 8h-14v-54z" />
    <glyph glyph-name="Nacute" unicode="&#x143;" 
d="M770 680v-680h-670v680h670zM170 70h480l-176 171h114l112 -109v478h-480l178 -173h-114l-114 111v-478zM596 294q-21 0 -35.5 14.5t-14.5 34.5q0 21 14.5 35t35.5 14q22 0 36.5 -14t14.5 -35q0 -20 -14.5 -34.5t-36.5 -14.5zM234 391h38q22 0 36.5 -13.5t14.5 -34.5
q0 -20 -14.5 -33.5t-36.5 -13.5h-38v95zM409 391v-20h-48v-18h42v-20h-42v-17h48v-20h-71v95h71zM473 311l-22 33v-48h-23v95h18l33 -51l34 51h17v-95h-23v48l-22 -33h-12zM596 371q-12 0 -19 -8t-7 -20q0 -11 7 -19t19 -8q11 0 18.5 8t7.5 19t-7.5 19.5t-18.5 8.5zM258 316
h14q12 0 19.5 8t7.5 19t-7.5 19t-19.5 8h-14v-54z" />
    <glyph glyph-name="nacute" unicode="&#x144;" 
d="M770 680v-680h-670v680h670zM170 70h480l-176 171h114l112 -109v478h-480l178 -173h-114l-114 111v-478zM596 294q-21 0 -35.5 14.5t-14.5 34.5q0 21 14.5 35t35.5 14q22 0 36.5 -14t14.5 -35q0 -20 -14.5 -34.5t-36.5 -14.5zM234 391h38q22 0 36.5 -13.5t14.5 -34.5
q0 -20 -14.5 -33.5t-36.5 -13.5h-38v95zM409 391v-20h-48v-18h42v-20h-42v-17h48v-20h-71v95h71zM473 311l-22 33v-48h-23v95h18l33 -51l34 51h17v-95h-23v48l-22 -33h-12zM596 371q-12 0 -19 -8t-7 -20q0 -11 7 -19t19 -8q11 0 18.5 8t7.5 19t-7.5 19.5t-18.5 8.5zM258 316
h14q12 0 19.5 8t7.5 19t-7.5 19t-19.5 8h-14v-54z" />
    <glyph glyph-name="Ncommaaccent" unicode="&#x145;" 
d="M770 680v-680h-670v680h670zM170 70h480l-176 171h114l112 -109v478h-480l178 -173h-114l-114 111v-478zM596 294q-21 0 -35.5 14.5t-14.5 34.5q0 21 14.5 35t35.5 14q22 0 36.5 -14t14.5 -35q0 -20 -14.5 -34.5t-36.5 -14.5zM234 391h38q22 0 36.5 -13.5t14.5 -34.5
q0 -20 -14.5 -33.5t-36.5 -13.5h-38v95zM409 391v-20h-48v-18h42v-20h-42v-17h48v-20h-71v95h71zM473 311l-22 33v-48h-23v95h18l33 -51l34 51h17v-95h-23v48l-22 -33h-12zM596 371q-12 0 -19 -8t-7 -20q0 -11 7 -19t19 -8q11 0 18.5 8t7.5 19t-7.5 19.5t-18.5 8.5zM258 316
h14q12 0 19.5 8t7.5 19t-7.5 19t-19.5 8h-14v-54z" />
    <glyph glyph-name="ncommaaccent" unicode="&#x146;" 
d="M770 680v-680h-670v680h670zM170 70h480l-176 171h114l112 -109v478h-480l178 -173h-114l-114 111v-478zM596 294q-21 0 -35.5 14.5t-14.5 34.5q0 21 14.5 35t35.5 14q22 0 36.5 -14t14.5 -35q0 -20 -14.5 -34.5t-36.5 -14.5zM234 391h38q22 0 36.5 -13.5t14.5 -34.5
q0 -20 -14.5 -33.5t-36.5 -13.5h-38v95zM409 391v-20h-48v-18h42v-20h-42v-17h48v-20h-71v95h71zM473 311l-22 33v-48h-23v95h18l33 -51l34 51h17v-95h-23v48l-22 -33h-12zM596 371q-12 0 -19 -8t-7 -20q0 -11 7 -19t19 -8q11 0 18.5 8t7.5 19t-7.5 19.5t-18.5 8.5zM258 316
h14q12 0 19.5 8t7.5 19t-7.5 19t-19.5 8h-14v-54z" />
    <glyph glyph-name="Ncaron" unicode="&#x147;" 
d="M770 680v-680h-670v680h670zM170 70h480l-176 171h114l112 -109v478h-480l178 -173h-114l-114 111v-478zM596 294q-21 0 -35.5 14.5t-14.5 34.5q0 21 14.5 35t35.5 14q22 0 36.5 -14t14.5 -35q0 -20 -14.5 -34.5t-36.5 -14.5zM234 391h38q22 0 36.5 -13.5t14.5 -34.5
q0 -20 -14.5 -33.5t-36.5 -13.5h-38v95zM409 391v-20h-48v-18h42v-20h-42v-17h48v-20h-71v95h71zM473 311l-22 33v-48h-23v95h18l33 -51l34 51h17v-95h-23v48l-22 -33h-12zM596 371q-12 0 -19 -8t-7 -20q0 -11 7 -19t19 -8q11 0 18.5 8t7.5 19t-7.5 19.5t-18.5 8.5zM258 316
h14q12 0 19.5 8t7.5 19t-7.5 19t-19.5 8h-14v-54z" />
    <glyph glyph-name="ncaron" unicode="&#x148;" 
d="M770 680v-680h-670v680h670zM170 70h480l-176 171h114l112 -109v478h-480l178 -173h-114l-114 111v-478zM596 294q-21 0 -35.5 14.5t-14.5 34.5q0 21 14.5 35t35.5 14q22 0 36.5 -14t14.5 -35q0 -20 -14.5 -34.5t-36.5 -14.5zM234 391h38q22 0 36.5 -13.5t14.5 -34.5
q0 -20 -14.5 -33.5t-36.5 -13.5h-38v95zM409 391v-20h-48v-18h42v-20h-42v-17h48v-20h-71v95h71zM473 311l-22 33v-48h-23v95h18l33 -51l34 51h17v-95h-23v48l-22 -33h-12zM596 371q-12 0 -19 -8t-7 -20q0 -11 7 -19t19 -8q11 0 18.5 8t7.5 19t-7.5 19.5t-18.5 8.5zM258 316
h14q12 0 19.5 8t7.5 19t-7.5 19t-19.5 8h-14v-54z" />
    <glyph glyph-name="Omacron" unicode="&#x14c;" 
d="M770 680v-680h-670v680h670zM170 70h480l-176 171h114l112 -109v478h-480l178 -173h-114l-114 111v-478zM596 294q-21 0 -35.5 14.5t-14.5 34.5q0 21 14.5 35t35.5 14q22 0 36.5 -14t14.5 -35q0 -20 -14.5 -34.5t-36.5 -14.5zM234 391h38q22 0 36.5 -13.5t14.5 -34.5
q0 -20 -14.5 -33.5t-36.5 -13.5h-38v95zM409 391v-20h-48v-18h42v-20h-42v-17h48v-20h-71v95h71zM473 311l-22 33v-48h-23v95h18l33 -51l34 51h17v-95h-23v48l-22 -33h-12zM596 371q-12 0 -19 -8t-7 -20q0 -11 7 -19t19 -8q11 0 18.5 8t7.5 19t-7.5 19.5t-18.5 8.5zM258 316
h14q12 0 19.5 8t7.5 19t-7.5 19t-19.5 8h-14v-54z" />
    <glyph glyph-name="omacron" unicode="&#x14d;" 
d="M770 680v-680h-670v680h670zM170 70h480l-176 171h114l112 -109v478h-480l178 -173h-114l-114 111v-478zM596 294q-21 0 -35.5 14.5t-14.5 34.5q0 21 14.5 35t35.5 14q22 0 36.5 -14t14.5 -35q0 -20 -14.5 -34.5t-36.5 -14.5zM234 391h38q22 0 36.5 -13.5t14.5 -34.5
q0 -20 -14.5 -33.5t-36.5 -13.5h-38v95zM409 391v-20h-48v-18h42v-20h-42v-17h48v-20h-71v95h71zM473 311l-22 33v-48h-23v95h18l33 -51l34 51h17v-95h-23v48l-22 -33h-12zM596 371q-12 0 -19 -8t-7 -20q0 -11 7 -19t19 -8q11 0 18.5 8t7.5 19t-7.5 19.5t-18.5 8.5zM258 316
h14q12 0 19.5 8t7.5 19t-7.5 19t-19.5 8h-14v-54z" />
    <glyph glyph-name="Ohungarumlaut" unicode="&#x150;" 
d="M770 680v-680h-670v680h670zM170 70h480l-176 171h114l112 -109v478h-480l178 -173h-114l-114 111v-478zM596 294q-21 0 -35.5 14.5t-14.5 34.5q0 21 14.5 35t35.5 14q22 0 36.5 -14t14.5 -35q0 -20 -14.5 -34.5t-36.5 -14.5zM234 391h38q22 0 36.5 -13.5t14.5 -34.5
q0 -20 -14.5 -33.5t-36.5 -13.5h-38v95zM409 391v-20h-48v-18h42v-20h-42v-17h48v-20h-71v95h71zM473 311l-22 33v-48h-23v95h18l33 -51l34 51h17v-95h-23v48l-22 -33h-12zM596 371q-12 0 -19 -8t-7 -20q0 -11 7 -19t19 -8q11 0 18.5 8t7.5 19t-7.5 19.5t-18.5 8.5zM258 316
h14q12 0 19.5 8t7.5 19t-7.5 19t-19.5 8h-14v-54z" />
    <glyph glyph-name="ohungarumlaut" unicode="&#x151;" 
d="M770 680v-680h-670v680h670zM170 70h480l-176 171h114l112 -109v478h-480l178 -173h-114l-114 111v-478zM596 294q-21 0 -35.5 14.5t-14.5 34.5q0 21 14.5 35t35.5 14q22 0 36.5 -14t14.5 -35q0 -20 -14.5 -34.5t-36.5 -14.5zM234 391h38q22 0 36.5 -13.5t14.5 -34.5
q0 -20 -14.5 -33.5t-36.5 -13.5h-38v95zM409 391v-20h-48v-18h42v-20h-42v-17h48v-20h-71v95h71zM473 311l-22 33v-48h-23v95h18l33 -51l34 51h17v-95h-23v48l-22 -33h-12zM596 371q-12 0 -19 -8t-7 -20q0 -11 7 -19t19 -8q11 0 18.5 8t7.5 19t-7.5 19.5t-18.5 8.5zM258 316
h14q12 0 19.5 8t7.5 19t-7.5 19t-19.5 8h-14v-54z" />
    <glyph glyph-name="OE" unicode="&#x152;" horiz-adv-x="986" 
d="M604 533v-124h301v-144h-301v-118h345v-147h-551q-164 0 -269 95.5t-105 244.5t105 244.5t269 95.5h551v-147h-345zM435 158v364h-37q-92 0 -147.5 -50.5t-55.5 -131.5t55.5 -131.5t147.5 -50.5h37z" />
    <glyph glyph-name="oe" unicode="&#x153;" horiz-adv-x="946" 
d="M912 253q0 -37 -3 -55l1 -3h-346q23 -78 109 -78q52 0 74 35h160q-17 -75 -81.5 -119t-154.5 -44q-115 0 -188 68q-75 -72 -187 -72q-114 0 -188.5 73.5t-74.5 184.5q0 110 74 181.5t189 71.5q111 0 185 -68q71 68 183 68q107 0 177.5 -67.5t70.5 -175.5zM664 371
q-82 0 -102 -81h198q-14 81 -96 81zM297 125q48 0 78.5 33.5t30.5 83.5q0 48 -30.5 81t-78.5 33q-49 0 -79.5 -33t-30.5 -81q0 -50 30.5 -83.5t79.5 -33.5z" />
    <glyph glyph-name="Racute" unicode="&#x154;" 
d="M770 680v-680h-670v680h670zM170 70h480l-176 171h114l112 -109v478h-480l178 -173h-114l-114 111v-478zM596 294q-21 0 -35.5 14.5t-14.5 34.5q0 21 14.5 35t35.5 14q22 0 36.5 -14t14.5 -35q0 -20 -14.5 -34.5t-36.5 -14.5zM234 391h38q22 0 36.5 -13.5t14.5 -34.5
q0 -20 -14.5 -33.5t-36.5 -13.5h-38v95zM409 391v-20h-48v-18h42v-20h-42v-17h48v-20h-71v95h71zM473 311l-22 33v-48h-23v95h18l33 -51l34 51h17v-95h-23v48l-22 -33h-12zM596 371q-12 0 -19 -8t-7 -20q0 -11 7 -19t19 -8q11 0 18.5 8t7.5 19t-7.5 19.5t-18.5 8.5zM258 316
h14q12 0 19.5 8t7.5 19t-7.5 19t-19.5 8h-14v-54z" />
    <glyph glyph-name="racute" unicode="&#x155;" 
d="M770 680v-680h-670v680h670zM170 70h480l-176 171h114l112 -109v478h-480l178 -173h-114l-114 111v-478zM596 294q-21 0 -35.5 14.5t-14.5 34.5q0 21 14.5 35t35.5 14q22 0 36.5 -14t14.5 -35q0 -20 -14.5 -34.5t-36.5 -14.5zM234 391h38q22 0 36.5 -13.5t14.5 -34.5
q0 -20 -14.5 -33.5t-36.5 -13.5h-38v95zM409 391v-20h-48v-18h42v-20h-42v-17h48v-20h-71v95h71zM473 311l-22 33v-48h-23v95h18l33 -51l34 51h17v-95h-23v48l-22 -33h-12zM596 371q-12 0 -19 -8t-7 -20q0 -11 7 -19t19 -8q11 0 18.5 8t7.5 19t-7.5 19.5t-18.5 8.5zM258 316
h14q12 0 19.5 8t7.5 19t-7.5 19t-19.5 8h-14v-54z" />
    <glyph glyph-name="Rcommaaccent" unicode="&#x156;" 
d="M770 680v-680h-670v680h670zM170 70h480l-176 171h114l112 -109v478h-480l178 -173h-114l-114 111v-478zM596 294q-21 0 -35.5 14.5t-14.5 34.5q0 21 14.5 35t35.5 14q22 0 36.5 -14t14.5 -35q0 -20 -14.5 -34.5t-36.5 -14.5zM234 391h38q22 0 36.5 -13.5t14.5 -34.5
q0 -20 -14.5 -33.5t-36.5 -13.5h-38v95zM409 391v-20h-48v-18h42v-20h-42v-17h48v-20h-71v95h71zM473 311l-22 33v-48h-23v95h18l33 -51l34 51h17v-95h-23v48l-22 -33h-12zM596 371q-12 0 -19 -8t-7 -20q0 -11 7 -19t19 -8q11 0 18.5 8t7.5 19t-7.5 19.5t-18.5 8.5zM258 316
h14q12 0 19.5 8t7.5 19t-7.5 19t-19.5 8h-14v-54z" />
    <glyph glyph-name="rcommaaccent" unicode="&#x157;" 
d="M770 680v-680h-670v680h670zM170 70h480l-176 171h114l112 -109v478h-480l178 -173h-114l-114 111v-478zM596 294q-21 0 -35.5 14.5t-14.5 34.5q0 21 14.5 35t35.5 14q22 0 36.5 -14t14.5 -35q0 -20 -14.5 -34.5t-36.5 -14.5zM234 391h38q22 0 36.5 -13.5t14.5 -34.5
q0 -20 -14.5 -33.5t-36.5 -13.5h-38v95zM409 391v-20h-48v-18h42v-20h-42v-17h48v-20h-71v95h71zM473 311l-22 33v-48h-23v95h18l33 -51l34 51h17v-95h-23v48l-22 -33h-12zM596 371q-12 0 -19 -8t-7 -20q0 -11 7 -19t19 -8q11 0 18.5 8t7.5 19t-7.5 19.5t-18.5 8.5zM258 316
h14q12 0 19.5 8t7.5 19t-7.5 19t-19.5 8h-14v-54z" />
    <glyph glyph-name="Rcaron" unicode="&#x158;" 
d="M770 680v-680h-670v680h670zM170 70h480l-176 171h114l112 -109v478h-480l178 -173h-114l-114 111v-478zM596 294q-21 0 -35.5 14.5t-14.5 34.5q0 21 14.5 35t35.5 14q22 0 36.5 -14t14.5 -35q0 -20 -14.5 -34.5t-36.5 -14.5zM234 391h38q22 0 36.5 -13.5t14.5 -34.5
q0 -20 -14.5 -33.5t-36.5 -13.5h-38v95zM409 391v-20h-48v-18h42v-20h-42v-17h48v-20h-71v95h71zM473 311l-22 33v-48h-23v95h18l33 -51l34 51h17v-95h-23v48l-22 -33h-12zM596 371q-12 0 -19 -8t-7 -20q0 -11 7 -19t19 -8q11 0 18.5 8t7.5 19t-7.5 19.5t-18.5 8.5zM258 316
h14q12 0 19.5 8t7.5 19t-7.5 19t-19.5 8h-14v-54z" />
    <glyph glyph-name="rcaron" unicode="&#x159;" 
d="M770 680v-680h-670v680h670zM170 70h480l-176 171h114l112 -109v478h-480l178 -173h-114l-114 111v-478zM596 294q-21 0 -35.5 14.5t-14.5 34.5q0 21 14.5 35t35.5 14q22 0 36.5 -14t14.5 -35q0 -20 -14.5 -34.5t-36.5 -14.5zM234 391h38q22 0 36.5 -13.5t14.5 -34.5
q0 -20 -14.5 -33.5t-36.5 -13.5h-38v95zM409 391v-20h-48v-18h42v-20h-42v-17h48v-20h-71v95h71zM473 311l-22 33v-48h-23v95h18l33 -51l34 51h17v-95h-23v48l-22 -33h-12zM596 371q-12 0 -19 -8t-7 -20q0 -11 7 -19t19 -8q11 0 18.5 8t7.5 19t-7.5 19.5t-18.5 8.5zM258 316
h14q12 0 19.5 8t7.5 19t-7.5 19t-19.5 8h-14v-54z" />
    <glyph glyph-name="Sacute" unicode="&#x15a;" 
d="M770 680v-680h-670v680h670zM170 70h480l-176 171h114l112 -109v478h-480l178 -173h-114l-114 111v-478zM596 294q-21 0 -35.5 14.5t-14.5 34.5q0 21 14.5 35t35.5 14q22 0 36.5 -14t14.5 -35q0 -20 -14.5 -34.5t-36.5 -14.5zM234 391h38q22 0 36.5 -13.5t14.5 -34.5
q0 -20 -14.5 -33.5t-36.5 -13.5h-38v95zM409 391v-20h-48v-18h42v-20h-42v-17h48v-20h-71v95h71zM473 311l-22 33v-48h-23v95h18l33 -51l34 51h17v-95h-23v48l-22 -33h-12zM596 371q-12 0 -19 -8t-7 -20q0 -11 7 -19t19 -8q11 0 18.5 8t7.5 19t-7.5 19.5t-18.5 8.5zM258 316
h14q12 0 19.5 8t7.5 19t-7.5 19t-19.5 8h-14v-54z" />
    <glyph glyph-name="sacute" unicode="&#x15b;" 
d="M770 680v-680h-670v680h670zM170 70h480l-176 171h114l112 -109v478h-480l178 -173h-114l-114 111v-478zM596 294q-21 0 -35.5 14.5t-14.5 34.5q0 21 14.5 35t35.5 14q22 0 36.5 -14t14.5 -35q0 -20 -14.5 -34.5t-36.5 -14.5zM234 391h38q22 0 36.5 -13.5t14.5 -34.5
q0 -20 -14.5 -33.5t-36.5 -13.5h-38v95zM409 391v-20h-48v-18h42v-20h-42v-17h48v-20h-71v95h71zM473 311l-22 33v-48h-23v95h18l33 -51l34 51h17v-95h-23v48l-22 -33h-12zM596 371q-12 0 -19 -8t-7 -20q0 -11 7 -19t19 -8q11 0 18.5 8t7.5 19t-7.5 19.5t-18.5 8.5zM258 316
h14q12 0 19.5 8t7.5 19t-7.5 19t-19.5 8h-14v-54z" />
    <glyph glyph-name="Scedilla" unicode="&#x15e;" 
d="M770 680v-680h-670v680h670zM170 70h480l-176 171h114l112 -109v478h-480l178 -173h-114l-114 111v-478zM596 294q-21 0 -35.5 14.5t-14.5 34.5q0 21 14.5 35t35.5 14q22 0 36.5 -14t14.5 -35q0 -20 -14.5 -34.5t-36.5 -14.5zM234 391h38q22 0 36.5 -13.5t14.5 -34.5
q0 -20 -14.5 -33.5t-36.5 -13.5h-38v95zM409 391v-20h-48v-18h42v-20h-42v-17h48v-20h-71v95h71zM473 311l-22 33v-48h-23v95h18l33 -51l34 51h17v-95h-23v48l-22 -33h-12zM596 371q-12 0 -19 -8t-7 -20q0 -11 7 -19t19 -8q11 0 18.5 8t7.5 19t-7.5 19.5t-18.5 8.5zM258 316
h14q12 0 19.5 8t7.5 19t-7.5 19t-19.5 8h-14v-54z" />
    <glyph glyph-name="scedilla" unicode="&#x15f;" 
d="M770 680v-680h-670v680h670zM170 70h480l-176 171h114l112 -109v478h-480l178 -173h-114l-114 111v-478zM596 294q-21 0 -35.5 14.5t-14.5 34.5q0 21 14.5 35t35.5 14q22 0 36.5 -14t14.5 -35q0 -20 -14.5 -34.5t-36.5 -14.5zM234 391h38q22 0 36.5 -13.5t14.5 -34.5
q0 -20 -14.5 -33.5t-36.5 -13.5h-38v95zM409 391v-20h-48v-18h42v-20h-42v-17h48v-20h-71v95h71zM473 311l-22 33v-48h-23v95h18l33 -51l34 51h17v-95h-23v48l-22 -33h-12zM596 371q-12 0 -19 -8t-7 -20q0 -11 7 -19t19 -8q11 0 18.5 8t7.5 19t-7.5 19.5t-18.5 8.5zM258 316
h14q12 0 19.5 8t7.5 19t-7.5 19t-19.5 8h-14v-54z" />
    <glyph glyph-name="Scaron" unicode="&#x160;" 
d="M770 680v-680h-670v680h670zM170 70h480l-176 171h114l112 -109v478h-480l178 -173h-114l-114 111v-478zM596 294q-21 0 -35.5 14.5t-14.5 34.5q0 21 14.5 35t35.5 14q22 0 36.5 -14t14.5 -35q0 -20 -14.5 -34.5t-36.5 -14.5zM234 391h38q22 0 36.5 -13.5t14.5 -34.5
q0 -20 -14.5 -33.5t-36.5 -13.5h-38v95zM409 391v-20h-48v-18h42v-20h-42v-17h48v-20h-71v95h71zM473 311l-22 33v-48h-23v95h18l33 -51l34 51h17v-95h-23v48l-22 -33h-12zM596 371q-12 0 -19 -8t-7 -20q0 -11 7 -19t19 -8q11 0 18.5 8t7.5 19t-7.5 19.5t-18.5 8.5zM258 316
h14q12 0 19.5 8t7.5 19t-7.5 19t-19.5 8h-14v-54z" />
    <glyph glyph-name="scaron" unicode="&#x161;" 
d="M770 680v-680h-670v680h670zM170 70h480l-176 171h114l112 -109v478h-480l178 -173h-114l-114 111v-478zM596 294q-21 0 -35.5 14.5t-14.5 34.5q0 21 14.5 35t35.5 14q22 0 36.5 -14t14.5 -35q0 -20 -14.5 -34.5t-36.5 -14.5zM234 391h38q22 0 36.5 -13.5t14.5 -34.5
q0 -20 -14.5 -33.5t-36.5 -13.5h-38v95zM409 391v-20h-48v-18h42v-20h-42v-17h48v-20h-71v95h71zM473 311l-22 33v-48h-23v95h18l33 -51l34 51h17v-95h-23v48l-22 -33h-12zM596 371q-12 0 -19 -8t-7 -20q0 -11 7 -19t19 -8q11 0 18.5 8t7.5 19t-7.5 19.5t-18.5 8.5zM258 316
h14q12 0 19.5 8t7.5 19t-7.5 19t-19.5 8h-14v-54z" />
    <glyph glyph-name="Tcedilla" unicode="&#x162;" 
d="M770 680v-680h-670v680h670zM170 70h480l-176 171h114l112 -109v478h-480l178 -173h-114l-114 111v-478zM596 294q-21 0 -35.5 14.5t-14.5 34.5q0 21 14.5 35t35.5 14q22 0 36.5 -14t14.5 -35q0 -20 -14.5 -34.5t-36.5 -14.5zM234 391h38q22 0 36.5 -13.5t14.5 -34.5
q0 -20 -14.5 -33.5t-36.5 -13.5h-38v95zM409 391v-20h-48v-18h42v-20h-42v-17h48v-20h-71v95h71zM473 311l-22 33v-48h-23v95h18l33 -51l34 51h17v-95h-23v48l-22 -33h-12zM596 371q-12 0 -19 -8t-7 -20q0 -11 7 -19t19 -8q11 0 18.5 8t7.5 19t-7.5 19.5t-18.5 8.5zM258 316
h14q12 0 19.5 8t7.5 19t-7.5 19t-19.5 8h-14v-54z" />
    <glyph glyph-name="tcedilla" unicode="&#x163;" 
d="M770 680v-680h-670v680h670zM170 70h480l-176 171h114l112 -109v478h-480l178 -173h-114l-114 111v-478zM596 294q-21 0 -35.5 14.5t-14.5 34.5q0 21 14.5 35t35.5 14q22 0 36.5 -14t14.5 -35q0 -20 -14.5 -34.5t-36.5 -14.5zM234 391h38q22 0 36.5 -13.5t14.5 -34.5
q0 -20 -14.5 -33.5t-36.5 -13.5h-38v95zM409 391v-20h-48v-18h42v-20h-42v-17h48v-20h-71v95h71zM473 311l-22 33v-48h-23v95h18l33 -51l34 51h17v-95h-23v48l-22 -33h-12zM596 371q-12 0 -19 -8t-7 -20q0 -11 7 -19t19 -8q11 0 18.5 8t7.5 19t-7.5 19.5t-18.5 8.5zM258 316
h14q12 0 19.5 8t7.5 19t-7.5 19t-19.5 8h-14v-54z" />
    <glyph glyph-name="Tcaron" unicode="&#x164;" 
d="M770 680v-680h-670v680h670zM170 70h480l-176 171h114l112 -109v478h-480l178 -173h-114l-114 111v-478zM596 294q-21 0 -35.5 14.5t-14.5 34.5q0 21 14.5 35t35.5 14q22 0 36.5 -14t14.5 -35q0 -20 -14.5 -34.5t-36.5 -14.5zM234 391h38q22 0 36.5 -13.5t14.5 -34.5
q0 -20 -14.5 -33.5t-36.5 -13.5h-38v95zM409 391v-20h-48v-18h42v-20h-42v-17h48v-20h-71v95h71zM473 311l-22 33v-48h-23v95h18l33 -51l34 51h17v-95h-23v48l-22 -33h-12zM596 371q-12 0 -19 -8t-7 -20q0 -11 7 -19t19 -8q11 0 18.5 8t7.5 19t-7.5 19.5t-18.5 8.5zM258 316
h14q12 0 19.5 8t7.5 19t-7.5 19t-19.5 8h-14v-54z" />
    <glyph glyph-name="tcaron" unicode="&#x165;" 
d="M770 680v-680h-670v680h670zM170 70h480l-176 171h114l112 -109v478h-480l178 -173h-114l-114 111v-478zM596 294q-21 0 -35.5 14.5t-14.5 34.5q0 21 14.5 35t35.5 14q22 0 36.5 -14t14.5 -35q0 -20 -14.5 -34.5t-36.5 -14.5zM234 391h38q22 0 36.5 -13.5t14.5 -34.5
q0 -20 -14.5 -33.5t-36.5 -13.5h-38v95zM409 391v-20h-48v-18h42v-20h-42v-17h48v-20h-71v95h71zM473 311l-22 33v-48h-23v95h18l33 -51l34 51h17v-95h-23v48l-22 -33h-12zM596 371q-12 0 -19 -8t-7 -20q0 -11 7 -19t19 -8q11 0 18.5 8t7.5 19t-7.5 19.5t-18.5 8.5zM258 316
h14q12 0 19.5 8t7.5 19t-7.5 19t-19.5 8h-14v-54z" />
    <glyph glyph-name="Umacron" unicode="&#x16a;" 
d="M770 680v-680h-670v680h670zM170 70h480l-176 171h114l112 -109v478h-480l178 -173h-114l-114 111v-478zM596 294q-21 0 -35.5 14.5t-14.5 34.5q0 21 14.5 35t35.5 14q22 0 36.5 -14t14.5 -35q0 -20 -14.5 -34.5t-36.5 -14.5zM234 391h38q22 0 36.5 -13.5t14.5 -34.5
q0 -20 -14.5 -33.5t-36.5 -13.5h-38v95zM409 391v-20h-48v-18h42v-20h-42v-17h48v-20h-71v95h71zM473 311l-22 33v-48h-23v95h18l33 -51l34 51h17v-95h-23v48l-22 -33h-12zM596 371q-12 0 -19 -8t-7 -20q0 -11 7 -19t19 -8q11 0 18.5 8t7.5 19t-7.5 19.5t-18.5 8.5zM258 316
h14q12 0 19.5 8t7.5 19t-7.5 19t-19.5 8h-14v-54z" />
    <glyph glyph-name="umacron" unicode="&#x16b;" 
d="M770 680v-680h-670v680h670zM170 70h480l-176 171h114l112 -109v478h-480l178 -173h-114l-114 111v-478zM596 294q-21 0 -35.5 14.5t-14.5 34.5q0 21 14.5 35t35.5 14q22 0 36.5 -14t14.5 -35q0 -20 -14.5 -34.5t-36.5 -14.5zM234 391h38q22 0 36.5 -13.5t14.5 -34.5
q0 -20 -14.5 -33.5t-36.5 -13.5h-38v95zM409 391v-20h-48v-18h42v-20h-42v-17h48v-20h-71v95h71zM473 311l-22 33v-48h-23v95h18l33 -51l34 51h17v-95h-23v48l-22 -33h-12zM596 371q-12 0 -19 -8t-7 -20q0 -11 7 -19t19 -8q11 0 18.5 8t7.5 19t-7.5 19.5t-18.5 8.5zM258 316
h14q12 0 19.5 8t7.5 19t-7.5 19t-19.5 8h-14v-54z" />
    <glyph glyph-name="Uring" unicode="&#x16e;" 
d="M770 680v-680h-670v680h670zM170 70h480l-176 171h114l112 -109v478h-480l178 -173h-114l-114 111v-478zM596 294q-21 0 -35.5 14.5t-14.5 34.5q0 21 14.5 35t35.5 14q22 0 36.5 -14t14.5 -35q0 -20 -14.5 -34.5t-36.5 -14.5zM234 391h38q22 0 36.5 -13.5t14.5 -34.5
q0 -20 -14.5 -33.5t-36.5 -13.5h-38v95zM409 391v-20h-48v-18h42v-20h-42v-17h48v-20h-71v95h71zM473 311l-22 33v-48h-23v95h18l33 -51l34 51h17v-95h-23v48l-22 -33h-12zM596 371q-12 0 -19 -8t-7 -20q0 -11 7 -19t19 -8q11 0 18.5 8t7.5 19t-7.5 19.5t-18.5 8.5zM258 316
h14q12 0 19.5 8t7.5 19t-7.5 19t-19.5 8h-14v-54z" />
    <glyph glyph-name="uring" unicode="&#x16f;" 
d="M770 680v-680h-670v680h670zM170 70h480l-176 171h114l112 -109v478h-480l178 -173h-114l-114 111v-478zM596 294q-21 0 -35.5 14.5t-14.5 34.5q0 21 14.5 35t35.5 14q22 0 36.5 -14t14.5 -35q0 -20 -14.5 -34.5t-36.5 -14.5zM234 391h38q22 0 36.5 -13.5t14.5 -34.5
q0 -20 -14.5 -33.5t-36.5 -13.5h-38v95zM409 391v-20h-48v-18h42v-20h-42v-17h48v-20h-71v95h71zM473 311l-22 33v-48h-23v95h18l33 -51l34 51h17v-95h-23v48l-22 -33h-12zM596 371q-12 0 -19 -8t-7 -20q0 -11 7 -19t19 -8q11 0 18.5 8t7.5 19t-7.5 19.5t-18.5 8.5zM258 316
h14q12 0 19.5 8t7.5 19t-7.5 19t-19.5 8h-14v-54z" />
    <glyph glyph-name="Uhungarumlaut" unicode="&#x170;" 
d="M770 680v-680h-670v680h670zM170 70h480l-176 171h114l112 -109v478h-480l178 -173h-114l-114 111v-478zM596 294q-21 0 -35.5 14.5t-14.5 34.5q0 21 14.5 35t35.5 14q22 0 36.5 -14t14.5 -35q0 -20 -14.5 -34.5t-36.5 -14.5zM234 391h38q22 0 36.5 -13.5t14.5 -34.5
q0 -20 -14.5 -33.5t-36.5 -13.5h-38v95zM409 391v-20h-48v-18h42v-20h-42v-17h48v-20h-71v95h71zM473 311l-22 33v-48h-23v95h18l33 -51l34 51h17v-95h-23v48l-22 -33h-12zM596 371q-12 0 -19 -8t-7 -20q0 -11 7 -19t19 -8q11 0 18.5 8t7.5 19t-7.5 19.5t-18.5 8.5zM258 316
h14q12 0 19.5 8t7.5 19t-7.5 19t-19.5 8h-14v-54z" />
    <glyph glyph-name="uhungarumlaut" unicode="&#x171;" 
d="M770 680v-680h-670v680h670zM170 70h480l-176 171h114l112 -109v478h-480l178 -173h-114l-114 111v-478zM596 294q-21 0 -35.5 14.5t-14.5 34.5q0 21 14.5 35t35.5 14q22 0 36.5 -14t14.5 -35q0 -20 -14.5 -34.5t-36.5 -14.5zM234 391h38q22 0 36.5 -13.5t14.5 -34.5
q0 -20 -14.5 -33.5t-36.5 -13.5h-38v95zM409 391v-20h-48v-18h42v-20h-42v-17h48v-20h-71v95h71zM473 311l-22 33v-48h-23v95h18l33 -51l34 51h17v-95h-23v48l-22 -33h-12zM596 371q-12 0 -19 -8t-7 -20q0 -11 7 -19t19 -8q11 0 18.5 8t7.5 19t-7.5 19.5t-18.5 8.5zM258 316
h14q12 0 19.5 8t7.5 19t-7.5 19t-19.5 8h-14v-54z" />
    <glyph glyph-name="Uogonek" unicode="&#x172;" 
d="M770 680v-680h-670v680h670zM170 70h480l-176 171h114l112 -109v478h-480l178 -173h-114l-114 111v-478zM596 294q-21 0 -35.5 14.5t-14.5 34.5q0 21 14.5 35t35.5 14q22 0 36.5 -14t14.5 -35q0 -20 -14.5 -34.5t-36.5 -14.5zM234 391h38q22 0 36.5 -13.5t14.5 -34.5
q0 -20 -14.5 -33.5t-36.5 -13.5h-38v95zM409 391v-20h-48v-18h42v-20h-42v-17h48v-20h-71v95h71zM473 311l-22 33v-48h-23v95h18l33 -51l34 51h17v-95h-23v48l-22 -33h-12zM596 371q-12 0 -19 -8t-7 -20q0 -11 7 -19t19 -8q11 0 18.5 8t7.5 19t-7.5 19.5t-18.5 8.5zM258 316
h14q12 0 19.5 8t7.5 19t-7.5 19t-19.5 8h-14v-54z" />
    <glyph glyph-name="uogonek" unicode="&#x173;" 
d="M770 680v-680h-670v680h670zM170 70h480l-176 171h114l112 -109v478h-480l178 -173h-114l-114 111v-478zM596 294q-21 0 -35.5 14.5t-14.5 34.5q0 21 14.5 35t35.5 14q22 0 36.5 -14t14.5 -35q0 -20 -14.5 -34.5t-36.5 -14.5zM234 391h38q22 0 36.5 -13.5t14.5 -34.5
q0 -20 -14.5 -33.5t-36.5 -13.5h-38v95zM409 391v-20h-48v-18h42v-20h-42v-17h48v-20h-71v95h71zM473 311l-22 33v-48h-23v95h18l33 -51l34 51h17v-95h-23v48l-22 -33h-12zM596 371q-12 0 -19 -8t-7 -20q0 -11 7 -19t19 -8q11 0 18.5 8t7.5 19t-7.5 19.5t-18.5 8.5zM258 316
h14q12 0 19.5 8t7.5 19t-7.5 19t-19.5 8h-14v-54z" />
    <glyph glyph-name="Wcircumflex" unicode="&#x174;" 
d="M770 680v-680h-670v680h670zM170 70h480l-176 171h114l112 -109v478h-480l178 -173h-114l-114 111v-478zM596 294q-21 0 -35.5 14.5t-14.5 34.5q0 21 14.5 35t35.5 14q22 0 36.5 -14t14.5 -35q0 -20 -14.5 -34.5t-36.5 -14.5zM234 391h38q22 0 36.5 -13.5t14.5 -34.5
q0 -20 -14.5 -33.5t-36.5 -13.5h-38v95zM409 391v-20h-48v-18h42v-20h-42v-17h48v-20h-71v95h71zM473 311l-22 33v-48h-23v95h18l33 -51l34 51h17v-95h-23v48l-22 -33h-12zM596 371q-12 0 -19 -8t-7 -20q0 -11 7 -19t19 -8q11 0 18.5 8t7.5 19t-7.5 19.5t-18.5 8.5zM258 316
h14q12 0 19.5 8t7.5 19t-7.5 19t-19.5 8h-14v-54z" />
    <glyph glyph-name="wcircumflex" unicode="&#x175;" 
d="M770 680v-680h-670v680h670zM170 70h480l-176 171h114l112 -109v478h-480l178 -173h-114l-114 111v-478zM596 294q-21 0 -35.5 14.5t-14.5 34.5q0 21 14.5 35t35.5 14q22 0 36.5 -14t14.5 -35q0 -20 -14.5 -34.5t-36.5 -14.5zM234 391h38q22 0 36.5 -13.5t14.5 -34.5
q0 -20 -14.5 -33.5t-36.5 -13.5h-38v95zM409 391v-20h-48v-18h42v-20h-42v-17h48v-20h-71v95h71zM473 311l-22 33v-48h-23v95h18l33 -51l34 51h17v-95h-23v48l-22 -33h-12zM596 371q-12 0 -19 -8t-7 -20q0 -11 7 -19t19 -8q11 0 18.5 8t7.5 19t-7.5 19.5t-18.5 8.5zM258 316
h14q12 0 19.5 8t7.5 19t-7.5 19t-19.5 8h-14v-54z" />
    <glyph glyph-name="Ycircumflex" unicode="&#x176;" 
d="M770 680v-680h-670v680h670zM170 70h480l-176 171h114l112 -109v478h-480l178 -173h-114l-114 111v-478zM596 294q-21 0 -35.5 14.5t-14.5 34.5q0 21 14.5 35t35.5 14q22 0 36.5 -14t14.5 -35q0 -20 -14.5 -34.5t-36.5 -14.5zM234 391h38q22 0 36.5 -13.5t14.5 -34.5
q0 -20 -14.5 -33.5t-36.5 -13.5h-38v95zM409 391v-20h-48v-18h42v-20h-42v-17h48v-20h-71v95h71zM473 311l-22 33v-48h-23v95h18l33 -51l34 51h17v-95h-23v48l-22 -33h-12zM596 371q-12 0 -19 -8t-7 -20q0 -11 7 -19t19 -8q11 0 18.5 8t7.5 19t-7.5 19.5t-18.5 8.5zM258 316
h14q12 0 19.5 8t7.5 19t-7.5 19t-19.5 8h-14v-54z" />
    <glyph glyph-name="ycircumflex" unicode="&#x177;" 
d="M770 680v-680h-670v680h670zM170 70h480l-176 171h114l112 -109v478h-480l178 -173h-114l-114 111v-478zM596 294q-21 0 -35.5 14.5t-14.5 34.5q0 21 14.5 35t35.5 14q22 0 36.5 -14t14.5 -35q0 -20 -14.5 -34.5t-36.5 -14.5zM234 391h38q22 0 36.5 -13.5t14.5 -34.5
q0 -20 -14.5 -33.5t-36.5 -13.5h-38v95zM409 391v-20h-48v-18h42v-20h-42v-17h48v-20h-71v95h71zM473 311l-22 33v-48h-23v95h18l33 -51l34 51h17v-95h-23v48l-22 -33h-12zM596 371q-12 0 -19 -8t-7 -20q0 -11 7 -19t19 -8q11 0 18.5 8t7.5 19t-7.5 19.5t-18.5 8.5zM258 316
h14q12 0 19.5 8t7.5 19t-7.5 19t-19.5 8h-14v-54z" />
    <glyph glyph-name="Ydieresis" unicode="&#x178;" 
d="M770 680v-680h-670v680h670zM170 70h480l-176 171h114l112 -109v478h-480l178 -173h-114l-114 111v-478zM596 294q-21 0 -35.5 14.5t-14.5 34.5q0 21 14.5 35t35.5 14q22 0 36.5 -14t14.5 -35q0 -20 -14.5 -34.5t-36.5 -14.5zM234 391h38q22 0 36.5 -13.5t14.5 -34.5
q0 -20 -14.5 -33.5t-36.5 -13.5h-38v95zM409 391v-20h-48v-18h42v-20h-42v-17h48v-20h-71v95h71zM473 311l-22 33v-48h-23v95h18l33 -51l34 51h17v-95h-23v48l-22 -33h-12zM596 371q-12 0 -19 -8t-7 -20q0 -11 7 -19t19 -8q11 0 18.5 8t7.5 19t-7.5 19.5t-18.5 8.5zM258 316
h14q12 0 19.5 8t7.5 19t-7.5 19t-19.5 8h-14v-54z" />
    <glyph glyph-name="Zacute" unicode="&#x179;" 
d="M770 680v-680h-670v680h670zM170 70h480l-176 171h114l112 -109v478h-480l178 -173h-114l-114 111v-478zM596 294q-21 0 -35.5 14.5t-14.5 34.5q0 21 14.5 35t35.5 14q22 0 36.5 -14t14.5 -35q0 -20 -14.5 -34.5t-36.5 -14.5zM234 391h38q22 0 36.5 -13.5t14.5 -34.5
q0 -20 -14.5 -33.5t-36.5 -13.5h-38v95zM409 391v-20h-48v-18h42v-20h-42v-17h48v-20h-71v95h71zM473 311l-22 33v-48h-23v95h18l33 -51l34 51h17v-95h-23v48l-22 -33h-12zM596 371q-12 0 -19 -8t-7 -20q0 -11 7 -19t19 -8q11 0 18.5 8t7.5 19t-7.5 19.5t-18.5 8.5zM258 316
h14q12 0 19.5 8t7.5 19t-7.5 19t-19.5 8h-14v-54z" />
    <glyph glyph-name="zacute" unicode="&#x17a;" 
d="M770 680v-680h-670v680h670zM170 70h480l-176 171h114l112 -109v478h-480l178 -173h-114l-114 111v-478zM596 294q-21 0 -35.5 14.5t-14.5 34.5q0 21 14.5 35t35.5 14q22 0 36.5 -14t14.5 -35q0 -20 -14.5 -34.5t-36.5 -14.5zM234 391h38q22 0 36.5 -13.5t14.5 -34.5
q0 -20 -14.5 -33.5t-36.5 -13.5h-38v95zM409 391v-20h-48v-18h42v-20h-42v-17h48v-20h-71v95h71zM473 311l-22 33v-48h-23v95h18l33 -51l34 51h17v-95h-23v48l-22 -33h-12zM596 371q-12 0 -19 -8t-7 -20q0 -11 7 -19t19 -8q11 0 18.5 8t7.5 19t-7.5 19.5t-18.5 8.5zM258 316
h14q12 0 19.5 8t7.5 19t-7.5 19t-19.5 8h-14v-54z" />
    <glyph glyph-name="Zdotaccent" unicode="&#x17b;" 
d="M770 680v-680h-670v680h670zM170 70h480l-176 171h114l112 -109v478h-480l178 -173h-114l-114 111v-478zM596 294q-21 0 -35.5 14.5t-14.5 34.5q0 21 14.5 35t35.5 14q22 0 36.5 -14t14.5 -35q0 -20 -14.5 -34.5t-36.5 -14.5zM234 391h38q22 0 36.5 -13.5t14.5 -34.5
q0 -20 -14.5 -33.5t-36.5 -13.5h-38v95zM409 391v-20h-48v-18h42v-20h-42v-17h48v-20h-71v95h71zM473 311l-22 33v-48h-23v95h18l33 -51l34 51h17v-95h-23v48l-22 -33h-12zM596 371q-12 0 -19 -8t-7 -20q0 -11 7 -19t19 -8q11 0 18.5 8t7.5 19t-7.5 19.5t-18.5 8.5zM258 316
h14q12 0 19.5 8t7.5 19t-7.5 19t-19.5 8h-14v-54z" />
    <glyph glyph-name="zdotaccent" unicode="&#x17c;" 
d="M770 680v-680h-670v680h670zM170 70h480l-176 171h114l112 -109v478h-480l178 -173h-114l-114 111v-478zM596 294q-21 0 -35.5 14.5t-14.5 34.5q0 21 14.5 35t35.5 14q22 0 36.5 -14t14.5 -35q0 -20 -14.5 -34.5t-36.5 -14.5zM234 391h38q22 0 36.5 -13.5t14.5 -34.5
q0 -20 -14.5 -33.5t-36.5 -13.5h-38v95zM409 391v-20h-48v-18h42v-20h-42v-17h48v-20h-71v95h71zM473 311l-22 33v-48h-23v95h18l33 -51l34 51h17v-95h-23v48l-22 -33h-12zM596 371q-12 0 -19 -8t-7 -20q0 -11 7 -19t19 -8q11 0 18.5 8t7.5 19t-7.5 19.5t-18.5 8.5zM258 316
h14q12 0 19.5 8t7.5 19t-7.5 19t-19.5 8h-14v-54z" />
    <glyph glyph-name="Zcaron" unicode="&#x17d;" 
d="M770 680v-680h-670v680h670zM170 70h480l-176 171h114l112 -109v478h-480l178 -173h-114l-114 111v-478zM596 294q-21 0 -35.5 14.5t-14.5 34.5q0 21 14.5 35t35.5 14q22 0 36.5 -14t14.5 -35q0 -20 -14.5 -34.5t-36.5 -14.5zM234 391h38q22 0 36.5 -13.5t14.5 -34.5
q0 -20 -14.5 -33.5t-36.5 -13.5h-38v95zM409 391v-20h-48v-18h42v-20h-42v-17h48v-20h-71v95h71zM473 311l-22 33v-48h-23v95h18l33 -51l34 51h17v-95h-23v48l-22 -33h-12zM596 371q-12 0 -19 -8t-7 -20q0 -11 7 -19t19 -8q11 0 18.5 8t7.5 19t-7.5 19.5t-18.5 8.5zM258 316
h14q12 0 19.5 8t7.5 19t-7.5 19t-19.5 8h-14v-54z" />
    <glyph glyph-name="zcaron" unicode="&#x17e;" 
d="M770 680v-680h-670v680h670zM170 70h480l-176 171h114l112 -109v478h-480l178 -173h-114l-114 111v-478zM596 294q-21 0 -35.5 14.5t-14.5 34.5q0 21 14.5 35t35.5 14q22 0 36.5 -14t14.5 -35q0 -20 -14.5 -34.5t-36.5 -14.5zM234 391h38q22 0 36.5 -13.5t14.5 -34.5
q0 -20 -14.5 -33.5t-36.5 -13.5h-38v95zM409 391v-20h-48v-18h42v-20h-42v-17h48v-20h-71v95h71zM473 311l-22 33v-48h-23v95h18l33 -51l34 51h17v-95h-23v48l-22 -33h-12zM596 371q-12 0 -19 -8t-7 -20q0 -11 7 -19t19 -8q11 0 18.5 8t7.5 19t-7.5 19.5t-18.5 8.5zM258 316
h14q12 0 19.5 8t7.5 19t-7.5 19t-19.5 8h-14v-54z" />
    <glyph glyph-name="florin" unicode="&#x192;" 
d="M770 680v-680h-670v680h670zM170 70h480l-176 171h114l112 -109v478h-480l178 -173h-114l-114 111v-478zM596 294q-21 0 -35.5 14.5t-14.5 34.5q0 21 14.5 35t35.5 14q22 0 36.5 -14t14.5 -35q0 -20 -14.5 -34.5t-36.5 -14.5zM234 391h38q22 0 36.5 -13.5t14.5 -34.5
q0 -20 -14.5 -33.5t-36.5 -13.5h-38v95zM409 391v-20h-48v-18h42v-20h-42v-17h48v-20h-71v95h71zM473 311l-22 33v-48h-23v95h18l33 -51l34 51h17v-95h-23v48l-22 -33h-12zM596 371q-12 0 -19 -8t-7 -20q0 -11 7 -19t19 -8q11 0 18.5 8t7.5 19t-7.5 19.5t-18.5 8.5zM258 316
h14q12 0 19.5 8t7.5 19t-7.5 19t-19.5 8h-14v-54z" />
    <glyph glyph-name="Acaron" unicode="&#x1cd;" 
d="M770 680v-680h-670v680h670zM170 70h480l-176 171h114l112 -109v478h-480l178 -173h-114l-114 111v-478zM596 294q-21 0 -35.5 14.5t-14.5 34.5q0 21 14.5 35t35.5 14q22 0 36.5 -14t14.5 -35q0 -20 -14.5 -34.5t-36.5 -14.5zM234 391h38q22 0 36.5 -13.5t14.5 -34.5
q0 -20 -14.5 -33.5t-36.5 -13.5h-38v95zM409 391v-20h-48v-18h42v-20h-42v-17h48v-20h-71v95h71zM473 311l-22 33v-48h-23v95h18l33 -51l34 51h17v-95h-23v48l-22 -33h-12zM596 371q-12 0 -19 -8t-7 -20q0 -11 7 -19t19 -8q11 0 18.5 8t7.5 19t-7.5 19.5t-18.5 8.5zM258 316
h14q12 0 19.5 8t7.5 19t-7.5 19t-19.5 8h-14v-54z" />
    <glyph glyph-name="acaron" unicode="&#x1ce;" 
d="M770 680v-680h-670v680h670zM170 70h480l-176 171h114l112 -109v478h-480l178 -173h-114l-114 111v-478zM596 294q-21 0 -35.5 14.5t-14.5 34.5q0 21 14.5 35t35.5 14q22 0 36.5 -14t14.5 -35q0 -20 -14.5 -34.5t-36.5 -14.5zM234 391h38q22 0 36.5 -13.5t14.5 -34.5
q0 -20 -14.5 -33.5t-36.5 -13.5h-38v95zM409 391v-20h-48v-18h42v-20h-42v-17h48v-20h-71v95h71zM473 311l-22 33v-48h-23v95h18l33 -51l34 51h17v-95h-23v48l-22 -33h-12zM596 371q-12 0 -19 -8t-7 -20q0 -11 7 -19t19 -8q11 0 18.5 8t7.5 19t-7.5 19.5t-18.5 8.5zM258 316
h14q12 0 19.5 8t7.5 19t-7.5 19t-19.5 8h-14v-54z" />
    <glyph glyph-name="Scommaaccent" unicode="&#x218;" 
d="M770 680v-680h-670v680h670zM170 70h480l-176 171h114l112 -109v478h-480l178 -173h-114l-114 111v-478zM596 294q-21 0 -35.5 14.5t-14.5 34.5q0 21 14.5 35t35.5 14q22 0 36.5 -14t14.5 -35q0 -20 -14.5 -34.5t-36.5 -14.5zM234 391h38q22 0 36.5 -13.5t14.5 -34.5
q0 -20 -14.5 -33.5t-36.5 -13.5h-38v95zM409 391v-20h-48v-18h42v-20h-42v-17h48v-20h-71v95h71zM473 311l-22 33v-48h-23v95h18l33 -51l34 51h17v-95h-23v48l-22 -33h-12zM596 371q-12 0 -19 -8t-7 -20q0 -11 7 -19t19 -8q11 0 18.5 8t7.5 19t-7.5 19.5t-18.5 8.5zM258 316
h14q12 0 19.5 8t7.5 19t-7.5 19t-19.5 8h-14v-54z" />
    <glyph glyph-name="scommaaccent" unicode="&#x219;" 
d="M770 680v-680h-670v680h670zM170 70h480l-176 171h114l112 -109v478h-480l178 -173h-114l-114 111v-478zM596 294q-21 0 -35.5 14.5t-14.5 34.5q0 21 14.5 35t35.5 14q22 0 36.5 -14t14.5 -35q0 -20 -14.5 -34.5t-36.5 -14.5zM234 391h38q22 0 36.5 -13.5t14.5 -34.5
q0 -20 -14.5 -33.5t-36.5 -13.5h-38v95zM409 391v-20h-48v-18h42v-20h-42v-17h48v-20h-71v95h71zM473 311l-22 33v-48h-23v95h18l33 -51l34 51h17v-95h-23v48l-22 -33h-12zM596 371q-12 0 -19 -8t-7 -20q0 -11 7 -19t19 -8q11 0 18.5 8t7.5 19t-7.5 19.5t-18.5 8.5zM258 316
h14q12 0 19.5 8t7.5 19t-7.5 19t-19.5 8h-14v-54z" />
    <glyph glyph-name="uni021A" unicode="&#x21a;" 
d="M770 680v-680h-670v680h670zM170 70h480l-176 171h114l112 -109v478h-480l178 -173h-114l-114 111v-478zM596 294q-21 0 -35.5 14.5t-14.5 34.5q0 21 14.5 35t35.5 14q22 0 36.5 -14t14.5 -35q0 -20 -14.5 -34.5t-36.5 -14.5zM234 391h38q22 0 36.5 -13.5t14.5 -34.5
q0 -20 -14.5 -33.5t-36.5 -13.5h-38v95zM409 391v-20h-48v-18h42v-20h-42v-17h48v-20h-71v95h71zM473 311l-22 33v-48h-23v95h18l33 -51l34 51h17v-95h-23v48l-22 -33h-12zM596 371q-12 0 -19 -8t-7 -20q0 -11 7 -19t19 -8q11 0 18.5 8t7.5 19t-7.5 19.5t-18.5 8.5zM258 316
h14q12 0 19.5 8t7.5 19t-7.5 19t-19.5 8h-14v-54z" />
    <glyph glyph-name="uni021B" unicode="&#x21b;" 
d="M770 680v-680h-670v680h670zM170 70h480l-176 171h114l112 -109v478h-480l178 -173h-114l-114 111v-478zM596 294q-21 0 -35.5 14.5t-14.5 34.5q0 21 14.5 35t35.5 14q22 0 36.5 -14t14.5 -35q0 -20 -14.5 -34.5t-36.5 -14.5zM234 391h38q22 0 36.5 -13.5t14.5 -34.5
q0 -20 -14.5 -33.5t-36.5 -13.5h-38v95zM409 391v-20h-48v-18h42v-20h-42v-17h48v-20h-71v95h71zM473 311l-22 33v-48h-23v95h18l33 -51l34 51h17v-95h-23v48l-22 -33h-12zM596 371q-12 0 -19 -8t-7 -20q0 -11 7 -19t19 -8q11 0 18.5 8t7.5 19t-7.5 19.5t-18.5 8.5zM258 316
h14q12 0 19.5 8t7.5 19t-7.5 19t-19.5 8h-14v-54z" />
    <glyph glyph-name="circumflex" unicode="&#x2c6;" 
d="M770 680v-680h-670v680h670zM170 70h480l-176 171h114l112 -109v478h-480l178 -173h-114l-114 111v-478zM596 294q-21 0 -35.5 14.5t-14.5 34.5q0 21 14.5 35t35.5 14q22 0 36.5 -14t14.5 -35q0 -20 -14.5 -34.5t-36.5 -14.5zM234 391h38q22 0 36.5 -13.5t14.5 -34.5
q0 -20 -14.5 -33.5t-36.5 -13.5h-38v95zM409 391v-20h-48v-18h42v-20h-42v-17h48v-20h-71v95h71zM473 311l-22 33v-48h-23v95h18l33 -51l34 51h17v-95h-23v48l-22 -33h-12zM596 371q-12 0 -19 -8t-7 -20q0 -11 7 -19t19 -8q11 0 18.5 8t7.5 19t-7.5 19.5t-18.5 8.5zM258 316
h14q12 0 19.5 8t7.5 19t-7.5 19t-19.5 8h-14v-54z" />
    <glyph glyph-name="caron" unicode="&#x2c7;" 
d="M770 680v-680h-670v680h670zM170 70h480l-176 171h114l112 -109v478h-480l178 -173h-114l-114 111v-478zM596 294q-21 0 -35.5 14.5t-14.5 34.5q0 21 14.5 35t35.5 14q22 0 36.5 -14t14.5 -35q0 -20 -14.5 -34.5t-36.5 -14.5zM234 391h38q22 0 36.5 -13.5t14.5 -34.5
q0 -20 -14.5 -33.5t-36.5 -13.5h-38v95zM409 391v-20h-48v-18h42v-20h-42v-17h48v-20h-71v95h71zM473 311l-22 33v-48h-23v95h18l33 -51l34 51h17v-95h-23v48l-22 -33h-12zM596 371q-12 0 -19 -8t-7 -20q0 -11 7 -19t19 -8q11 0 18.5 8t7.5 19t-7.5 19.5t-18.5 8.5zM258 316
h14q12 0 19.5 8t7.5 19t-7.5 19t-19.5 8h-14v-54z" />
    <glyph glyph-name="breve" unicode="&#x2d8;" 
d="M770 680v-680h-670v680h670zM170 70h480l-176 171h114l112 -109v478h-480l178 -173h-114l-114 111v-478zM596 294q-21 0 -35.5 14.5t-14.5 34.5q0 21 14.5 35t35.5 14q22 0 36.5 -14t14.5 -35q0 -20 -14.5 -34.5t-36.5 -14.5zM234 391h38q22 0 36.5 -13.5t14.5 -34.5
q0 -20 -14.5 -33.5t-36.5 -13.5h-38v95zM409 391v-20h-48v-18h42v-20h-42v-17h48v-20h-71v95h71zM473 311l-22 33v-48h-23v95h18l33 -51l34 51h17v-95h-23v48l-22 -33h-12zM596 371q-12 0 -19 -8t-7 -20q0 -11 7 -19t19 -8q11 0 18.5 8t7.5 19t-7.5 19.5t-18.5 8.5zM258 316
h14q12 0 19.5 8t7.5 19t-7.5 19t-19.5 8h-14v-54z" />
    <glyph glyph-name="dotaccent" unicode="&#x2d9;" 
d="M770 680v-680h-670v680h670zM170 70h480l-176 171h114l112 -109v478h-480l178 -173h-114l-114 111v-478zM596 294q-21 0 -35.5 14.5t-14.5 34.5q0 21 14.5 35t35.5 14q22 0 36.5 -14t14.5 -35q0 -20 -14.5 -34.5t-36.5 -14.5zM234 391h38q22 0 36.5 -13.5t14.5 -34.5
q0 -20 -14.5 -33.5t-36.5 -13.5h-38v95zM409 391v-20h-48v-18h42v-20h-42v-17h48v-20h-71v95h71zM473 311l-22 33v-48h-23v95h18l33 -51l34 51h17v-95h-23v48l-22 -33h-12zM596 371q-12 0 -19 -8t-7 -20q0 -11 7 -19t19 -8q11 0 18.5 8t7.5 19t-7.5 19.5t-18.5 8.5zM258 316
h14q12 0 19.5 8t7.5 19t-7.5 19t-19.5 8h-14v-54z" />
    <glyph glyph-name="ring" unicode="&#x2da;" 
d="M770 680v-680h-670v680h670zM170 70h480l-176 171h114l112 -109v478h-480l178 -173h-114l-114 111v-478zM596 294q-21 0 -35.5 14.5t-14.5 34.5q0 21 14.5 35t35.5 14q22 0 36.5 -14t14.5 -35q0 -20 -14.5 -34.5t-36.5 -14.5zM234 391h38q22 0 36.5 -13.5t14.5 -34.5
q0 -20 -14.5 -33.5t-36.5 -13.5h-38v95zM409 391v-20h-48v-18h42v-20h-42v-17h48v-20h-71v95h71zM473 311l-22 33v-48h-23v95h18l33 -51l34 51h17v-95h-23v48l-22 -33h-12zM596 371q-12 0 -19 -8t-7 -20q0 -11 7 -19t19 -8q11 0 18.5 8t7.5 19t-7.5 19.5t-18.5 8.5zM258 316
h14q12 0 19.5 8t7.5 19t-7.5 19t-19.5 8h-14v-54z" />
    <glyph glyph-name="ogonek" unicode="&#x2db;" 
d="M770 680v-680h-670v680h670zM170 70h480l-176 171h114l112 -109v478h-480l178 -173h-114l-114 111v-478zM596 294q-21 0 -35.5 14.5t-14.5 34.5q0 21 14.5 35t35.5 14q22 0 36.5 -14t14.5 -35q0 -20 -14.5 -34.5t-36.5 -14.5zM234 391h38q22 0 36.5 -13.5t14.5 -34.5
q0 -20 -14.5 -33.5t-36.5 -13.5h-38v95zM409 391v-20h-48v-18h42v-20h-42v-17h48v-20h-71v95h71zM473 311l-22 33v-48h-23v95h18l33 -51l34 51h17v-95h-23v48l-22 -33h-12zM596 371q-12 0 -19 -8t-7 -20q0 -11 7 -19t19 -8q11 0 18.5 8t7.5 19t-7.5 19.5t-18.5 8.5zM258 316
h14q12 0 19.5 8t7.5 19t-7.5 19t-19.5 8h-14v-54z" />
    <glyph glyph-name="tilde" unicode="&#x2dc;" 
d="M770 680v-680h-670v680h670zM170 70h480l-176 171h114l112 -109v478h-480l178 -173h-114l-114 111v-478zM596 294q-21 0 -35.5 14.5t-14.5 34.5q0 21 14.5 35t35.5 14q22 0 36.5 -14t14.5 -35q0 -20 -14.5 -34.5t-36.5 -14.5zM234 391h38q22 0 36.5 -13.5t14.5 -34.5
q0 -20 -14.5 -33.5t-36.5 -13.5h-38v95zM409 391v-20h-48v-18h42v-20h-42v-17h48v-20h-71v95h71zM473 311l-22 33v-48h-23v95h18l33 -51l34 51h17v-95h-23v48l-22 -33h-12zM596 371q-12 0 -19 -8t-7 -20q0 -11 7 -19t19 -8q11 0 18.5 8t7.5 19t-7.5 19.5t-18.5 8.5zM258 316
h14q12 0 19.5 8t7.5 19t-7.5 19t-19.5 8h-14v-54z" />
    <glyph glyph-name="hungarumlaut" unicode="&#x2dd;" 
d="M770 680v-680h-670v680h670zM170 70h480l-176 171h114l112 -109v478h-480l178 -173h-114l-114 111v-478zM596 294q-21 0 -35.5 14.5t-14.5 34.5q0 21 14.5 35t35.5 14q22 0 36.5 -14t14.5 -35q0 -20 -14.5 -34.5t-36.5 -14.5zM234 391h38q22 0 36.5 -13.5t14.5 -34.5
q0 -20 -14.5 -33.5t-36.5 -13.5h-38v95zM409 391v-20h-48v-18h42v-20h-42v-17h48v-20h-71v95h71zM473 311l-22 33v-48h-23v95h18l33 -51l34 51h17v-95h-23v48l-22 -33h-12zM596 371q-12 0 -19 -8t-7 -20q0 -11 7 -19t19 -8q11 0 18.5 8t7.5 19t-7.5 19.5t-18.5 8.5zM258 316
h14q12 0 19.5 8t7.5 19t-7.5 19t-19.5 8h-14v-54z" />
    <glyph glyph-name="uni0326" unicode="&#x326;" horiz-adv-x="0" 
d="M770 680v-680h-670v680h670zM170 70h480l-176 171h114l112 -109v478h-480l178 -173h-114l-114 111v-478zM596 294q-21 0 -35.5 14.5t-14.5 34.5q0 21 14.5 35t35.5 14q22 0 36.5 -14t14.5 -35q0 -20 -14.5 -34.5t-36.5 -14.5zM234 391h38q22 0 36.5 -13.5t14.5 -34.5
q0 -20 -14.5 -33.5t-36.5 -13.5h-38v95zM409 391v-20h-48v-18h42v-20h-42v-17h48v-20h-71v95h71zM473 311l-22 33v-48h-23v95h18l33 -51l34 51h17v-95h-23v48l-22 -33h-12zM596 371q-12 0 -19 -8t-7 -20q0 -11 7 -19t19 -8q11 0 18.5 8t7.5 19t-7.5 19.5t-18.5 8.5zM258 316
h14q12 0 19.5 8t7.5 19t-7.5 19t-19.5 8h-14v-54z" />
    <glyph glyph-name="Wgrave" unicode="&#x1e80;" 
d="M770 680v-680h-670v680h670zM170 70h480l-176 171h114l112 -109v478h-480l178 -173h-114l-114 111v-478zM596 294q-21 0 -35.5 14.5t-14.5 34.5q0 21 14.5 35t35.5 14q22 0 36.5 -14t14.5 -35q0 -20 -14.5 -34.5t-36.5 -14.5zM234 391h38q22 0 36.5 -13.5t14.5 -34.5
q0 -20 -14.5 -33.5t-36.5 -13.5h-38v95zM409 391v-20h-48v-18h42v-20h-42v-17h48v-20h-71v95h71zM473 311l-22 33v-48h-23v95h18l33 -51l34 51h17v-95h-23v48l-22 -33h-12zM596 371q-12 0 -19 -8t-7 -20q0 -11 7 -19t19 -8q11 0 18.5 8t7.5 19t-7.5 19.5t-18.5 8.5zM258 316
h14q12 0 19.5 8t7.5 19t-7.5 19t-19.5 8h-14v-54z" />
    <glyph glyph-name="wgrave" unicode="&#x1e81;" 
d="M770 680v-680h-670v680h670zM170 70h480l-176 171h114l112 -109v478h-480l178 -173h-114l-114 111v-478zM596 294q-21 0 -35.5 14.5t-14.5 34.5q0 21 14.5 35t35.5 14q22 0 36.5 -14t14.5 -35q0 -20 -14.5 -34.5t-36.5 -14.5zM234 391h38q22 0 36.5 -13.5t14.5 -34.5
q0 -20 -14.5 -33.5t-36.5 -13.5h-38v95zM409 391v-20h-48v-18h42v-20h-42v-17h48v-20h-71v95h71zM473 311l-22 33v-48h-23v95h18l33 -51l34 51h17v-95h-23v48l-22 -33h-12zM596 371q-12 0 -19 -8t-7 -20q0 -11 7 -19t19 -8q11 0 18.5 8t7.5 19t-7.5 19.5t-18.5 8.5zM258 316
h14q12 0 19.5 8t7.5 19t-7.5 19t-19.5 8h-14v-54z" />
    <glyph glyph-name="Wacute" unicode="&#x1e82;" 
d="M770 680v-680h-670v680h670zM170 70h480l-176 171h114l112 -109v478h-480l178 -173h-114l-114 111v-478zM596 294q-21 0 -35.5 14.5t-14.5 34.5q0 21 14.5 35t35.5 14q22 0 36.5 -14t14.5 -35q0 -20 -14.5 -34.5t-36.5 -14.5zM234 391h38q22 0 36.5 -13.5t14.5 -34.5
q0 -20 -14.5 -33.5t-36.5 -13.5h-38v95zM409 391v-20h-48v-18h42v-20h-42v-17h48v-20h-71v95h71zM473 311l-22 33v-48h-23v95h18l33 -51l34 51h17v-95h-23v48l-22 -33h-12zM596 371q-12 0 -19 -8t-7 -20q0 -11 7 -19t19 -8q11 0 18.5 8t7.5 19t-7.5 19.5t-18.5 8.5zM258 316
h14q12 0 19.5 8t7.5 19t-7.5 19t-19.5 8h-14v-54z" />
    <glyph glyph-name="wacute" unicode="&#x1e83;" 
d="M770 680v-680h-670v680h670zM170 70h480l-176 171h114l112 -109v478h-480l178 -173h-114l-114 111v-478zM596 294q-21 0 -35.5 14.5t-14.5 34.5q0 21 14.5 35t35.5 14q22 0 36.5 -14t14.5 -35q0 -20 -14.5 -34.5t-36.5 -14.5zM234 391h38q22 0 36.5 -13.5t14.5 -34.5
q0 -20 -14.5 -33.5t-36.5 -13.5h-38v95zM409 391v-20h-48v-18h42v-20h-42v-17h48v-20h-71v95h71zM473 311l-22 33v-48h-23v95h18l33 -51l34 51h17v-95h-23v48l-22 -33h-12zM596 371q-12 0 -19 -8t-7 -20q0 -11 7 -19t19 -8q11 0 18.5 8t7.5 19t-7.5 19.5t-18.5 8.5zM258 316
h14q12 0 19.5 8t7.5 19t-7.5 19t-19.5 8h-14v-54z" />
    <glyph glyph-name="Wdieresis" unicode="&#x1e84;" 
d="M770 680v-680h-670v680h670zM170 70h480l-176 171h114l112 -109v478h-480l178 -173h-114l-114 111v-478zM596 294q-21 0 -35.5 14.5t-14.5 34.5q0 21 14.5 35t35.5 14q22 0 36.5 -14t14.5 -35q0 -20 -14.5 -34.5t-36.5 -14.5zM234 391h38q22 0 36.5 -13.5t14.5 -34.5
q0 -20 -14.5 -33.5t-36.5 -13.5h-38v95zM409 391v-20h-48v-18h42v-20h-42v-17h48v-20h-71v95h71zM473 311l-22 33v-48h-23v95h18l33 -51l34 51h17v-95h-23v48l-22 -33h-12zM596 371q-12 0 -19 -8t-7 -20q0 -11 7 -19t19 -8q11 0 18.5 8t7.5 19t-7.5 19.5t-18.5 8.5zM258 316
h14q12 0 19.5 8t7.5 19t-7.5 19t-19.5 8h-14v-54z" />
    <glyph glyph-name="wdieresis" unicode="&#x1e85;" 
d="M770 680v-680h-670v680h670zM170 70h480l-176 171h114l112 -109v478h-480l178 -173h-114l-114 111v-478zM596 294q-21 0 -35.5 14.5t-14.5 34.5q0 21 14.5 35t35.5 14q22 0 36.5 -14t14.5 -35q0 -20 -14.5 -34.5t-36.5 -14.5zM234 391h38q22 0 36.5 -13.5t14.5 -34.5
q0 -20 -14.5 -33.5t-36.5 -13.5h-38v95zM409 391v-20h-48v-18h42v-20h-42v-17h48v-20h-71v95h71zM473 311l-22 33v-48h-23v95h18l33 -51l34 51h17v-95h-23v48l-22 -33h-12zM596 371q-12 0 -19 -8t-7 -20q0 -11 7 -19t19 -8q11 0 18.5 8t7.5 19t-7.5 19.5t-18.5 8.5zM258 316
h14q12 0 19.5 8t7.5 19t-7.5 19t-19.5 8h-14v-54z" />
    <glyph glyph-name="Ygrave" unicode="&#x1ef2;" 
d="M770 680v-680h-670v680h670zM170 70h480l-176 171h114l112 -109v478h-480l178 -173h-114l-114 111v-478zM596 294q-21 0 -35.5 14.5t-14.5 34.5q0 21 14.5 35t35.5 14q22 0 36.5 -14t14.5 -35q0 -20 -14.5 -34.5t-36.5 -14.5zM234 391h38q22 0 36.5 -13.5t14.5 -34.5
q0 -20 -14.5 -33.5t-36.5 -13.5h-38v95zM409 391v-20h-48v-18h42v-20h-42v-17h48v-20h-71v95h71zM473 311l-22 33v-48h-23v95h18l33 -51l34 51h17v-95h-23v48l-22 -33h-12zM596 371q-12 0 -19 -8t-7 -20q0 -11 7 -19t19 -8q11 0 18.5 8t7.5 19t-7.5 19.5t-18.5 8.5zM258 316
h14q12 0 19.5 8t7.5 19t-7.5 19t-19.5 8h-14v-54z" />
    <glyph glyph-name="ygrave" unicode="&#x1ef3;" 
d="M770 680v-680h-670v680h670zM170 70h480l-176 171h114l112 -109v478h-480l178 -173h-114l-114 111v-478zM596 294q-21 0 -35.5 14.5t-14.5 34.5q0 21 14.5 35t35.5 14q22 0 36.5 -14t14.5 -35q0 -20 -14.5 -34.5t-36.5 -14.5zM234 391h38q22 0 36.5 -13.5t14.5 -34.5
q0 -20 -14.5 -33.5t-36.5 -13.5h-38v95zM409 391v-20h-48v-18h42v-20h-42v-17h48v-20h-71v95h71zM473 311l-22 33v-48h-23v95h18l33 -51l34 51h17v-95h-23v48l-22 -33h-12zM596 371q-12 0 -19 -8t-7 -20q0 -11 7 -19t19 -8q11 0 18.5 8t7.5 19t-7.5 19.5t-18.5 8.5zM258 316
h14q12 0 19.5 8t7.5 19t-7.5 19t-19.5 8h-14v-54z" />
    <glyph glyph-name="endash" unicode="&#x2013;" horiz-adv-x="690" 
d="M594 182v155h-497v-155h497z" />
    <glyph glyph-name="emdash" unicode="&#x2014;" horiz-adv-x="1069" 
d="M973 182v155h-876v-155h876z" />
    <glyph glyph-name="quoteleft" unicode="&#x2018;" horiz-adv-x="234" 
d="M207 679l-52 -111q52 -22 52 -73q0 -35 -26.5 -60t-63.5 -25q-38 0 -64 24.5t-26 61.5q0 32 30 83l60 100h90z" />
    <glyph glyph-name="quoteright" unicode="&#x2019;" horiz-adv-x="234" 
d="M27 422l52 111q-52 22 -52 73q0 35 26.5 60t63.5 25q38 0 64 -24.5t26 -61.5q0 -32 -30 -83l-60 -100h-90z" />
    <glyph glyph-name="quotesinglbase" unicode="&#x201a;" horiz-adv-x="234" 
d="M27 -113l52 111q-52 22 -52 73q0 35 26.5 60t63.5 25q38 0 64 -24.5t26 -61.5q0 -32 -30 -83l-60 -100h-90z" />
    <glyph glyph-name="quotedblleft" unicode="&#x201c;" horiz-adv-x="441" 
d="M207 679l-52 -111q52 -22 52 -73q0 -35 -26.5 -60t-63.5 -25q-38 0 -64 24.5t-26 61.5q0 32 30 83l60 100h90zM414 679l-52 -111q52 -22 52 -73q0 -35 -26.5 -60t-63.5 -25q-38 0 -64 24.5t-26 61.5q0 32 30 83l60 100h90z" />
    <glyph glyph-name="quotedblright" unicode="&#x201d;" horiz-adv-x="441" 
d="M27 422l52 111q-52 22 -52 73q0 35 26.5 60t63.5 25q38 0 64 -24.5t26 -61.5q0 -32 -30 -83l-60 -100h-90zM234 422l52 111q-52 22 -52 73q0 35 26.5 60t63.5 25q38 0 64 -24.5t26 -61.5q0 -32 -30 -83l-60 -100h-90z" />
    <glyph glyph-name="quotedblbase" unicode="&#x201e;" horiz-adv-x="443" 
d="M27 -113l52 111q-52 22 -52 73q0 35 26.5 60t63.5 25q38 0 64 -24.5t26 -61.5q0 -32 -30 -83l-60 -100h-90zM236 -113l52 111q-52 22 -52 73q0 35 26.5 60t63.5 25q38 0 64 -24.5t26 -61.5q0 -32 -30 -83l-60 -100h-90z" />
    <glyph glyph-name="dagger" unicode="&#x2020;" 
d="M770 680v-680h-670v680h670zM170 70h480l-176 171h114l112 -109v478h-480l178 -173h-114l-114 111v-478zM596 294q-21 0 -35.5 14.5t-14.5 34.5q0 21 14.5 35t35.5 14q22 0 36.5 -14t14.5 -35q0 -20 -14.5 -34.5t-36.5 -14.5zM234 391h38q22 0 36.5 -13.5t14.5 -34.5
q0 -20 -14.5 -33.5t-36.5 -13.5h-38v95zM409 391v-20h-48v-18h42v-20h-42v-17h48v-20h-71v95h71zM473 311l-22 33v-48h-23v95h18l33 -51l34 51h17v-95h-23v48l-22 -33h-12zM596 371q-12 0 -19 -8t-7 -20q0 -11 7 -19t19 -8q11 0 18.5 8t7.5 19t-7.5 19.5t-18.5 8.5zM258 316
h14q12 0 19.5 8t7.5 19t-7.5 19t-19.5 8h-14v-54z" />
    <glyph glyph-name="daggerdbl" unicode="&#x2021;" 
d="M770 680v-680h-670v680h670zM170 70h480l-176 171h114l112 -109v478h-480l178 -173h-114l-114 111v-478zM596 294q-21 0 -35.5 14.5t-14.5 34.5q0 21 14.5 35t35.5 14q22 0 36.5 -14t14.5 -35q0 -20 -14.5 -34.5t-36.5 -14.5zM234 391h38q22 0 36.5 -13.5t14.5 -34.5
q0 -20 -14.5 -33.5t-36.5 -13.5h-38v95zM409 391v-20h-48v-18h42v-20h-42v-17h48v-20h-71v95h71zM473 311l-22 33v-48h-23v95h18l33 -51l34 51h17v-95h-23v48l-22 -33h-12zM596 371q-12 0 -19 -8t-7 -20q0 -11 7 -19t19 -8q11 0 18.5 8t7.5 19t-7.5 19.5t-18.5 8.5zM258 316
h14q12 0 19.5 8t7.5 19t-7.5 19t-19.5 8h-14v-54z" />
    <glyph glyph-name="bullet" unicode="&#x2022;" 
d="M770 680v-680h-670v680h670zM170 70h480l-176 171h114l112 -109v478h-480l178 -173h-114l-114 111v-478zM596 294q-21 0 -35.5 14.5t-14.5 34.5q0 21 14.5 35t35.5 14q22 0 36.5 -14t14.5 -35q0 -20 -14.5 -34.5t-36.5 -14.5zM234 391h38q22 0 36.5 -13.5t14.5 -34.5
q0 -20 -14.5 -33.5t-36.5 -13.5h-38v95zM409 391v-20h-48v-18h42v-20h-42v-17h48v-20h-71v95h71zM473 311l-22 33v-48h-23v95h18l33 -51l34 51h17v-95h-23v48l-22 -33h-12zM596 371q-12 0 -19 -8t-7 -20q0 -11 7 -19t19 -8q11 0 18.5 8t7.5 19t-7.5 19.5t-18.5 8.5zM258 316
h14q12 0 19.5 8t7.5 19t-7.5 19t-19.5 8h-14v-54z" />
    <glyph glyph-name="ellipsis" unicode="&#x2026;" 
d="M770 680v-680h-670v680h670zM170 70h480l-176 171h114l112 -109v478h-480l178 -173h-114l-114 111v-478zM596 294q-21 0 -35.5 14.5t-14.5 34.5q0 21 14.5 35t35.5 14q22 0 36.5 -14t14.5 -35q0 -20 -14.5 -34.5t-36.5 -14.5zM234 391h38q22 0 36.5 -13.5t14.5 -34.5
q0 -20 -14.5 -33.5t-36.5 -13.5h-38v95zM409 391v-20h-48v-18h42v-20h-42v-17h48v-20h-71v95h71zM473 311l-22 33v-48h-23v95h18l33 -51l34 51h17v-95h-23v48l-22 -33h-12zM596 371q-12 0 -19 -8t-7 -20q0 -11 7 -19t19 -8q11 0 18.5 8t7.5 19t-7.5 19.5t-18.5 8.5zM258 316
h14q12 0 19.5 8t7.5 19t-7.5 19t-19.5 8h-14v-54z" />
    <glyph glyph-name="perthousand" unicode="&#x2030;" 
d="M770 680v-680h-670v680h670zM170 70h480l-176 171h114l112 -109v478h-480l178 -173h-114l-114 111v-478zM596 294q-21 0 -35.5 14.5t-14.5 34.5q0 21 14.5 35t35.5 14q22 0 36.5 -14t14.5 -35q0 -20 -14.5 -34.5t-36.5 -14.5zM234 391h38q22 0 36.5 -13.5t14.5 -34.5
q0 -20 -14.5 -33.5t-36.5 -13.5h-38v95zM409 391v-20h-48v-18h42v-20h-42v-17h48v-20h-71v95h71zM473 311l-22 33v-48h-23v95h18l33 -51l34 51h17v-95h-23v48l-22 -33h-12zM596 371q-12 0 -19 -8t-7 -20q0 -11 7 -19t19 -8q11 0 18.5 8t7.5 19t-7.5 19.5t-18.5 8.5zM258 316
h14q12 0 19.5 8t7.5 19t-7.5 19t-19.5 8h-14v-54z" />
    <glyph glyph-name="guilsinglleft" unicode="&#x2039;" horiz-adv-x="283" 
d="M261 413l-95 -161l95 -161h-144l-95 161l95 161h144z" />
    <glyph glyph-name="guilsinglright" unicode="&#x203a;" horiz-adv-x="286" 
d="M264 252l-95 -161h-144l95 161l-95 161h144z" />
    <glyph glyph-name="fraction" unicode="&#x2044;" 
d="M770 680v-680h-670v680h670zM170 70h480l-176 171h114l112 -109v478h-480l178 -173h-114l-114 111v-478zM596 294q-21 0 -35.5 14.5t-14.5 34.5q0 21 14.5 35t35.5 14q22 0 36.5 -14t14.5 -35q0 -20 -14.5 -34.5t-36.5 -14.5zM234 391h38q22 0 36.5 -13.5t14.5 -34.5
q0 -20 -14.5 -33.5t-36.5 -13.5h-38v95zM409 391v-20h-48v-18h42v-20h-42v-17h48v-20h-71v95h71zM473 311l-22 33v-48h-23v95h18l33 -51l34 51h17v-95h-23v48l-22 -33h-12zM596 371q-12 0 -19 -8t-7 -20q0 -11 7 -19t19 -8q11 0 18.5 8t7.5 19t-7.5 19.5t-18.5 8.5zM258 316
h14q12 0 19.5 8t7.5 19t-7.5 19t-19.5 8h-14v-54z" />
    <glyph glyph-name="zerosuperior" unicode="&#x2070;" 
d="M770 680v-680h-670v680h670zM170 70h480l-176 171h114l112 -109v478h-480l178 -173h-114l-114 111v-478zM596 294q-21 0 -35.5 14.5t-14.5 34.5q0 21 14.5 35t35.5 14q22 0 36.5 -14t14.5 -35q0 -20 -14.5 -34.5t-36.5 -14.5zM234 391h38q22 0 36.5 -13.5t14.5 -34.5
q0 -20 -14.5 -33.5t-36.5 -13.5h-38v95zM409 391v-20h-48v-18h42v-20h-42v-17h48v-20h-71v95h71zM473 311l-22 33v-48h-23v95h18l33 -51l34 51h17v-95h-23v48l-22 -33h-12zM596 371q-12 0 -19 -8t-7 -20q0 -11 7 -19t19 -8q11 0 18.5 8t7.5 19t-7.5 19.5t-18.5 8.5zM258 316
h14q12 0 19.5 8t7.5 19t-7.5 19t-19.5 8h-14v-54z" />
    <glyph glyph-name="foursuperior" unicode="&#x2074;" 
d="M770 680v-680h-670v680h670zM170 70h480l-176 171h114l112 -109v478h-480l178 -173h-114l-114 111v-478zM596 294q-21 0 -35.5 14.5t-14.5 34.5q0 21 14.5 35t35.5 14q22 0 36.5 -14t14.5 -35q0 -20 -14.5 -34.5t-36.5 -14.5zM234 391h38q22 0 36.5 -13.5t14.5 -34.5
q0 -20 -14.5 -33.5t-36.5 -13.5h-38v95zM409 391v-20h-48v-18h42v-20h-42v-17h48v-20h-71v95h71zM473 311l-22 33v-48h-23v95h18l33 -51l34 51h17v-95h-23v48l-22 -33h-12zM596 371q-12 0 -19 -8t-7 -20q0 -11 7 -19t19 -8q11 0 18.5 8t7.5 19t-7.5 19.5t-18.5 8.5zM258 316
h14q12 0 19.5 8t7.5 19t-7.5 19t-19.5 8h-14v-54z" />
    <glyph glyph-name="fivesuperior" unicode="&#x2075;" 
d="M770 680v-680h-670v680h670zM170 70h480l-176 171h114l112 -109v478h-480l178 -173h-114l-114 111v-478zM596 294q-21 0 -35.5 14.5t-14.5 34.5q0 21 14.5 35t35.5 14q22 0 36.5 -14t14.5 -35q0 -20 -14.5 -34.5t-36.5 -14.5zM234 391h38q22 0 36.5 -13.5t14.5 -34.5
q0 -20 -14.5 -33.5t-36.5 -13.5h-38v95zM409 391v-20h-48v-18h42v-20h-42v-17h48v-20h-71v95h71zM473 311l-22 33v-48h-23v95h18l33 -51l34 51h17v-95h-23v48l-22 -33h-12zM596 371q-12 0 -19 -8t-7 -20q0 -11 7 -19t19 -8q11 0 18.5 8t7.5 19t-7.5 19.5t-18.5 8.5zM258 316
h14q12 0 19.5 8t7.5 19t-7.5 19t-19.5 8h-14v-54z" />
    <glyph glyph-name="sixsuperior" unicode="&#x2076;" 
d="M770 680v-680h-670v680h670zM170 70h480l-176 171h114l112 -109v478h-480l178 -173h-114l-114 111v-478zM596 294q-21 0 -35.5 14.5t-14.5 34.5q0 21 14.5 35t35.5 14q22 0 36.5 -14t14.5 -35q0 -20 -14.5 -34.5t-36.5 -14.5zM234 391h38q22 0 36.5 -13.5t14.5 -34.5
q0 -20 -14.5 -33.5t-36.5 -13.5h-38v95zM409 391v-20h-48v-18h42v-20h-42v-17h48v-20h-71v95h71zM473 311l-22 33v-48h-23v95h18l33 -51l34 51h17v-95h-23v48l-22 -33h-12zM596 371q-12 0 -19 -8t-7 -20q0 -11 7 -19t19 -8q11 0 18.5 8t7.5 19t-7.5 19.5t-18.5 8.5zM258 316
h14q12 0 19.5 8t7.5 19t-7.5 19t-19.5 8h-14v-54z" />
    <glyph glyph-name="sevensuperior" unicode="&#x2077;" 
d="M770 680v-680h-670v680h670zM170 70h480l-176 171h114l112 -109v478h-480l178 -173h-114l-114 111v-478zM596 294q-21 0 -35.5 14.5t-14.5 34.5q0 21 14.5 35t35.5 14q22 0 36.5 -14t14.5 -35q0 -20 -14.5 -34.5t-36.5 -14.5zM234 391h38q22 0 36.5 -13.5t14.5 -34.5
q0 -20 -14.5 -33.5t-36.5 -13.5h-38v95zM409 391v-20h-48v-18h42v-20h-42v-17h48v-20h-71v95h71zM473 311l-22 33v-48h-23v95h18l33 -51l34 51h17v-95h-23v48l-22 -33h-12zM596 371q-12 0 -19 -8t-7 -20q0 -11 7 -19t19 -8q11 0 18.5 8t7.5 19t-7.5 19.5t-18.5 8.5zM258 316
h14q12 0 19.5 8t7.5 19t-7.5 19t-19.5 8h-14v-54z" />
    <glyph glyph-name="eightsuperior" unicode="&#x2078;" 
d="M770 680v-680h-670v680h670zM170 70h480l-176 171h114l112 -109v478h-480l178 -173h-114l-114 111v-478zM596 294q-21 0 -35.5 14.5t-14.5 34.5q0 21 14.5 35t35.5 14q22 0 36.5 -14t14.5 -35q0 -20 -14.5 -34.5t-36.5 -14.5zM234 391h38q22 0 36.5 -13.5t14.5 -34.5
q0 -20 -14.5 -33.5t-36.5 -13.5h-38v95zM409 391v-20h-48v-18h42v-20h-42v-17h48v-20h-71v95h71zM473 311l-22 33v-48h-23v95h18l33 -51l34 51h17v-95h-23v48l-22 -33h-12zM596 371q-12 0 -19 -8t-7 -20q0 -11 7 -19t19 -8q11 0 18.5 8t7.5 19t-7.5 19.5t-18.5 8.5zM258 316
h14q12 0 19.5 8t7.5 19t-7.5 19t-19.5 8h-14v-54z" />
    <glyph glyph-name="ninesuperior" unicode="&#x2079;" 
d="M770 680v-680h-670v680h670zM170 70h480l-176 171h114l112 -109v478h-480l178 -173h-114l-114 111v-478zM596 294q-21 0 -35.5 14.5t-14.5 34.5q0 21 14.5 35t35.5 14q22 0 36.5 -14t14.5 -35q0 -20 -14.5 -34.5t-36.5 -14.5zM234 391h38q22 0 36.5 -13.5t14.5 -34.5
q0 -20 -14.5 -33.5t-36.5 -13.5h-38v95zM409 391v-20h-48v-18h42v-20h-42v-17h48v-20h-71v95h71zM473 311l-22 33v-48h-23v95h18l33 -51l34 51h17v-95h-23v48l-22 -33h-12zM596 371q-12 0 -19 -8t-7 -20q0 -11 7 -19t19 -8q11 0 18.5 8t7.5 19t-7.5 19.5t-18.5 8.5zM258 316
h14q12 0 19.5 8t7.5 19t-7.5 19t-19.5 8h-14v-54z" />
    <glyph glyph-name="zeroinferior" unicode="&#x2080;" 
d="M770 680v-680h-670v680h670zM170 70h480l-176 171h114l112 -109v478h-480l178 -173h-114l-114 111v-478zM596 294q-21 0 -35.5 14.5t-14.5 34.5q0 21 14.5 35t35.5 14q22 0 36.5 -14t14.5 -35q0 -20 -14.5 -34.5t-36.5 -14.5zM234 391h38q22 0 36.5 -13.5t14.5 -34.5
q0 -20 -14.5 -33.5t-36.5 -13.5h-38v95zM409 391v-20h-48v-18h42v-20h-42v-17h48v-20h-71v95h71zM473 311l-22 33v-48h-23v95h18l33 -51l34 51h17v-95h-23v48l-22 -33h-12zM596 371q-12 0 -19 -8t-7 -20q0 -11 7 -19t19 -8q11 0 18.5 8t7.5 19t-7.5 19.5t-18.5 8.5zM258 316
h14q12 0 19.5 8t7.5 19t-7.5 19t-19.5 8h-14v-54z" />
    <glyph glyph-name="oneinferior" unicode="&#x2081;" 
d="M770 680v-680h-670v680h670zM170 70h480l-176 171h114l112 -109v478h-480l178 -173h-114l-114 111v-478zM596 294q-21 0 -35.5 14.5t-14.5 34.5q0 21 14.5 35t35.5 14q22 0 36.5 -14t14.5 -35q0 -20 -14.5 -34.5t-36.5 -14.5zM234 391h38q22 0 36.5 -13.5t14.5 -34.5
q0 -20 -14.5 -33.5t-36.5 -13.5h-38v95zM409 391v-20h-48v-18h42v-20h-42v-17h48v-20h-71v95h71zM473 311l-22 33v-48h-23v95h18l33 -51l34 51h17v-95h-23v48l-22 -33h-12zM596 371q-12 0 -19 -8t-7 -20q0 -11 7 -19t19 -8q11 0 18.5 8t7.5 19t-7.5 19.5t-18.5 8.5zM258 316
h14q12 0 19.5 8t7.5 19t-7.5 19t-19.5 8h-14v-54z" />
    <glyph glyph-name="twoinferior" unicode="&#x2082;" 
d="M770 680v-680h-670v680h670zM170 70h480l-176 171h114l112 -109v478h-480l178 -173h-114l-114 111v-478zM596 294q-21 0 -35.5 14.5t-14.5 34.5q0 21 14.5 35t35.5 14q22 0 36.5 -14t14.5 -35q0 -20 -14.5 -34.5t-36.5 -14.5zM234 391h38q22 0 36.5 -13.5t14.5 -34.5
q0 -20 -14.5 -33.5t-36.5 -13.5h-38v95zM409 391v-20h-48v-18h42v-20h-42v-17h48v-20h-71v95h71zM473 311l-22 33v-48h-23v95h18l33 -51l34 51h17v-95h-23v48l-22 -33h-12zM596 371q-12 0 -19 -8t-7 -20q0 -11 7 -19t19 -8q11 0 18.5 8t7.5 19t-7.5 19.5t-18.5 8.5zM258 316
h14q12 0 19.5 8t7.5 19t-7.5 19t-19.5 8h-14v-54z" />
    <glyph glyph-name="threeinferior" unicode="&#x2083;" 
d="M770 680v-680h-670v680h670zM170 70h480l-176 171h114l112 -109v478h-480l178 -173h-114l-114 111v-478zM596 294q-21 0 -35.5 14.5t-14.5 34.5q0 21 14.5 35t35.5 14q22 0 36.5 -14t14.5 -35q0 -20 -14.5 -34.5t-36.5 -14.5zM234 391h38q22 0 36.5 -13.5t14.5 -34.5
q0 -20 -14.5 -33.5t-36.5 -13.5h-38v95zM409 391v-20h-48v-18h42v-20h-42v-17h48v-20h-71v95h71zM473 311l-22 33v-48h-23v95h18l33 -51l34 51h17v-95h-23v48l-22 -33h-12zM596 371q-12 0 -19 -8t-7 -20q0 -11 7 -19t19 -8q11 0 18.5 8t7.5 19t-7.5 19.5t-18.5 8.5zM258 316
h14q12 0 19.5 8t7.5 19t-7.5 19t-19.5 8h-14v-54z" />
    <glyph glyph-name="fourinferior" unicode="&#x2084;" 
d="M770 680v-680h-670v680h670zM170 70h480l-176 171h114l112 -109v478h-480l178 -173h-114l-114 111v-478zM596 294q-21 0 -35.5 14.5t-14.5 34.5q0 21 14.5 35t35.5 14q22 0 36.5 -14t14.5 -35q0 -20 -14.5 -34.5t-36.5 -14.5zM234 391h38q22 0 36.5 -13.5t14.5 -34.5
q0 -20 -14.5 -33.5t-36.5 -13.5h-38v95zM409 391v-20h-48v-18h42v-20h-42v-17h48v-20h-71v95h71zM473 311l-22 33v-48h-23v95h18l33 -51l34 51h17v-95h-23v48l-22 -33h-12zM596 371q-12 0 -19 -8t-7 -20q0 -11 7 -19t19 -8q11 0 18.5 8t7.5 19t-7.5 19.5t-18.5 8.5zM258 316
h14q12 0 19.5 8t7.5 19t-7.5 19t-19.5 8h-14v-54z" />
    <glyph glyph-name="fiveinferior" unicode="&#x2085;" 
d="M770 680v-680h-670v680h670zM170 70h480l-176 171h114l112 -109v478h-480l178 -173h-114l-114 111v-478zM596 294q-21 0 -35.5 14.5t-14.5 34.5q0 21 14.5 35t35.5 14q22 0 36.5 -14t14.5 -35q0 -20 -14.5 -34.5t-36.5 -14.5zM234 391h38q22 0 36.5 -13.5t14.5 -34.5
q0 -20 -14.5 -33.5t-36.5 -13.5h-38v95zM409 391v-20h-48v-18h42v-20h-42v-17h48v-20h-71v95h71zM473 311l-22 33v-48h-23v95h18l33 -51l34 51h17v-95h-23v48l-22 -33h-12zM596 371q-12 0 -19 -8t-7 -20q0 -11 7 -19t19 -8q11 0 18.5 8t7.5 19t-7.5 19.5t-18.5 8.5zM258 316
h14q12 0 19.5 8t7.5 19t-7.5 19t-19.5 8h-14v-54z" />
    <glyph glyph-name="sixinferior" unicode="&#x2086;" 
d="M770 680v-680h-670v680h670zM170 70h480l-176 171h114l112 -109v478h-480l178 -173h-114l-114 111v-478zM596 294q-21 0 -35.5 14.5t-14.5 34.5q0 21 14.5 35t35.5 14q22 0 36.5 -14t14.5 -35q0 -20 -14.5 -34.5t-36.5 -14.5zM234 391h38q22 0 36.5 -13.5t14.5 -34.5
q0 -20 -14.5 -33.5t-36.5 -13.5h-38v95zM409 391v-20h-48v-18h42v-20h-42v-17h48v-20h-71v95h71zM473 311l-22 33v-48h-23v95h18l33 -51l34 51h17v-95h-23v48l-22 -33h-12zM596 371q-12 0 -19 -8t-7 -20q0 -11 7 -19t19 -8q11 0 18.5 8t7.5 19t-7.5 19.5t-18.5 8.5zM258 316
h14q12 0 19.5 8t7.5 19t-7.5 19t-19.5 8h-14v-54z" />
    <glyph glyph-name="seveninferior" unicode="&#x2087;" 
d="M770 680v-680h-670v680h670zM170 70h480l-176 171h114l112 -109v478h-480l178 -173h-114l-114 111v-478zM596 294q-21 0 -35.5 14.5t-14.5 34.5q0 21 14.5 35t35.5 14q22 0 36.5 -14t14.5 -35q0 -20 -14.5 -34.5t-36.5 -14.5zM234 391h38q22 0 36.5 -13.5t14.5 -34.5
q0 -20 -14.5 -33.5t-36.5 -13.5h-38v95zM409 391v-20h-48v-18h42v-20h-42v-17h48v-20h-71v95h71zM473 311l-22 33v-48h-23v95h18l33 -51l34 51h17v-95h-23v48l-22 -33h-12zM596 371q-12 0 -19 -8t-7 -20q0 -11 7 -19t19 -8q11 0 18.5 8t7.5 19t-7.5 19.5t-18.5 8.5zM258 316
h14q12 0 19.5 8t7.5 19t-7.5 19t-19.5 8h-14v-54z" />
    <glyph glyph-name="eightinferior" unicode="&#x2088;" 
d="M770 680v-680h-670v680h670zM170 70h480l-176 171h114l112 -109v478h-480l178 -173h-114l-114 111v-478zM596 294q-21 0 -35.5 14.5t-14.5 34.5q0 21 14.5 35t35.5 14q22 0 36.5 -14t14.5 -35q0 -20 -14.5 -34.5t-36.5 -14.5zM234 391h38q22 0 36.5 -13.5t14.5 -34.5
q0 -20 -14.5 -33.5t-36.5 -13.5h-38v95zM409 391v-20h-48v-18h42v-20h-42v-17h48v-20h-71v95h71zM473 311l-22 33v-48h-23v95h18l33 -51l34 51h17v-95h-23v48l-22 -33h-12zM596 371q-12 0 -19 -8t-7 -20q0 -11 7 -19t19 -8q11 0 18.5 8t7.5 19t-7.5 19.5t-18.5 8.5zM258 316
h14q12 0 19.5 8t7.5 19t-7.5 19t-19.5 8h-14v-54z" />
    <glyph glyph-name="nineinferior" unicode="&#x2089;" 
d="M770 680v-680h-670v680h670zM170 70h480l-176 171h114l112 -109v478h-480l178 -173h-114l-114 111v-478zM596 294q-21 0 -35.5 14.5t-14.5 34.5q0 21 14.5 35t35.5 14q22 0 36.5 -14t14.5 -35q0 -20 -14.5 -34.5t-36.5 -14.5zM234 391h38q22 0 36.5 -13.5t14.5 -34.5
q0 -20 -14.5 -33.5t-36.5 -13.5h-38v95zM409 391v-20h-48v-18h42v-20h-42v-17h48v-20h-71v95h71zM473 311l-22 33v-48h-23v95h18l33 -51l34 51h17v-95h-23v48l-22 -33h-12zM596 371q-12 0 -19 -8t-7 -20q0 -11 7 -19t19 -8q11 0 18.5 8t7.5 19t-7.5 19.5t-18.5 8.5zM258 316
h14q12 0 19.5 8t7.5 19t-7.5 19t-19.5 8h-14v-54z" />
    <glyph glyph-name="Euro" unicode="&#x20ac;" horiz-adv-x="847" 
d="M461 144q67 0 111 36.5t58 101.5h173q-16 -133 -109 -214.5t-232 -81.5q-121 0 -212.5 63t-127.5 169h-87v89h68q-1 11 -1 33v18h-67v89h82q33 112 127 179.5t218 67.5q139 0 232 -81.5t109 -214.5h-173q-14 65 -58 101.5t-111 36.5q-109 0 -161 -89h229l-23 -89h-232
l-1 -18q0 -11 2 -33h219l-23 -89h-161q53 -74 151 -74z" />
    <glyph glyph-name="uni2116" unicode="&#x2116;" horiz-adv-x="1369" 
d="M1049 176q-114 0 -188.5 73.5t-74.5 184.5q0 110 74 181.5t189 71.5t189 -71.5t74 -181.5q0 -111 -74.5 -184.5t-188.5 -73.5zM517 680h169v-680h-131l-326 373v-373h-169v680h129l328 -383v383zM1050 547q-49 0 -79.5 -33t-30.5 -81q0 -50 30.5 -83.5t79.5 -33.5
q48 0 78.5 33.5t30.5 83.5q0 48 -30.5 81t-78.5 33zM808 120h482v-119h-482v119z" />
    <glyph glyph-name="uni2117" unicode="&#x2117;" 
d="M770 680v-680h-670v680h670zM170 70h480l-176 171h114l112 -109v478h-480l178 -173h-114l-114 111v-478zM596 294q-21 0 -35.5 14.5t-14.5 34.5q0 21 14.5 35t35.5 14q22 0 36.5 -14t14.5 -35q0 -20 -14.5 -34.5t-36.5 -14.5zM234 391h38q22 0 36.5 -13.5t14.5 -34.5
q0 -20 -14.5 -33.5t-36.5 -13.5h-38v95zM409 391v-20h-48v-18h42v-20h-42v-17h48v-20h-71v95h71zM473 311l-22 33v-48h-23v95h18l33 -51l34 51h17v-95h-23v48l-22 -33h-12zM596 371q-12 0 -19 -8t-7 -20q0 -11 7 -19t19 -8q11 0 18.5 8t7.5 19t-7.5 19.5t-18.5 8.5zM258 316
h14q12 0 19.5 8t7.5 19t-7.5 19t-19.5 8h-14v-54z" />
    <glyph glyph-name="trademark" unicode="&#x2122;" 
d="M770 680v-680h-670v680h670zM170 70h480l-176 171h114l112 -109v478h-480l178 -173h-114l-114 111v-478zM596 294q-21 0 -35.5 14.5t-14.5 34.5q0 21 14.5 35t35.5 14q22 0 36.5 -14t14.5 -35q0 -20 -14.5 -34.5t-36.5 -14.5zM234 391h38q22 0 36.5 -13.5t14.5 -34.5
q0 -20 -14.5 -33.5t-36.5 -13.5h-38v95zM409 391v-20h-48v-18h42v-20h-42v-17h48v-20h-71v95h71zM473 311l-22 33v-48h-23v95h18l33 -51l34 51h17v-95h-23v48l-22 -33h-12zM596 371q-12 0 -19 -8t-7 -20q0 -11 7 -19t19 -8q11 0 18.5 8t7.5 19t-7.5 19.5t-18.5 8.5zM258 316
h14q12 0 19.5 8t7.5 19t-7.5 19t-19.5 8h-14v-54z" />
    <glyph glyph-name="oneeighth" unicode="&#x215b;" 
d="M770 680v-680h-670v680h670zM170 70h480l-176 171h114l112 -109v478h-480l178 -173h-114l-114 111v-478zM596 294q-21 0 -35.5 14.5t-14.5 34.5q0 21 14.5 35t35.5 14q22 0 36.5 -14t14.5 -35q0 -20 -14.5 -34.5t-36.5 -14.5zM234 391h38q22 0 36.5 -13.5t14.5 -34.5
q0 -20 -14.5 -33.5t-36.5 -13.5h-38v95zM409 391v-20h-48v-18h42v-20h-42v-17h48v-20h-71v95h71zM473 311l-22 33v-48h-23v95h18l33 -51l34 51h17v-95h-23v48l-22 -33h-12zM596 371q-12 0 -19 -8t-7 -20q0 -11 7 -19t19 -8q11 0 18.5 8t7.5 19t-7.5 19.5t-18.5 8.5zM258 316
h14q12 0 19.5 8t7.5 19t-7.5 19t-19.5 8h-14v-54z" />
    <glyph glyph-name="threeeighths" unicode="&#x215c;" 
d="M770 680v-680h-670v680h670zM170 70h480l-176 171h114l112 -109v478h-480l178 -173h-114l-114 111v-478zM596 294q-21 0 -35.5 14.5t-14.5 34.5q0 21 14.5 35t35.5 14q22 0 36.5 -14t14.5 -35q0 -20 -14.5 -34.5t-36.5 -14.5zM234 391h38q22 0 36.5 -13.5t14.5 -34.5
q0 -20 -14.5 -33.5t-36.5 -13.5h-38v95zM409 391v-20h-48v-18h42v-20h-42v-17h48v-20h-71v95h71zM473 311l-22 33v-48h-23v95h18l33 -51l34 51h17v-95h-23v48l-22 -33h-12zM596 371q-12 0 -19 -8t-7 -20q0 -11 7 -19t19 -8q11 0 18.5 8t7.5 19t-7.5 19.5t-18.5 8.5zM258 316
h14q12 0 19.5 8t7.5 19t-7.5 19t-19.5 8h-14v-54z" />
    <glyph glyph-name="fiveeighths" unicode="&#x215d;" 
d="M770 680v-680h-670v680h670zM170 70h480l-176 171h114l112 -109v478h-480l178 -173h-114l-114 111v-478zM596 294q-21 0 -35.5 14.5t-14.5 34.5q0 21 14.5 35t35.5 14q22 0 36.5 -14t14.5 -35q0 -20 -14.5 -34.5t-36.5 -14.5zM234 391h38q22 0 36.5 -13.5t14.5 -34.5
q0 -20 -14.5 -33.5t-36.5 -13.5h-38v95zM409 391v-20h-48v-18h42v-20h-42v-17h48v-20h-71v95h71zM473 311l-22 33v-48h-23v95h18l33 -51l34 51h17v-95h-23v48l-22 -33h-12zM596 371q-12 0 -19 -8t-7 -20q0 -11 7 -19t19 -8q11 0 18.5 8t7.5 19t-7.5 19.5t-18.5 8.5zM258 316
h14q12 0 19.5 8t7.5 19t-7.5 19t-19.5 8h-14v-54z" />
    <glyph glyph-name="seveneighths" unicode="&#x215e;" 
d="M770 680v-680h-670v680h670zM170 70h480l-176 171h114l112 -109v478h-480l178 -173h-114l-114 111v-478zM596 294q-21 0 -35.5 14.5t-14.5 34.5q0 21 14.5 35t35.5 14q22 0 36.5 -14t14.5 -35q0 -20 -14.5 -34.5t-36.5 -14.5zM234 391h38q22 0 36.5 -13.5t14.5 -34.5
q0 -20 -14.5 -33.5t-36.5 -13.5h-38v95zM409 391v-20h-48v-18h42v-20h-42v-17h48v-20h-71v95h71zM473 311l-22 33v-48h-23v95h18l33 -51l34 51h17v-95h-23v48l-22 -33h-12zM596 371q-12 0 -19 -8t-7 -20q0 -11 7 -19t19 -8q11 0 18.5 8t7.5 19t-7.5 19.5t-18.5 8.5zM258 316
h14q12 0 19.5 8t7.5 19t-7.5 19t-19.5 8h-14v-54z" />
    <glyph glyph-name="arrowleft" unicode="&#x2190;" 
d="M770 680v-680h-670v680h670zM170 70h480l-176 171h114l112 -109v478h-480l178 -173h-114l-114 111v-478zM596 294q-21 0 -35.5 14.5t-14.5 34.5q0 21 14.5 35t35.5 14q22 0 36.5 -14t14.5 -35q0 -20 -14.5 -34.5t-36.5 -14.5zM234 391h38q22 0 36.5 -13.5t14.5 -34.5
q0 -20 -14.5 -33.5t-36.5 -13.5h-38v95zM409 391v-20h-48v-18h42v-20h-42v-17h48v-20h-71v95h71zM473 311l-22 33v-48h-23v95h18l33 -51l34 51h17v-95h-23v48l-22 -33h-12zM596 371q-12 0 -19 -8t-7 -20q0 -11 7 -19t19 -8q11 0 18.5 8t7.5 19t-7.5 19.5t-18.5 8.5zM258 316
h14q12 0 19.5 8t7.5 19t-7.5 19t-19.5 8h-14v-54z" />
    <glyph glyph-name="arrowup" unicode="&#x2191;" 
d="M770 680v-680h-670v680h670zM170 70h480l-176 171h114l112 -109v478h-480l178 -173h-114l-114 111v-478zM596 294q-21 0 -35.5 14.5t-14.5 34.5q0 21 14.5 35t35.5 14q22 0 36.5 -14t14.5 -35q0 -20 -14.5 -34.5t-36.5 -14.5zM234 391h38q22 0 36.5 -13.5t14.5 -34.5
q0 -20 -14.5 -33.5t-36.5 -13.5h-38v95zM409 391v-20h-48v-18h42v-20h-42v-17h48v-20h-71v95h71zM473 311l-22 33v-48h-23v95h18l33 -51l34 51h17v-95h-23v48l-22 -33h-12zM596 371q-12 0 -19 -8t-7 -20q0 -11 7 -19t19 -8q11 0 18.5 8t7.5 19t-7.5 19.5t-18.5 8.5zM258 316
h14q12 0 19.5 8t7.5 19t-7.5 19t-19.5 8h-14v-54z" />
    <glyph glyph-name="arrowright" unicode="&#x2192;" 
d="M770 680v-680h-670v680h670zM170 70h480l-176 171h114l112 -109v478h-480l178 -173h-114l-114 111v-478zM596 294q-21 0 -35.5 14.5t-14.5 34.5q0 21 14.5 35t35.5 14q22 0 36.5 -14t14.5 -35q0 -20 -14.5 -34.5t-36.5 -14.5zM234 391h38q22 0 36.5 -13.5t14.5 -34.5
q0 -20 -14.5 -33.5t-36.5 -13.5h-38v95zM409 391v-20h-48v-18h42v-20h-42v-17h48v-20h-71v95h71zM473 311l-22 33v-48h-23v95h18l33 -51l34 51h17v-95h-23v48l-22 -33h-12zM596 371q-12 0 -19 -8t-7 -20q0 -11 7 -19t19 -8q11 0 18.5 8t7.5 19t-7.5 19.5t-18.5 8.5zM258 316
h14q12 0 19.5 8t7.5 19t-7.5 19t-19.5 8h-14v-54z" />
    <glyph glyph-name="arrowdown" unicode="&#x2193;" 
d="M770 680v-680h-670v680h670zM170 70h480l-176 171h114l112 -109v478h-480l178 -173h-114l-114 111v-478zM596 294q-21 0 -35.5 14.5t-14.5 34.5q0 21 14.5 35t35.5 14q22 0 36.5 -14t14.5 -35q0 -20 -14.5 -34.5t-36.5 -14.5zM234 391h38q22 0 36.5 -13.5t14.5 -34.5
q0 -20 -14.5 -33.5t-36.5 -13.5h-38v95zM409 391v-20h-48v-18h42v-20h-42v-17h48v-20h-71v95h71zM473 311l-22 33v-48h-23v95h18l33 -51l34 51h17v-95h-23v48l-22 -33h-12zM596 371q-12 0 -19 -8t-7 -20q0 -11 7 -19t19 -8q11 0 18.5 8t7.5 19t-7.5 19.5t-18.5 8.5zM258 316
h14q12 0 19.5 8t7.5 19t-7.5 19t-19.5 8h-14v-54z" />
    <glyph glyph-name="arrowupleft" unicode="&#x2196;" 
d="M770 680v-680h-670v680h670zM170 70h480l-176 171h114l112 -109v478h-480l178 -173h-114l-114 111v-478zM596 294q-21 0 -35.5 14.5t-14.5 34.5q0 21 14.5 35t35.5 14q22 0 36.5 -14t14.5 -35q0 -20 -14.5 -34.5t-36.5 -14.5zM234 391h38q22 0 36.5 -13.5t14.5 -34.5
q0 -20 -14.5 -33.5t-36.5 -13.5h-38v95zM409 391v-20h-48v-18h42v-20h-42v-17h48v-20h-71v95h71zM473 311l-22 33v-48h-23v95h18l33 -51l34 51h17v-95h-23v48l-22 -33h-12zM596 371q-12 0 -19 -8t-7 -20q0 -11 7 -19t19 -8q11 0 18.5 8t7.5 19t-7.5 19.5t-18.5 8.5zM258 316
h14q12 0 19.5 8t7.5 19t-7.5 19t-19.5 8h-14v-54z" />
    <glyph glyph-name="arrowupright" unicode="&#x2197;" 
d="M770 680v-680h-670v680h670zM170 70h480l-176 171h114l112 -109v478h-480l178 -173h-114l-114 111v-478zM596 294q-21 0 -35.5 14.5t-14.5 34.5q0 21 14.5 35t35.5 14q22 0 36.5 -14t14.5 -35q0 -20 -14.5 -34.5t-36.5 -14.5zM234 391h38q22 0 36.5 -13.5t14.5 -34.5
q0 -20 -14.5 -33.5t-36.5 -13.5h-38v95zM409 391v-20h-48v-18h42v-20h-42v-17h48v-20h-71v95h71zM473 311l-22 33v-48h-23v95h18l33 -51l34 51h17v-95h-23v48l-22 -33h-12zM596 371q-12 0 -19 -8t-7 -20q0 -11 7 -19t19 -8q11 0 18.5 8t7.5 19t-7.5 19.5t-18.5 8.5zM258 316
h14q12 0 19.5 8t7.5 19t-7.5 19t-19.5 8h-14v-54z" />
    <glyph glyph-name="arrowdownright" unicode="&#x2198;" 
d="M770 680v-680h-670v680h670zM170 70h480l-176 171h114l112 -109v478h-480l178 -173h-114l-114 111v-478zM596 294q-21 0 -35.5 14.5t-14.5 34.5q0 21 14.5 35t35.5 14q22 0 36.5 -14t14.5 -35q0 -20 -14.5 -34.5t-36.5 -14.5zM234 391h38q22 0 36.5 -13.5t14.5 -34.5
q0 -20 -14.5 -33.5t-36.5 -13.5h-38v95zM409 391v-20h-48v-18h42v-20h-42v-17h48v-20h-71v95h71zM473 311l-22 33v-48h-23v95h18l33 -51l34 51h17v-95h-23v48l-22 -33h-12zM596 371q-12 0 -19 -8t-7 -20q0 -11 7 -19t19 -8q11 0 18.5 8t7.5 19t-7.5 19.5t-18.5 8.5zM258 316
h14q12 0 19.5 8t7.5 19t-7.5 19t-19.5 8h-14v-54z" />
    <glyph glyph-name="arrowdownleft" unicode="&#x2199;" 
d="M770 680v-680h-670v680h670zM170 70h480l-176 171h114l112 -109v478h-480l178 -173h-114l-114 111v-478zM596 294q-21 0 -35.5 14.5t-14.5 34.5q0 21 14.5 35t35.5 14q22 0 36.5 -14t14.5 -35q0 -20 -14.5 -34.5t-36.5 -14.5zM234 391h38q22 0 36.5 -13.5t14.5 -34.5
q0 -20 -14.5 -33.5t-36.5 -13.5h-38v95zM409 391v-20h-48v-18h42v-20h-42v-17h48v-20h-71v95h71zM473 311l-22 33v-48h-23v95h18l33 -51l34 51h17v-95h-23v48l-22 -33h-12zM596 371q-12 0 -19 -8t-7 -20q0 -11 7 -19t19 -8q11 0 18.5 8t7.5 19t-7.5 19.5t-18.5 8.5zM258 316
h14q12 0 19.5 8t7.5 19t-7.5 19t-19.5 8h-14v-54z" />
    <glyph glyph-name="minus" unicode="&#x2212;" 
d="M770 680v-680h-670v680h670zM170 70h480l-176 171h114l112 -109v478h-480l178 -173h-114l-114 111v-478zM596 294q-21 0 -35.5 14.5t-14.5 34.5q0 21 14.5 35t35.5 14q22 0 36.5 -14t14.5 -35q0 -20 -14.5 -34.5t-36.5 -14.5zM234 391h38q22 0 36.5 -13.5t14.5 -34.5
q0 -20 -14.5 -33.5t-36.5 -13.5h-38v95zM409 391v-20h-48v-18h42v-20h-42v-17h48v-20h-71v95h71zM473 311l-22 33v-48h-23v95h18l33 -51l34 51h17v-95h-23v48l-22 -33h-12zM596 371q-12 0 -19 -8t-7 -20q0 -11 7 -19t19 -8q11 0 18.5 8t7.5 19t-7.5 19.5t-18.5 8.5zM258 316
h14q12 0 19.5 8t7.5 19t-7.5 19t-19.5 8h-14v-54z" />
    <glyph glyph-name="R.ss02" horiz-adv-x="701" 
d="M255 197h-26v-197h-169v680h294q132 0 208.5 -64.5t76.5 -174.5q0 -84 -47 -145t-132 -85l224 -211h-220zM229 531v-182h122q54 0 87 25t33 67q0 41 -33 65.5t-87 24.5h-122z" />
    <glyph glyph-name="Racute.ss02" 
d="M770 680v-680h-670v680h670zM170 70h480l-176 171h114l112 -109v478h-480l178 -173h-114l-114 111v-478zM596 294q-21 0 -35.5 14.5t-14.5 34.5q0 21 14.5 35t35.5 14q22 0 36.5 -14t14.5 -35q0 -20 -14.5 -34.5t-36.5 -14.5zM234 391h38q22 0 36.5 -13.5t14.5 -34.5
q0 -20 -14.5 -33.5t-36.5 -13.5h-38v95zM409 391v-20h-48v-18h42v-20h-42v-17h48v-20h-71v95h71zM473 311l-22 33v-48h-23v95h18l33 -51l34 51h17v-95h-23v48l-22 -33h-12zM596 371q-12 0 -19 -8t-7 -20q0 -11 7 -19t19 -8q11 0 18.5 8t7.5 19t-7.5 19.5t-18.5 8.5zM258 316
h14q12 0 19.5 8t7.5 19t-7.5 19t-19.5 8h-14v-54z" />
    <glyph glyph-name="Rcaron.ss02" 
d="M770 680v-680h-670v680h670zM170 70h480l-176 171h114l112 -109v478h-480l178 -173h-114l-114 111v-478zM596 294q-21 0 -35.5 14.5t-14.5 34.5q0 21 14.5 35t35.5 14q22 0 36.5 -14t14.5 -35q0 -20 -14.5 -34.5t-36.5 -14.5zM234 391h38q22 0 36.5 -13.5t14.5 -34.5
q0 -20 -14.5 -33.5t-36.5 -13.5h-38v95zM409 391v-20h-48v-18h42v-20h-42v-17h48v-20h-71v95h71zM473 311l-22 33v-48h-23v95h18l33 -51l34 51h17v-95h-23v48l-22 -33h-12zM596 371q-12 0 -19 -8t-7 -20q0 -11 7 -19t19 -8q11 0 18.5 8t7.5 19t-7.5 19.5t-18.5 8.5zM258 316
h14q12 0 19.5 8t7.5 19t-7.5 19t-19.5 8h-14v-54z" />
    <glyph glyph-name="Rcommaaccent.ss02" 
d="M770 680v-680h-670v680h670zM170 70h480l-176 171h114l112 -109v478h-480l178 -173h-114l-114 111v-478zM596 294q-21 0 -35.5 14.5t-14.5 34.5q0 21 14.5 35t35.5 14q22 0 36.5 -14t14.5 -35q0 -20 -14.5 -34.5t-36.5 -14.5zM234 391h38q22 0 36.5 -13.5t14.5 -34.5
q0 -20 -14.5 -33.5t-36.5 -13.5h-38v95zM409 391v-20h-48v-18h42v-20h-42v-17h48v-20h-71v95h71zM473 311l-22 33v-48h-23v95h18l33 -51l34 51h17v-95h-23v48l-22 -33h-12zM596 371q-12 0 -19 -8t-7 -20q0 -11 7 -19t19 -8q11 0 18.5 8t7.5 19t-7.5 19.5t-18.5 8.5zM258 316
h14q12 0 19.5 8t7.5 19t-7.5 19t-19.5 8h-14v-54z" />
    <glyph glyph-name="Q.ss03" horiz-adv-x="808" 
d="M404 694q154 0 257.5 -102.5t103.5 -251.5t-103.5 -251.5t-257.5 -102.5q-153 0 -256.5 102.5t-103.5 251.5t103.5 251.5t256.5 102.5zM404 143q81 0 135 57.5t54 139.5t-54 139.5t-135 57.5t-135 -57.5t-54 -139.5t54 -139.5t135 -57.5zM725 -93l-17 -143
q-161 19 -332 69l13 113z" />
    <glyph glyph-name="i.loclTRK" 
d="M770 680v-680h-670v680h670zM170 70h480l-176 171h114l112 -109v478h-480l178 -173h-114l-114 111v-478zM596 294q-21 0 -35.5 14.5t-14.5 34.5q0 21 14.5 35t35.5 14q22 0 36.5 -14t14.5 -35q0 -20 -14.5 -34.5t-36.5 -14.5zM234 391h38q22 0 36.5 -13.5t14.5 -34.5
q0 -20 -14.5 -33.5t-36.5 -13.5h-38v95zM409 391v-20h-48v-18h42v-20h-42v-17h48v-20h-71v95h71zM473 311l-22 33v-48h-23v95h18l33 -51l34 51h17v-95h-23v48l-22 -33h-12zM596 371q-12 0 -19 -8t-7 -20q0 -11 7 -19t19 -8q11 0 18.5 8t7.5 19t-7.5 19.5t-18.5 8.5zM258 316
h14q12 0 19.5 8t7.5 19t-7.5 19t-19.5 8h-14v-54z" />
    <glyph glyph-name="germandbls.case" 
d="M770 680v-680h-670v680h670zM170 70h480l-176 171h114l112 -109v478h-480l178 -173h-114l-114 111v-478zM596 294q-21 0 -35.5 14.5t-14.5 34.5q0 21 14.5 35t35.5 14q22 0 36.5 -14t14.5 -35q0 -20 -14.5 -34.5t-36.5 -14.5zM234 391h38q22 0 36.5 -13.5t14.5 -34.5
q0 -20 -14.5 -33.5t-36.5 -13.5h-38v95zM409 391v-20h-48v-18h42v-20h-42v-17h48v-20h-71v95h71zM473 311l-22 33v-48h-23v95h18l33 -51l34 51h17v-95h-23v48l-22 -33h-12zM596 371q-12 0 -19 -8t-7 -20q0 -11 7 -19t19 -8q11 0 18.5 8t7.5 19t-7.5 19.5t-18.5 8.5zM258 316
h14q12 0 19.5 8t7.5 19t-7.5 19t-19.5 8h-14v-54z" />
    <glyph glyph-name="l.ss01" horiz-adv-x="382" 
d="M217 710v-523q0 -56 55 -56q26 0 68 10l18 -136q-70 -20 -122 -20q-86 0 -133.5 48.5t-47.5 135.5v541h162z" />
    <glyph glyph-name="lacute.ss01" 
d="M770 680v-680h-670v680h670zM170 70h480l-176 171h114l112 -109v478h-480l178 -173h-114l-114 111v-478zM596 294q-21 0 -35.5 14.5t-14.5 34.5q0 21 14.5 35t35.5 14q22 0 36.5 -14t14.5 -35q0 -20 -14.5 -34.5t-36.5 -14.5zM234 391h38q22 0 36.5 -13.5t14.5 -34.5
q0 -20 -14.5 -33.5t-36.5 -13.5h-38v95zM409 391v-20h-48v-18h42v-20h-42v-17h48v-20h-71v95h71zM473 311l-22 33v-48h-23v95h18l33 -51l34 51h17v-95h-23v48l-22 -33h-12zM596 371q-12 0 -19 -8t-7 -20q0 -11 7 -19t19 -8q11 0 18.5 8t7.5 19t-7.5 19.5t-18.5 8.5zM258 316
h14q12 0 19.5 8t7.5 19t-7.5 19t-19.5 8h-14v-54z" />
    <glyph glyph-name="lcaron.ss01" 
d="M770 680v-680h-670v680h670zM170 70h480l-176 171h114l112 -109v478h-480l178 -173h-114l-114 111v-478zM596 294q-21 0 -35.5 14.5t-14.5 34.5q0 21 14.5 35t35.5 14q22 0 36.5 -14t14.5 -35q0 -20 -14.5 -34.5t-36.5 -14.5zM234 391h38q22 0 36.5 -13.5t14.5 -34.5
q0 -20 -14.5 -33.5t-36.5 -13.5h-38v95zM409 391v-20h-48v-18h42v-20h-42v-17h48v-20h-71v95h71zM473 311l-22 33v-48h-23v95h18l33 -51l34 51h17v-95h-23v48l-22 -33h-12zM596 371q-12 0 -19 -8t-7 -20q0 -11 7 -19t19 -8q11 0 18.5 8t7.5 19t-7.5 19.5t-18.5 8.5zM258 316
h14q12 0 19.5 8t7.5 19t-7.5 19t-19.5 8h-14v-54z" />
    <glyph glyph-name="lcommaaccent.ss01" 
d="M770 680v-680h-670v680h670zM170 70h480l-176 171h114l112 -109v478h-480l178 -173h-114l-114 111v-478zM596 294q-21 0 -35.5 14.5t-14.5 34.5q0 21 14.5 35t35.5 14q22 0 36.5 -14t14.5 -35q0 -20 -14.5 -34.5t-36.5 -14.5zM234 391h38q22 0 36.5 -13.5t14.5 -34.5
q0 -20 -14.5 -33.5t-36.5 -13.5h-38v95zM409 391v-20h-48v-18h42v-20h-42v-17h48v-20h-71v95h71zM473 311l-22 33v-48h-23v95h18l33 -51l34 51h17v-95h-23v48l-22 -33h-12zM596 371q-12 0 -19 -8t-7 -20q0 -11 7 -19t19 -8q11 0 18.5 8t7.5 19t-7.5 19.5t-18.5 8.5zM258 316
h14q12 0 19.5 8t7.5 19t-7.5 19t-19.5 8h-14v-54z" />
    <glyph glyph-name="ldot.ss01" 
d="M770 680v-680h-670v680h670zM170 70h480l-176 171h114l112 -109v478h-480l178 -173h-114l-114 111v-478zM596 294q-21 0 -35.5 14.5t-14.5 34.5q0 21 14.5 35t35.5 14q22 0 36.5 -14t14.5 -35q0 -20 -14.5 -34.5t-36.5 -14.5zM234 391h38q22 0 36.5 -13.5t14.5 -34.5
q0 -20 -14.5 -33.5t-36.5 -13.5h-38v95zM409 391v-20h-48v-18h42v-20h-42v-17h48v-20h-71v95h71zM473 311l-22 33v-48h-23v95h18l33 -51l34 51h17v-95h-23v48l-22 -33h-12zM596 371q-12 0 -19 -8t-7 -20q0 -11 7 -19t19 -8q11 0 18.5 8t7.5 19t-7.5 19.5t-18.5 8.5zM258 316
h14q12 0 19.5 8t7.5 19t-7.5 19t-19.5 8h-14v-54z" />
    <glyph glyph-name="lslash.ss01" 
d="M770 680v-680h-670v680h670zM170 70h480l-176 171h114l112 -109v478h-480l178 -173h-114l-114 111v-478zM596 294q-21 0 -35.5 14.5t-14.5 34.5q0 21 14.5 35t35.5 14q22 0 36.5 -14t14.5 -35q0 -20 -14.5 -34.5t-36.5 -14.5zM234 391h38q22 0 36.5 -13.5t14.5 -34.5
q0 -20 -14.5 -33.5t-36.5 -13.5h-38v95zM409 391v-20h-48v-18h42v-20h-42v-17h48v-20h-71v95h71zM473 311l-22 33v-48h-23v95h18l33 -51l34 51h17v-95h-23v48l-22 -33h-12zM596 371q-12 0 -19 -8t-7 -20q0 -11 7 -19t19 -8q11 0 18.5 8t7.5 19t-7.5 19.5t-18.5 8.5zM258 316
h14q12 0 19.5 8t7.5 19t-7.5 19t-19.5 8h-14v-54z" />
    <glyph glyph-name="y.ss04" horiz-adv-x="611" 
d="M555 485v-477q0 -112 -70 -176t-186 -64q-111 0 -182 57.5t-77 152.5h160q5 -33 31.5 -53t67.5 -20q42 0 68 26t26 74v60q-61 -47 -133 -47q-93 0 -150 60t-57 163v244h162v-218q0 -50 24 -76t65 -26q47 0 89 48v272h162z" />
    <glyph glyph-name="yacute.ss04" 
d="M770 680v-680h-670v680h670zM170 70h480l-176 171h114l112 -109v478h-480l178 -173h-114l-114 111v-478zM596 294q-21 0 -35.5 14.5t-14.5 34.5q0 21 14.5 35t35.5 14q22 0 36.5 -14t14.5 -35q0 -20 -14.5 -34.5t-36.5 -14.5zM234 391h38q22 0 36.5 -13.5t14.5 -34.5
q0 -20 -14.5 -33.5t-36.5 -13.5h-38v95zM409 391v-20h-48v-18h42v-20h-42v-17h48v-20h-71v95h71zM473 311l-22 33v-48h-23v95h18l33 -51l34 51h17v-95h-23v48l-22 -33h-12zM596 371q-12 0 -19 -8t-7 -20q0 -11 7 -19t19 -8q11 0 18.5 8t7.5 19t-7.5 19.5t-18.5 8.5zM258 316
h14q12 0 19.5 8t7.5 19t-7.5 19t-19.5 8h-14v-54z" />
    <glyph glyph-name="ycircumflex.ss04" 
d="M770 680v-680h-670v680h670zM170 70h480l-176 171h114l112 -109v478h-480l178 -173h-114l-114 111v-478zM596 294q-21 0 -35.5 14.5t-14.5 34.5q0 21 14.5 35t35.5 14q22 0 36.5 -14t14.5 -35q0 -20 -14.5 -34.5t-36.5 -14.5zM234 391h38q22 0 36.5 -13.5t14.5 -34.5
q0 -20 -14.5 -33.5t-36.5 -13.5h-38v95zM409 391v-20h-48v-18h42v-20h-42v-17h48v-20h-71v95h71zM473 311l-22 33v-48h-23v95h18l33 -51l34 51h17v-95h-23v48l-22 -33h-12zM596 371q-12 0 -19 -8t-7 -20q0 -11 7 -19t19 -8q11 0 18.5 8t7.5 19t-7.5 19.5t-18.5 8.5zM258 316
h14q12 0 19.5 8t7.5 19t-7.5 19t-19.5 8h-14v-54z" />
    <glyph glyph-name="ydieresis.ss04" 
d="M770 680v-680h-670v680h670zM170 70h480l-176 171h114l112 -109v478h-480l178 -173h-114l-114 111v-478zM596 294q-21 0 -35.5 14.5t-14.5 34.5q0 21 14.5 35t35.5 14q22 0 36.5 -14t14.5 -35q0 -20 -14.5 -34.5t-36.5 -14.5zM234 391h38q22 0 36.5 -13.5t14.5 -34.5
q0 -20 -14.5 -33.5t-36.5 -13.5h-38v95zM409 391v-20h-48v-18h42v-20h-42v-17h48v-20h-71v95h71zM473 311l-22 33v-48h-23v95h18l33 -51l34 51h17v-95h-23v48l-22 -33h-12zM596 371q-12 0 -19 -8t-7 -20q0 -11 7 -19t19 -8q11 0 18.5 8t7.5 19t-7.5 19.5t-18.5 8.5zM258 316
h14q12 0 19.5 8t7.5 19t-7.5 19t-19.5 8h-14v-54z" />
    <glyph glyph-name="ygrave.ss04" 
d="M770 680v-680h-670v680h670zM170 70h480l-176 171h114l112 -109v478h-480l178 -173h-114l-114 111v-478zM596 294q-21 0 -35.5 14.5t-14.5 34.5q0 21 14.5 35t35.5 14q22 0 36.5 -14t14.5 -35q0 -20 -14.5 -34.5t-36.5 -14.5zM234 391h38q22 0 36.5 -13.5t14.5 -34.5
q0 -20 -14.5 -33.5t-36.5 -13.5h-38v95zM409 391v-20h-48v-18h42v-20h-42v-17h48v-20h-71v95h71zM473 311l-22 33v-48h-23v95h18l33 -51l34 51h17v-95h-23v48l-22 -33h-12zM596 371q-12 0 -19 -8t-7 -20q0 -11 7 -19t19 -8q11 0 18.5 8t7.5 19t-7.5 19.5t-18.5 8.5zM258 316
h14q12 0 19.5 8t7.5 19t-7.5 19t-19.5 8h-14v-54z" />
    <glyph glyph-name="a.ss06" horiz-adv-x="555" 
d="M277 500q105 0 166.5 -56.5t61.5 -153.5v-290h-151v21q-62 -30 -129 -30q-91 0 -144 41.5t-53 114.5q0 68 51.5 105.5t142.5 37.5h132q0 36 -19.5 59.5t-57.5 23.5q-31 0 -51.5 -15t-24.5 -41h-154q4 89 70 136t160 47zM253 114q52 0 101 30v51h-123q-51 0 -51 -36
q0 -20 18 -32.5t55 -12.5z" />
    <glyph glyph-name="aacute.ss06" 
d="M770 680v-680h-670v680h670zM170 70h480l-176 171h114l112 -109v478h-480l178 -173h-114l-114 111v-478zM596 294q-21 0 -35.5 14.5t-14.5 34.5q0 21 14.5 35t35.5 14q22 0 36.5 -14t14.5 -35q0 -20 -14.5 -34.5t-36.5 -14.5zM234 391h38q22 0 36.5 -13.5t14.5 -34.5
q0 -20 -14.5 -33.5t-36.5 -13.5h-38v95zM409 391v-20h-48v-18h42v-20h-42v-17h48v-20h-71v95h71zM473 311l-22 33v-48h-23v95h18l33 -51l34 51h17v-95h-23v48l-22 -33h-12zM596 371q-12 0 -19 -8t-7 -20q0 -11 7 -19t19 -8q11 0 18.5 8t7.5 19t-7.5 19.5t-18.5 8.5zM258 316
h14q12 0 19.5 8t7.5 19t-7.5 19t-19.5 8h-14v-54z" />
    <glyph glyph-name="abreve.ss06" 
d="M770 680v-680h-670v680h670zM170 70h480l-176 171h114l112 -109v478h-480l178 -173h-114l-114 111v-478zM596 294q-21 0 -35.5 14.5t-14.5 34.5q0 21 14.5 35t35.5 14q22 0 36.5 -14t14.5 -35q0 -20 -14.5 -34.5t-36.5 -14.5zM234 391h38q22 0 36.5 -13.5t14.5 -34.5
q0 -20 -14.5 -33.5t-36.5 -13.5h-38v95zM409 391v-20h-48v-18h42v-20h-42v-17h48v-20h-71v95h71zM473 311l-22 33v-48h-23v95h18l33 -51l34 51h17v-95h-23v48l-22 -33h-12zM596 371q-12 0 -19 -8t-7 -20q0 -11 7 -19t19 -8q11 0 18.5 8t7.5 19t-7.5 19.5t-18.5 8.5zM258 316
h14q12 0 19.5 8t7.5 19t-7.5 19t-19.5 8h-14v-54z" />
    <glyph glyph-name="acaron.ss06" 
d="M770 680v-680h-670v680h670zM170 70h480l-176 171h114l112 -109v478h-480l178 -173h-114l-114 111v-478zM596 294q-21 0 -35.5 14.5t-14.5 34.5q0 21 14.5 35t35.5 14q22 0 36.5 -14t14.5 -35q0 -20 -14.5 -34.5t-36.5 -14.5zM234 391h38q22 0 36.5 -13.5t14.5 -34.5
q0 -20 -14.5 -33.5t-36.5 -13.5h-38v95zM409 391v-20h-48v-18h42v-20h-42v-17h48v-20h-71v95h71zM473 311l-22 33v-48h-23v95h18l33 -51l34 51h17v-95h-23v48l-22 -33h-12zM596 371q-12 0 -19 -8t-7 -20q0 -11 7 -19t19 -8q11 0 18.5 8t7.5 19t-7.5 19.5t-18.5 8.5zM258 316
h14q12 0 19.5 8t7.5 19t-7.5 19t-19.5 8h-14v-54z" />
    <glyph glyph-name="acircumflex.ss06" 
d="M770 680v-680h-670v680h670zM170 70h480l-176 171h114l112 -109v478h-480l178 -173h-114l-114 111v-478zM596 294q-21 0 -35.5 14.5t-14.5 34.5q0 21 14.5 35t35.5 14q22 0 36.5 -14t14.5 -35q0 -20 -14.5 -34.5t-36.5 -14.5zM234 391h38q22 0 36.5 -13.5t14.5 -34.5
q0 -20 -14.5 -33.5t-36.5 -13.5h-38v95zM409 391v-20h-48v-18h42v-20h-42v-17h48v-20h-71v95h71zM473 311l-22 33v-48h-23v95h18l33 -51l34 51h17v-95h-23v48l-22 -33h-12zM596 371q-12 0 -19 -8t-7 -20q0 -11 7 -19t19 -8q11 0 18.5 8t7.5 19t-7.5 19.5t-18.5 8.5zM258 316
h14q12 0 19.5 8t7.5 19t-7.5 19t-19.5 8h-14v-54z" />
    <glyph glyph-name="adieresis.ss06" horiz-adv-x="555" 
d="M166 550q-38 0 -65 25.5t-27 62.5t27 62.5t65 25.5t64.5 -25.5t26.5 -62.5t-26.5 -62.5t-64.5 -25.5zM395 550q-38 0 -65 25.5t-27 62.5t27 62.5t65 25.5t64.5 -25.5t26.5 -62.5t-26.5 -62.5t-64.5 -25.5zM277 500q105 0 166.5 -56.5t61.5 -153.5v-290h-151v21
q-62 -30 -129 -30q-91 0 -144 41.5t-53 114.5q0 68 51.5 105.5t142.5 37.5h132q0 36 -19.5 59.5t-57.5 23.5q-31 0 -51.5 -15t-24.5 -41h-154q4 89 70 136t160 47zM253 114q52 0 101 30v51h-123q-51 0 -51 -36q0 -20 18 -32.5t55 -12.5z" />
    <glyph glyph-name="agrave.ss06" 
d="M770 680v-680h-670v680h670zM170 70h480l-176 171h114l112 -109v478h-480l178 -173h-114l-114 111v-478zM596 294q-21 0 -35.5 14.5t-14.5 34.5q0 21 14.5 35t35.5 14q22 0 36.5 -14t14.5 -35q0 -20 -14.5 -34.5t-36.5 -14.5zM234 391h38q22 0 36.5 -13.5t14.5 -34.5
q0 -20 -14.5 -33.5t-36.5 -13.5h-38v95zM409 391v-20h-48v-18h42v-20h-42v-17h48v-20h-71v95h71zM473 311l-22 33v-48h-23v95h18l33 -51l34 51h17v-95h-23v48l-22 -33h-12zM596 371q-12 0 -19 -8t-7 -20q0 -11 7 -19t19 -8q11 0 18.5 8t7.5 19t-7.5 19.5t-18.5 8.5zM258 316
h14q12 0 19.5 8t7.5 19t-7.5 19t-19.5 8h-14v-54z" />
    <glyph glyph-name="amacron.ss06" 
d="M770 680v-680h-670v680h670zM170 70h480l-176 171h114l112 -109v478h-480l178 -173h-114l-114 111v-478zM596 294q-21 0 -35.5 14.5t-14.5 34.5q0 21 14.5 35t35.5 14q22 0 36.5 -14t14.5 -35q0 -20 -14.5 -34.5t-36.5 -14.5zM234 391h38q22 0 36.5 -13.5t14.5 -34.5
q0 -20 -14.5 -33.5t-36.5 -13.5h-38v95zM409 391v-20h-48v-18h42v-20h-42v-17h48v-20h-71v95h71zM473 311l-22 33v-48h-23v95h18l33 -51l34 51h17v-95h-23v48l-22 -33h-12zM596 371q-12 0 -19 -8t-7 -20q0 -11 7 -19t19 -8q11 0 18.5 8t7.5 19t-7.5 19.5t-18.5 8.5zM258 316
h14q12 0 19.5 8t7.5 19t-7.5 19t-19.5 8h-14v-54z" />
    <glyph glyph-name="aogonek.ss06" 
d="M770 680v-680h-670v680h670zM170 70h480l-176 171h114l112 -109v478h-480l178 -173h-114l-114 111v-478zM596 294q-21 0 -35.5 14.5t-14.5 34.5q0 21 14.5 35t35.5 14q22 0 36.5 -14t14.5 -35q0 -20 -14.5 -34.5t-36.5 -14.5zM234 391h38q22 0 36.5 -13.5t14.5 -34.5
q0 -20 -14.5 -33.5t-36.5 -13.5h-38v95zM409 391v-20h-48v-18h42v-20h-42v-17h48v-20h-71v95h71zM473 311l-22 33v-48h-23v95h18l33 -51l34 51h17v-95h-23v48l-22 -33h-12zM596 371q-12 0 -19 -8t-7 -20q0 -11 7 -19t19 -8q11 0 18.5 8t7.5 19t-7.5 19.5t-18.5 8.5zM258 316
h14q12 0 19.5 8t7.5 19t-7.5 19t-19.5 8h-14v-54z" />
    <glyph glyph-name="aring.ss06" 
d="M770 680v-680h-670v680h670zM170 70h480l-176 171h114l112 -109v478h-480l178 -173h-114l-114 111v-478zM596 294q-21 0 -35.5 14.5t-14.5 34.5q0 21 14.5 35t35.5 14q22 0 36.5 -14t14.5 -35q0 -20 -14.5 -34.5t-36.5 -14.5zM234 391h38q22 0 36.5 -13.5t14.5 -34.5
q0 -20 -14.5 -33.5t-36.5 -13.5h-38v95zM409 391v-20h-48v-18h42v-20h-42v-17h48v-20h-71v95h71zM473 311l-22 33v-48h-23v95h18l33 -51l34 51h17v-95h-23v48l-22 -33h-12zM596 371q-12 0 -19 -8t-7 -20q0 -11 7 -19t19 -8q11 0 18.5 8t7.5 19t-7.5 19.5t-18.5 8.5zM258 316
h14q12 0 19.5 8t7.5 19t-7.5 19t-19.5 8h-14v-54z" />
    <glyph glyph-name="atilde.ss06" 
d="M770 680v-680h-670v680h670zM170 70h480l-176 171h114l112 -109v478h-480l178 -173h-114l-114 111v-478zM596 294q-21 0 -35.5 14.5t-14.5 34.5q0 21 14.5 35t35.5 14q22 0 36.5 -14t14.5 -35q0 -20 -14.5 -34.5t-36.5 -14.5zM234 391h38q22 0 36.5 -13.5t14.5 -34.5
q0 -20 -14.5 -33.5t-36.5 -13.5h-38v95zM409 391v-20h-48v-18h42v-20h-42v-17h48v-20h-71v95h71zM473 311l-22 33v-48h-23v95h18l33 -51l34 51h17v-95h-23v48l-22 -33h-12zM596 371q-12 0 -19 -8t-7 -20q0 -11 7 -19t19 -8q11 0 18.5 8t7.5 19t-7.5 19.5t-18.5 8.5zM258 316
h14q12 0 19.5 8t7.5 19t-7.5 19t-19.5 8h-14v-54z" />
    <glyph glyph-name="zero.osf" 
d="M770 680v-680h-670v680h670zM170 70h480l-176 171h114l112 -109v478h-480l178 -173h-114l-114 111v-478zM596 294q-21 0 -35.5 14.5t-14.5 34.5q0 21 14.5 35t35.5 14q22 0 36.5 -14t14.5 -35q0 -20 -14.5 -34.5t-36.5 -14.5zM234 391h38q22 0 36.5 -13.5t14.5 -34.5
q0 -20 -14.5 -33.5t-36.5 -13.5h-38v95zM409 391v-20h-48v-18h42v-20h-42v-17h48v-20h-71v95h71zM473 311l-22 33v-48h-23v95h18l33 -51l34 51h17v-95h-23v48l-22 -33h-12zM596 371q-12 0 -19 -8t-7 -20q0 -11 7 -19t19 -8q11 0 18.5 8t7.5 19t-7.5 19.5t-18.5 8.5zM258 316
h14q12 0 19.5 8t7.5 19t-7.5 19t-19.5 8h-14v-54z" />
    <glyph glyph-name="one.osf" 
d="M770 680v-680h-670v680h670zM170 70h480l-176 171h114l112 -109v478h-480l178 -173h-114l-114 111v-478zM596 294q-21 0 -35.5 14.5t-14.5 34.5q0 21 14.5 35t35.5 14q22 0 36.5 -14t14.5 -35q0 -20 -14.5 -34.5t-36.5 -14.5zM234 391h38q22 0 36.5 -13.5t14.5 -34.5
q0 -20 -14.5 -33.5t-36.5 -13.5h-38v95zM409 391v-20h-48v-18h42v-20h-42v-17h48v-20h-71v95h71zM473 311l-22 33v-48h-23v95h18l33 -51l34 51h17v-95h-23v48l-22 -33h-12zM596 371q-12 0 -19 -8t-7 -20q0 -11 7 -19t19 -8q11 0 18.5 8t7.5 19t-7.5 19.5t-18.5 8.5zM258 316
h14q12 0 19.5 8t7.5 19t-7.5 19t-19.5 8h-14v-54z" />
    <glyph glyph-name="two.osf" 
d="M770 680v-680h-670v680h670zM170 70h480l-176 171h114l112 -109v478h-480l178 -173h-114l-114 111v-478zM596 294q-21 0 -35.5 14.5t-14.5 34.5q0 21 14.5 35t35.5 14q22 0 36.5 -14t14.5 -35q0 -20 -14.5 -34.5t-36.5 -14.5zM234 391h38q22 0 36.5 -13.5t14.5 -34.5
q0 -20 -14.5 -33.5t-36.5 -13.5h-38v95zM409 391v-20h-48v-18h42v-20h-42v-17h48v-20h-71v95h71zM473 311l-22 33v-48h-23v95h18l33 -51l34 51h17v-95h-23v48l-22 -33h-12zM596 371q-12 0 -19 -8t-7 -20q0 -11 7 -19t19 -8q11 0 18.5 8t7.5 19t-7.5 19.5t-18.5 8.5zM258 316
h14q12 0 19.5 8t7.5 19t-7.5 19t-19.5 8h-14v-54z" />
    <glyph glyph-name="three.osf" 
d="M770 680v-680h-670v680h670zM170 70h480l-176 171h114l112 -109v478h-480l178 -173h-114l-114 111v-478zM596 294q-21 0 -35.5 14.5t-14.5 34.5q0 21 14.5 35t35.5 14q22 0 36.5 -14t14.5 -35q0 -20 -14.5 -34.5t-36.5 -14.5zM234 391h38q22 0 36.5 -13.5t14.5 -34.5
q0 -20 -14.5 -33.5t-36.5 -13.5h-38v95zM409 391v-20h-48v-18h42v-20h-42v-17h48v-20h-71v95h71zM473 311l-22 33v-48h-23v95h18l33 -51l34 51h17v-95h-23v48l-22 -33h-12zM596 371q-12 0 -19 -8t-7 -20q0 -11 7 -19t19 -8q11 0 18.5 8t7.5 19t-7.5 19.5t-18.5 8.5zM258 316
h14q12 0 19.5 8t7.5 19t-7.5 19t-19.5 8h-14v-54z" />
    <glyph glyph-name="four.osf" 
d="M770 680v-680h-670v680h670zM170 70h480l-176 171h114l112 -109v478h-480l178 -173h-114l-114 111v-478zM596 294q-21 0 -35.5 14.5t-14.5 34.5q0 21 14.5 35t35.5 14q22 0 36.5 -14t14.5 -35q0 -20 -14.5 -34.5t-36.5 -14.5zM234 391h38q22 0 36.5 -13.5t14.5 -34.5
q0 -20 -14.5 -33.5t-36.5 -13.5h-38v95zM409 391v-20h-48v-18h42v-20h-42v-17h48v-20h-71v95h71zM473 311l-22 33v-48h-23v95h18l33 -51l34 51h17v-95h-23v48l-22 -33h-12zM596 371q-12 0 -19 -8t-7 -20q0 -11 7 -19t19 -8q11 0 18.5 8t7.5 19t-7.5 19.5t-18.5 8.5zM258 316
h14q12 0 19.5 8t7.5 19t-7.5 19t-19.5 8h-14v-54z" />
    <glyph glyph-name="five.osf" 
d="M770 680v-680h-670v680h670zM170 70h480l-176 171h114l112 -109v478h-480l178 -173h-114l-114 111v-478zM596 294q-21 0 -35.5 14.5t-14.5 34.5q0 21 14.5 35t35.5 14q22 0 36.5 -14t14.5 -35q0 -20 -14.5 -34.5t-36.5 -14.5zM234 391h38q22 0 36.5 -13.5t14.5 -34.5
q0 -20 -14.5 -33.5t-36.5 -13.5h-38v95zM409 391v-20h-48v-18h42v-20h-42v-17h48v-20h-71v95h71zM473 311l-22 33v-48h-23v95h18l33 -51l34 51h17v-95h-23v48l-22 -33h-12zM596 371q-12 0 -19 -8t-7 -20q0 -11 7 -19t19 -8q11 0 18.5 8t7.5 19t-7.5 19.5t-18.5 8.5zM258 316
h14q12 0 19.5 8t7.5 19t-7.5 19t-19.5 8h-14v-54z" />
    <glyph glyph-name="six.osf" 
d="M770 680v-680h-670v680h670zM170 70h480l-176 171h114l112 -109v478h-480l178 -173h-114l-114 111v-478zM596 294q-21 0 -35.5 14.5t-14.5 34.5q0 21 14.5 35t35.5 14q22 0 36.5 -14t14.5 -35q0 -20 -14.5 -34.5t-36.5 -14.5zM234 391h38q22 0 36.5 -13.5t14.5 -34.5
q0 -20 -14.5 -33.5t-36.5 -13.5h-38v95zM409 391v-20h-48v-18h42v-20h-42v-17h48v-20h-71v95h71zM473 311l-22 33v-48h-23v95h18l33 -51l34 51h17v-95h-23v48l-22 -33h-12zM596 371q-12 0 -19 -8t-7 -20q0 -11 7 -19t19 -8q11 0 18.5 8t7.5 19t-7.5 19.5t-18.5 8.5zM258 316
h14q12 0 19.5 8t7.5 19t-7.5 19t-19.5 8h-14v-54z" />
    <glyph glyph-name="seven.osf" 
d="M770 680v-680h-670v680h670zM170 70h480l-176 171h114l112 -109v478h-480l178 -173h-114l-114 111v-478zM596 294q-21 0 -35.5 14.5t-14.5 34.5q0 21 14.5 35t35.5 14q22 0 36.5 -14t14.5 -35q0 -20 -14.5 -34.5t-36.5 -14.5zM234 391h38q22 0 36.5 -13.5t14.5 -34.5
q0 -20 -14.5 -33.5t-36.5 -13.5h-38v95zM409 391v-20h-48v-18h42v-20h-42v-17h48v-20h-71v95h71zM473 311l-22 33v-48h-23v95h18l33 -51l34 51h17v-95h-23v48l-22 -33h-12zM596 371q-12 0 -19 -8t-7 -20q0 -11 7 -19t19 -8q11 0 18.5 8t7.5 19t-7.5 19.5t-18.5 8.5zM258 316
h14q12 0 19.5 8t7.5 19t-7.5 19t-19.5 8h-14v-54z" />
    </font>
</defs>
</svg>
